G04 EAGLE Gerber X2 export*
%TF.Part,Single*%
%TF.FileFunction,Copper,L2,Bot,Mixed*%
%TF.FilePolarity,Positive*%
%TF.GenerationSoftware,Autodesk,EAGLE,8.7.1*%
%TF.CreationDate,2018-04-16T05:42:20Z*%
G75*
%MOMM*%
%FSLAX34Y34*%
%LPD*%
%AMOC8*
5,1,8,0,0,1.08239X$1,22.5*%
G01*
%ADD10P,1.429621X8X292.500000*%
%ADD11P,1.429621X8X112.500000*%
%ADD12C,1.320800*%
%ADD13P,1.429621X8X22.500000*%
%ADD14C,1.308000*%
%ADD15C,2.850000*%
%ADD16C,1.879600*%
%ADD17P,1.429621X8X202.500000*%
%ADD18C,1.320800*%
%ADD19C,1.508000*%
%ADD20C,0.406400*%
%ADD21C,0.756400*%

G36*
X489098Y10164D02*
X489098Y10164D01*
X489117Y10162D01*
X489219Y10184D01*
X489321Y10200D01*
X489338Y10210D01*
X489358Y10214D01*
X489447Y10267D01*
X489538Y10316D01*
X489552Y10330D01*
X489569Y10340D01*
X489636Y10419D01*
X489708Y10494D01*
X489716Y10512D01*
X489729Y10527D01*
X489768Y10623D01*
X489811Y10717D01*
X489813Y10737D01*
X489821Y10755D01*
X489839Y10922D01*
X489839Y164338D01*
X489836Y164358D01*
X489838Y164377D01*
X489816Y164479D01*
X489800Y164581D01*
X489790Y164598D01*
X489786Y164618D01*
X489733Y164707D01*
X489684Y164798D01*
X489670Y164812D01*
X489660Y164829D01*
X489581Y164896D01*
X489506Y164967D01*
X489488Y164976D01*
X489473Y164989D01*
X489377Y165027D01*
X489283Y165071D01*
X489263Y165073D01*
X489245Y165081D01*
X489078Y165099D01*
X488949Y165099D01*
X488949Y165862D01*
X488946Y165882D01*
X488948Y165901D01*
X488926Y166003D01*
X488909Y166105D01*
X488900Y166122D01*
X488896Y166142D01*
X488843Y166231D01*
X488794Y166322D01*
X488780Y166336D01*
X488770Y166353D01*
X488691Y166420D01*
X488616Y166491D01*
X488598Y166500D01*
X488583Y166513D01*
X488487Y166552D01*
X488393Y166595D01*
X488373Y166597D01*
X488355Y166605D01*
X488188Y166623D01*
X477104Y166623D01*
X477305Y167896D01*
X477886Y169683D01*
X478739Y171357D01*
X479844Y172878D01*
X481172Y174206D01*
X482693Y175311D01*
X484367Y176164D01*
X486141Y176741D01*
X486231Y176787D01*
X486324Y176828D01*
X486340Y176843D01*
X486360Y176853D01*
X486430Y176926D01*
X486505Y176995D01*
X486516Y177014D01*
X486531Y177030D01*
X486575Y177121D01*
X486624Y177210D01*
X486628Y177232D01*
X486637Y177252D01*
X486649Y177352D01*
X486667Y177452D01*
X486664Y177474D01*
X486667Y177496D01*
X486646Y177595D01*
X486632Y177695D01*
X486622Y177715D01*
X486617Y177737D01*
X486566Y177824D01*
X486520Y177915D01*
X486504Y177930D01*
X486493Y177949D01*
X486417Y178016D01*
X486345Y178087D01*
X486320Y178100D01*
X486308Y178111D01*
X486278Y178124D01*
X486198Y178168D01*
X481899Y179948D01*
X478398Y183449D01*
X476503Y188024D01*
X476503Y192976D01*
X478398Y197551D01*
X481899Y201052D01*
X485388Y202497D01*
X485449Y202535D01*
X485514Y202564D01*
X485552Y202599D01*
X485597Y202626D01*
X485643Y202682D01*
X485695Y202730D01*
X485720Y202776D01*
X485754Y202816D01*
X485779Y202883D01*
X485814Y202946D01*
X485823Y202997D01*
X485842Y203045D01*
X485845Y203117D01*
X485858Y203188D01*
X485850Y203239D01*
X485852Y203291D01*
X485832Y203360D01*
X485822Y203431D01*
X485798Y203477D01*
X485784Y203527D01*
X485743Y203586D01*
X485710Y203650D01*
X485673Y203687D01*
X485643Y203729D01*
X485586Y203772D01*
X485535Y203822D01*
X485472Y203857D01*
X485446Y203876D01*
X485424Y203883D01*
X485388Y203903D01*
X481899Y205348D01*
X478398Y208849D01*
X476503Y213424D01*
X476503Y218376D01*
X478398Y222951D01*
X481899Y226452D01*
X485388Y227897D01*
X485449Y227935D01*
X485514Y227964D01*
X485552Y227999D01*
X485597Y228026D01*
X485643Y228082D01*
X485695Y228130D01*
X485720Y228176D01*
X485754Y228216D01*
X485779Y228283D01*
X485814Y228346D01*
X485823Y228397D01*
X485842Y228445D01*
X485845Y228517D01*
X485858Y228588D01*
X485850Y228639D01*
X485852Y228691D01*
X485832Y228760D01*
X485822Y228831D01*
X485798Y228877D01*
X485784Y228927D01*
X485743Y228986D01*
X485710Y229050D01*
X485673Y229087D01*
X485643Y229129D01*
X485586Y229172D01*
X485535Y229222D01*
X485472Y229257D01*
X485446Y229276D01*
X485424Y229283D01*
X485388Y229303D01*
X481899Y230748D01*
X478398Y234249D01*
X476503Y238824D01*
X476503Y243776D01*
X478398Y248351D01*
X481899Y251852D01*
X485388Y253297D01*
X485449Y253335D01*
X485514Y253364D01*
X485552Y253399D01*
X485597Y253426D01*
X485643Y253482D01*
X485695Y253530D01*
X485720Y253576D01*
X485754Y253616D01*
X485779Y253683D01*
X485814Y253746D01*
X485823Y253797D01*
X485842Y253845D01*
X485845Y253917D01*
X485858Y253988D01*
X485850Y254039D01*
X485852Y254091D01*
X485832Y254160D01*
X485822Y254231D01*
X485798Y254277D01*
X485784Y254327D01*
X485743Y254386D01*
X485710Y254450D01*
X485673Y254487D01*
X485643Y254529D01*
X485586Y254572D01*
X485535Y254622D01*
X485472Y254657D01*
X485446Y254676D01*
X485424Y254683D01*
X485388Y254703D01*
X481899Y256148D01*
X478398Y259649D01*
X476503Y264224D01*
X476503Y269176D01*
X478398Y273751D01*
X481899Y277252D01*
X485388Y278697D01*
X485449Y278735D01*
X485514Y278764D01*
X485552Y278799D01*
X485597Y278826D01*
X485643Y278882D01*
X485695Y278930D01*
X485720Y278976D01*
X485754Y279016D01*
X485779Y279083D01*
X485814Y279146D01*
X485823Y279197D01*
X485842Y279245D01*
X485845Y279317D01*
X485858Y279388D01*
X485850Y279439D01*
X485852Y279491D01*
X485832Y279560D01*
X485822Y279631D01*
X485798Y279677D01*
X485784Y279727D01*
X485743Y279786D01*
X485710Y279850D01*
X485673Y279887D01*
X485643Y279929D01*
X485586Y279972D01*
X485535Y280022D01*
X485472Y280057D01*
X485446Y280076D01*
X485424Y280083D01*
X485388Y280103D01*
X481899Y281548D01*
X478398Y285049D01*
X476503Y289624D01*
X476503Y294576D01*
X478398Y299151D01*
X481899Y302652D01*
X485388Y304097D01*
X485449Y304135D01*
X485514Y304164D01*
X485552Y304199D01*
X485597Y304226D01*
X485643Y304282D01*
X485695Y304330D01*
X485720Y304376D01*
X485754Y304416D01*
X485779Y304483D01*
X485814Y304546D01*
X485823Y304597D01*
X485842Y304645D01*
X485845Y304717D01*
X485858Y304788D01*
X485850Y304839D01*
X485852Y304891D01*
X485832Y304960D01*
X485822Y305031D01*
X485798Y305077D01*
X485784Y305127D01*
X485743Y305186D01*
X485710Y305250D01*
X485673Y305287D01*
X485643Y305329D01*
X485586Y305372D01*
X485535Y305422D01*
X485472Y305457D01*
X485446Y305476D01*
X485424Y305483D01*
X485388Y305503D01*
X481899Y306948D01*
X478398Y310449D01*
X476503Y315024D01*
X476503Y319976D01*
X478398Y324551D01*
X481899Y328052D01*
X485388Y329497D01*
X485449Y329535D01*
X485514Y329564D01*
X485552Y329599D01*
X485597Y329626D01*
X485643Y329682D01*
X485695Y329730D01*
X485720Y329776D01*
X485754Y329816D01*
X485779Y329883D01*
X485814Y329946D01*
X485823Y329997D01*
X485842Y330045D01*
X485845Y330117D01*
X485858Y330188D01*
X485850Y330239D01*
X485852Y330291D01*
X485832Y330360D01*
X485822Y330431D01*
X485798Y330477D01*
X485784Y330527D01*
X485743Y330586D01*
X485710Y330650D01*
X485673Y330687D01*
X485643Y330729D01*
X485586Y330772D01*
X485535Y330822D01*
X485472Y330857D01*
X485446Y330876D01*
X485424Y330883D01*
X485388Y330903D01*
X481899Y332348D01*
X478398Y335849D01*
X476503Y340424D01*
X476503Y345376D01*
X478398Y349951D01*
X481899Y353452D01*
X486474Y355347D01*
X489078Y355347D01*
X489098Y355350D01*
X489117Y355348D01*
X489219Y355370D01*
X489321Y355386D01*
X489338Y355396D01*
X489358Y355400D01*
X489447Y355453D01*
X489538Y355502D01*
X489552Y355516D01*
X489569Y355526D01*
X489636Y355605D01*
X489708Y355680D01*
X489716Y355698D01*
X489729Y355713D01*
X489768Y355809D01*
X489811Y355903D01*
X489813Y355923D01*
X489821Y355941D01*
X489839Y356108D01*
X489839Y431424D01*
X489828Y431495D01*
X489826Y431567D01*
X489808Y431616D01*
X489800Y431667D01*
X489766Y431731D01*
X489741Y431798D01*
X489709Y431839D01*
X489684Y431885D01*
X489632Y431934D01*
X489588Y431990D01*
X489544Y432018D01*
X489506Y432054D01*
X489441Y432084D01*
X489381Y432123D01*
X489330Y432136D01*
X489283Y432158D01*
X489212Y432165D01*
X489142Y432183D01*
X489090Y432179D01*
X489039Y432185D01*
X488968Y432169D01*
X488897Y432164D01*
X488849Y432144D01*
X488798Y432132D01*
X488737Y432096D01*
X488671Y432068D01*
X488615Y432023D01*
X488587Y432006D01*
X488572Y431988D01*
X488540Y431963D01*
X483804Y427227D01*
X475808Y427227D01*
X470153Y432882D01*
X470153Y440878D01*
X475808Y446533D01*
X483804Y446533D01*
X488540Y441797D01*
X488598Y441755D01*
X488650Y441706D01*
X488697Y441684D01*
X488739Y441654D01*
X488808Y441633D01*
X488873Y441602D01*
X488925Y441597D01*
X488975Y441581D01*
X489046Y441583D01*
X489117Y441575D01*
X489168Y441586D01*
X489220Y441588D01*
X489288Y441612D01*
X489358Y441628D01*
X489403Y441654D01*
X489451Y441672D01*
X489507Y441717D01*
X489569Y441754D01*
X489603Y441793D01*
X489643Y441826D01*
X489682Y441886D01*
X489729Y441941D01*
X489748Y441989D01*
X489776Y442033D01*
X489794Y442102D01*
X489821Y442169D01*
X489829Y442240D01*
X489837Y442271D01*
X489835Y442295D01*
X489839Y442336D01*
X489839Y469270D01*
X489828Y469341D01*
X489826Y469413D01*
X489808Y469462D01*
X489800Y469513D01*
X489766Y469577D01*
X489741Y469644D01*
X489709Y469685D01*
X489684Y469731D01*
X489632Y469780D01*
X489588Y469836D01*
X489544Y469864D01*
X489506Y469900D01*
X489441Y469930D01*
X489381Y469969D01*
X489330Y469982D01*
X489283Y470004D01*
X489212Y470011D01*
X489142Y470029D01*
X489090Y470025D01*
X489039Y470031D01*
X488968Y470015D01*
X488897Y470010D01*
X488849Y469990D01*
X488798Y469978D01*
X488737Y469942D01*
X488671Y469914D01*
X488615Y469869D01*
X488587Y469852D01*
X488572Y469834D01*
X488540Y469809D01*
X484312Y465581D01*
X476316Y465581D01*
X470661Y471236D01*
X470661Y479232D01*
X476316Y484887D01*
X484312Y484887D01*
X488540Y480659D01*
X488598Y480617D01*
X488650Y480568D01*
X488697Y480546D01*
X488739Y480516D01*
X488808Y480495D01*
X488873Y480464D01*
X488925Y480459D01*
X488975Y480443D01*
X489046Y480445D01*
X489117Y480437D01*
X489168Y480448D01*
X489220Y480450D01*
X489288Y480474D01*
X489358Y480490D01*
X489403Y480516D01*
X489451Y480534D01*
X489507Y480579D01*
X489569Y480616D01*
X489603Y480655D01*
X489643Y480688D01*
X489682Y480748D01*
X489729Y480803D01*
X489748Y480851D01*
X489776Y480895D01*
X489794Y480964D01*
X489821Y481031D01*
X489829Y481102D01*
X489837Y481133D01*
X489835Y481157D01*
X489839Y481198D01*
X489839Y489078D01*
X489836Y489098D01*
X489838Y489117D01*
X489816Y489219D01*
X489800Y489321D01*
X489790Y489338D01*
X489786Y489358D01*
X489733Y489447D01*
X489684Y489538D01*
X489670Y489552D01*
X489660Y489569D01*
X489581Y489636D01*
X489506Y489708D01*
X489488Y489716D01*
X489473Y489729D01*
X489377Y489768D01*
X489283Y489811D01*
X489263Y489813D01*
X489245Y489821D01*
X489078Y489839D01*
X10922Y489839D01*
X10902Y489836D01*
X10883Y489838D01*
X10781Y489816D01*
X10679Y489800D01*
X10662Y489790D01*
X10642Y489786D01*
X10553Y489733D01*
X10462Y489684D01*
X10448Y489670D01*
X10431Y489660D01*
X10364Y489581D01*
X10292Y489506D01*
X10284Y489488D01*
X10271Y489473D01*
X10232Y489377D01*
X10189Y489283D01*
X10187Y489263D01*
X10179Y489245D01*
X10161Y489078D01*
X10161Y483108D01*
X10164Y483088D01*
X10162Y483069D01*
X10184Y482967D01*
X10200Y482865D01*
X10210Y482848D01*
X10214Y482828D01*
X10267Y482739D01*
X10316Y482648D01*
X10330Y482634D01*
X10340Y482617D01*
X10419Y482550D01*
X10494Y482478D01*
X10512Y482470D01*
X10527Y482457D01*
X10623Y482418D01*
X10717Y482375D01*
X10737Y482373D01*
X10755Y482365D01*
X10922Y482347D01*
X15176Y482347D01*
X19751Y480452D01*
X23252Y476951D01*
X23873Y475451D01*
X23935Y475351D01*
X23995Y475251D01*
X23999Y475247D01*
X24003Y475242D01*
X24093Y475167D01*
X24182Y475091D01*
X24187Y475089D01*
X24192Y475085D01*
X24301Y475043D01*
X24410Y474999D01*
X24417Y474998D01*
X24422Y474997D01*
X24440Y474996D01*
X24576Y474981D01*
X40205Y474981D01*
X154282Y360904D01*
X154355Y360851D01*
X154425Y360791D01*
X154455Y360779D01*
X154481Y360760D01*
X154568Y360733D01*
X154653Y360699D01*
X154694Y360695D01*
X154716Y360688D01*
X154749Y360689D01*
X154820Y360681D01*
X200444Y360681D01*
X200558Y360700D01*
X200675Y360717D01*
X200680Y360719D01*
X200687Y360720D01*
X200790Y360775D01*
X200894Y360828D01*
X200898Y360833D01*
X200904Y360836D01*
X200984Y360920D01*
X201066Y361004D01*
X201070Y361010D01*
X201073Y361014D01*
X201081Y361031D01*
X201088Y361043D01*
X203828Y363783D01*
X207376Y365253D01*
X224424Y365253D01*
X227972Y363783D01*
X230687Y361068D01*
X232157Y357520D01*
X232157Y353680D01*
X230687Y350132D01*
X227972Y347417D01*
X224424Y345947D01*
X207376Y345947D01*
X203828Y347417D01*
X201070Y350175D01*
X201026Y350249D01*
X201021Y350253D01*
X201018Y350258D01*
X200927Y350333D01*
X200839Y350409D01*
X200833Y350411D01*
X200828Y350415D01*
X200719Y350457D01*
X200611Y350501D01*
X200603Y350502D01*
X200599Y350503D01*
X200580Y350504D01*
X200444Y350519D01*
X150295Y350519D01*
X147096Y353718D01*
X36218Y464596D01*
X36145Y464649D01*
X36075Y464709D01*
X36045Y464721D01*
X36019Y464740D01*
X35932Y464767D01*
X35847Y464801D01*
X35806Y464805D01*
X35784Y464812D01*
X35751Y464811D01*
X35680Y464819D01*
X24576Y464819D01*
X24462Y464800D01*
X24345Y464783D01*
X24340Y464781D01*
X24334Y464780D01*
X24231Y464725D01*
X24126Y464672D01*
X24122Y464667D01*
X24116Y464664D01*
X24036Y464580D01*
X23954Y464496D01*
X23950Y464490D01*
X23947Y464486D01*
X23939Y464469D01*
X23873Y464349D01*
X23252Y462849D01*
X19751Y459348D01*
X16262Y457903D01*
X16201Y457865D01*
X16136Y457836D01*
X16098Y457801D01*
X16053Y457774D01*
X16008Y457718D01*
X15955Y457670D01*
X15930Y457624D01*
X15896Y457584D01*
X15871Y457517D01*
X15836Y457454D01*
X15827Y457403D01*
X15808Y457355D01*
X15805Y457283D01*
X15792Y457212D01*
X15800Y457161D01*
X15798Y457109D01*
X15818Y457040D01*
X15828Y456969D01*
X15852Y456923D01*
X15866Y456873D01*
X15907Y456814D01*
X15940Y456750D01*
X15977Y456713D01*
X16007Y456671D01*
X16064Y456628D01*
X16115Y456578D01*
X16178Y456543D01*
X16204Y456524D01*
X16226Y456517D01*
X16262Y456497D01*
X19751Y455052D01*
X23252Y451551D01*
X25147Y446976D01*
X25147Y442024D01*
X24525Y440524D01*
X24517Y440487D01*
X24510Y440472D01*
X24507Y440444D01*
X24499Y440411D01*
X24470Y440297D01*
X24471Y440291D01*
X24469Y440285D01*
X24480Y440168D01*
X24489Y440052D01*
X24492Y440046D01*
X24492Y440040D01*
X24540Y439932D01*
X24586Y439826D01*
X24590Y439820D01*
X24592Y439815D01*
X24605Y439801D01*
X24690Y439695D01*
X39982Y424404D01*
X40055Y424351D01*
X40125Y424291D01*
X40155Y424279D01*
X40181Y424260D01*
X40268Y424233D01*
X40353Y424199D01*
X40394Y424195D01*
X40416Y424188D01*
X40449Y424189D01*
X40520Y424181D01*
X58605Y424181D01*
X58695Y424195D01*
X58786Y424203D01*
X58816Y424215D01*
X58848Y424220D01*
X58929Y424263D01*
X59013Y424299D01*
X59045Y424325D01*
X59065Y424336D01*
X59088Y424359D01*
X59144Y424404D01*
X59631Y424891D01*
X62141Y425931D01*
X64859Y425931D01*
X67369Y424891D01*
X69291Y422969D01*
X70331Y420459D01*
X70331Y417741D01*
X69291Y415231D01*
X67369Y413309D01*
X64859Y412269D01*
X62141Y412269D01*
X59631Y413309D01*
X59144Y413796D01*
X59070Y413849D01*
X59000Y413909D01*
X58970Y413921D01*
X58944Y413940D01*
X58857Y413967D01*
X58772Y414001D01*
X58731Y414005D01*
X58709Y414012D01*
X58677Y414011D01*
X58605Y414019D01*
X35995Y414019D01*
X24495Y425520D01*
X24492Y425522D01*
X24489Y425525D01*
X24391Y425594D01*
X24295Y425663D01*
X24292Y425664D01*
X24288Y425667D01*
X24173Y425701D01*
X24060Y425736D01*
X24056Y425735D01*
X24052Y425737D01*
X23934Y425732D01*
X23814Y425729D01*
X23811Y425728D01*
X23807Y425728D01*
X23697Y425686D01*
X23583Y425645D01*
X23580Y425642D01*
X23576Y425641D01*
X23485Y425566D01*
X23391Y425491D01*
X23389Y425488D01*
X23386Y425485D01*
X23324Y425386D01*
X23258Y425284D01*
X23257Y425280D01*
X23255Y425277D01*
X23228Y425162D01*
X23198Y425046D01*
X23199Y425042D01*
X23198Y425038D01*
X23208Y424918D01*
X23217Y424800D01*
X23219Y424797D01*
X23219Y424793D01*
X23279Y424636D01*
X23764Y423683D01*
X24345Y421896D01*
X24546Y420623D01*
X13462Y420623D01*
X13442Y420620D01*
X13423Y420622D01*
X13321Y420600D01*
X13219Y420583D01*
X13202Y420574D01*
X13182Y420570D01*
X13093Y420517D01*
X13002Y420468D01*
X12988Y420454D01*
X12971Y420444D01*
X12904Y420365D01*
X12833Y420290D01*
X12824Y420272D01*
X12811Y420257D01*
X12773Y420161D01*
X12729Y420067D01*
X12727Y420047D01*
X12719Y420029D01*
X12701Y419862D01*
X12701Y418338D01*
X12704Y418318D01*
X12702Y418299D01*
X12724Y418197D01*
X12741Y418095D01*
X12750Y418078D01*
X12754Y418058D01*
X12807Y417969D01*
X12856Y417878D01*
X12870Y417864D01*
X12880Y417847D01*
X12959Y417780D01*
X13034Y417709D01*
X13052Y417700D01*
X13067Y417687D01*
X13163Y417648D01*
X13257Y417605D01*
X13277Y417603D01*
X13295Y417595D01*
X13462Y417577D01*
X24546Y417577D01*
X24345Y416304D01*
X23764Y414517D01*
X22911Y412843D01*
X21806Y411322D01*
X20478Y409994D01*
X18957Y408889D01*
X17283Y408036D01*
X15509Y407459D01*
X15419Y407413D01*
X15326Y407372D01*
X15310Y407357D01*
X15290Y407347D01*
X15220Y407274D01*
X15145Y407205D01*
X15134Y407186D01*
X15119Y407170D01*
X15075Y407079D01*
X15026Y406990D01*
X15022Y406968D01*
X15013Y406948D01*
X15001Y406848D01*
X14983Y406748D01*
X14986Y406726D01*
X14983Y406704D01*
X15004Y406605D01*
X15018Y406505D01*
X15028Y406485D01*
X15033Y406463D01*
X15084Y406376D01*
X15130Y406285D01*
X15146Y406270D01*
X15157Y406251D01*
X15233Y406184D01*
X15305Y406113D01*
X15330Y406100D01*
X15342Y406089D01*
X15372Y406076D01*
X15452Y406032D01*
X19751Y404252D01*
X23252Y400751D01*
X25147Y396176D01*
X25147Y391224D01*
X23252Y386649D01*
X19751Y383148D01*
X16262Y381703D01*
X16201Y381665D01*
X16136Y381636D01*
X16097Y381601D01*
X16053Y381574D01*
X16007Y381518D01*
X15955Y381470D01*
X15930Y381424D01*
X15896Y381384D01*
X15871Y381317D01*
X15836Y381254D01*
X15827Y381203D01*
X15808Y381155D01*
X15805Y381083D01*
X15792Y381012D01*
X15800Y380961D01*
X15798Y380909D01*
X15818Y380840D01*
X15828Y380769D01*
X15852Y380723D01*
X15866Y380673D01*
X15907Y380614D01*
X15940Y380550D01*
X15977Y380513D01*
X16007Y380471D01*
X16064Y380428D01*
X16115Y380378D01*
X16178Y380343D01*
X16204Y380324D01*
X16226Y380317D01*
X16262Y380297D01*
X19751Y378852D01*
X23252Y375351D01*
X25147Y370776D01*
X25147Y365824D01*
X23252Y361249D01*
X19751Y357748D01*
X16262Y356303D01*
X16201Y356265D01*
X16136Y356236D01*
X16097Y356201D01*
X16053Y356174D01*
X16007Y356118D01*
X15955Y356070D01*
X15930Y356024D01*
X15896Y355984D01*
X15871Y355917D01*
X15836Y355854D01*
X15827Y355803D01*
X15808Y355755D01*
X15805Y355683D01*
X15792Y355612D01*
X15800Y355561D01*
X15798Y355509D01*
X15818Y355440D01*
X15828Y355369D01*
X15852Y355323D01*
X15866Y355273D01*
X15907Y355214D01*
X15940Y355150D01*
X15977Y355113D01*
X16007Y355071D01*
X16064Y355028D01*
X16115Y354978D01*
X16178Y354943D01*
X16204Y354924D01*
X16226Y354917D01*
X16262Y354897D01*
X19751Y353452D01*
X23252Y349951D01*
X25147Y345376D01*
X25147Y340424D01*
X23252Y335849D01*
X19751Y332348D01*
X16262Y330903D01*
X16201Y330865D01*
X16136Y330836D01*
X16097Y330801D01*
X16053Y330774D01*
X16007Y330718D01*
X15955Y330670D01*
X15930Y330624D01*
X15896Y330584D01*
X15871Y330517D01*
X15836Y330454D01*
X15827Y330403D01*
X15808Y330355D01*
X15805Y330283D01*
X15792Y330212D01*
X15800Y330161D01*
X15798Y330109D01*
X15818Y330040D01*
X15828Y329969D01*
X15852Y329923D01*
X15866Y329873D01*
X15907Y329814D01*
X15940Y329750D01*
X15977Y329713D01*
X16007Y329671D01*
X16064Y329628D01*
X16115Y329578D01*
X16178Y329543D01*
X16204Y329524D01*
X16226Y329517D01*
X16262Y329497D01*
X19751Y328052D01*
X23252Y324551D01*
X25147Y319976D01*
X25147Y315024D01*
X23252Y310449D01*
X19751Y306948D01*
X16262Y305503D01*
X16201Y305465D01*
X16136Y305436D01*
X16098Y305401D01*
X16053Y305374D01*
X16007Y305318D01*
X15955Y305270D01*
X15930Y305224D01*
X15896Y305184D01*
X15871Y305117D01*
X15836Y305054D01*
X15827Y305003D01*
X15808Y304955D01*
X15805Y304883D01*
X15792Y304812D01*
X15800Y304761D01*
X15798Y304709D01*
X15818Y304640D01*
X15828Y304569D01*
X15852Y304523D01*
X15866Y304473D01*
X15907Y304414D01*
X15940Y304350D01*
X15977Y304313D01*
X16007Y304271D01*
X16064Y304228D01*
X16115Y304178D01*
X16178Y304143D01*
X16204Y304124D01*
X16226Y304117D01*
X16262Y304097D01*
X19751Y302652D01*
X23252Y299151D01*
X25147Y294576D01*
X25147Y289624D01*
X23252Y285049D01*
X19751Y281548D01*
X16262Y280103D01*
X16201Y280065D01*
X16136Y280036D01*
X16098Y280001D01*
X16053Y279974D01*
X16008Y279918D01*
X15955Y279870D01*
X15930Y279824D01*
X15896Y279784D01*
X15871Y279717D01*
X15836Y279654D01*
X15827Y279603D01*
X15808Y279555D01*
X15805Y279483D01*
X15792Y279412D01*
X15800Y279361D01*
X15798Y279309D01*
X15818Y279240D01*
X15828Y279169D01*
X15852Y279123D01*
X15866Y279073D01*
X15907Y279014D01*
X15940Y278950D01*
X15977Y278913D01*
X16007Y278871D01*
X16064Y278828D01*
X16115Y278778D01*
X16178Y278743D01*
X16204Y278724D01*
X16226Y278717D01*
X16262Y278697D01*
X19751Y277252D01*
X23252Y273751D01*
X25147Y269176D01*
X25147Y264224D01*
X23252Y259649D01*
X19751Y256148D01*
X16262Y254703D01*
X16201Y254665D01*
X16136Y254636D01*
X16098Y254601D01*
X16053Y254574D01*
X16008Y254518D01*
X15955Y254470D01*
X15930Y254424D01*
X15896Y254384D01*
X15871Y254317D01*
X15836Y254254D01*
X15827Y254203D01*
X15808Y254155D01*
X15805Y254083D01*
X15792Y254012D01*
X15800Y253961D01*
X15798Y253909D01*
X15818Y253840D01*
X15828Y253769D01*
X15852Y253723D01*
X15866Y253673D01*
X15907Y253614D01*
X15940Y253550D01*
X15977Y253513D01*
X16007Y253471D01*
X16064Y253428D01*
X16115Y253378D01*
X16178Y253343D01*
X16204Y253324D01*
X16226Y253317D01*
X16262Y253297D01*
X19751Y251852D01*
X23252Y248351D01*
X25147Y243776D01*
X25147Y238824D01*
X23252Y234249D01*
X19751Y230748D01*
X16262Y229303D01*
X16201Y229265D01*
X16136Y229236D01*
X16098Y229201D01*
X16053Y229174D01*
X16008Y229118D01*
X15955Y229070D01*
X15930Y229024D01*
X15896Y228984D01*
X15871Y228917D01*
X15836Y228854D01*
X15827Y228803D01*
X15808Y228755D01*
X15805Y228683D01*
X15792Y228612D01*
X15800Y228561D01*
X15798Y228509D01*
X15818Y228440D01*
X15828Y228369D01*
X15852Y228323D01*
X15866Y228273D01*
X15907Y228214D01*
X15940Y228150D01*
X15977Y228113D01*
X16007Y228071D01*
X16064Y228028D01*
X16115Y227978D01*
X16178Y227943D01*
X16204Y227924D01*
X16226Y227917D01*
X16262Y227897D01*
X19751Y226452D01*
X23252Y222951D01*
X25147Y218376D01*
X25147Y213424D01*
X23252Y208849D01*
X19751Y205348D01*
X16262Y203903D01*
X16201Y203865D01*
X16136Y203836D01*
X16098Y203801D01*
X16053Y203774D01*
X16008Y203718D01*
X15955Y203670D01*
X15930Y203624D01*
X15896Y203584D01*
X15871Y203517D01*
X15836Y203454D01*
X15827Y203403D01*
X15808Y203355D01*
X15805Y203283D01*
X15792Y203212D01*
X15800Y203161D01*
X15798Y203109D01*
X15818Y203040D01*
X15828Y202969D01*
X15852Y202923D01*
X15866Y202873D01*
X15907Y202814D01*
X15940Y202750D01*
X15977Y202713D01*
X16007Y202671D01*
X16064Y202628D01*
X16115Y202578D01*
X16178Y202543D01*
X16204Y202524D01*
X16226Y202517D01*
X16262Y202497D01*
X19751Y201052D01*
X23252Y197551D01*
X25147Y192976D01*
X25147Y188024D01*
X23252Y183449D01*
X19751Y179948D01*
X15452Y178168D01*
X15366Y178114D01*
X15277Y178066D01*
X15262Y178050D01*
X15243Y178038D01*
X15179Y177960D01*
X15110Y177886D01*
X15101Y177866D01*
X15087Y177849D01*
X15050Y177754D01*
X15009Y177662D01*
X15006Y177640D01*
X14998Y177619D01*
X14994Y177518D01*
X14984Y177417D01*
X14989Y177396D01*
X14988Y177373D01*
X15016Y177276D01*
X15039Y177177D01*
X15050Y177158D01*
X15057Y177137D01*
X15114Y177054D01*
X15167Y176968D01*
X15184Y176953D01*
X15197Y176935D01*
X15278Y176875D01*
X15356Y176810D01*
X15381Y176798D01*
X15394Y176788D01*
X15425Y176778D01*
X15509Y176741D01*
X17283Y176164D01*
X18957Y175311D01*
X20478Y174206D01*
X21806Y172878D01*
X22911Y171357D01*
X23764Y169683D01*
X24345Y167896D01*
X24546Y166623D01*
X13462Y166623D01*
X13442Y166620D01*
X13423Y166622D01*
X13321Y166600D01*
X13219Y166583D01*
X13202Y166574D01*
X13182Y166570D01*
X13093Y166517D01*
X13002Y166468D01*
X12988Y166454D01*
X12971Y166444D01*
X12904Y166365D01*
X12833Y166290D01*
X12824Y166272D01*
X12811Y166257D01*
X12773Y166161D01*
X12729Y166067D01*
X12727Y166047D01*
X12719Y166029D01*
X12701Y165862D01*
X12701Y165099D01*
X11938Y165099D01*
X11918Y165096D01*
X11899Y165098D01*
X11797Y165076D01*
X11695Y165059D01*
X11678Y165050D01*
X11658Y165046D01*
X11569Y164993D01*
X11478Y164944D01*
X11464Y164930D01*
X11447Y164920D01*
X11380Y164841D01*
X11309Y164766D01*
X11300Y164748D01*
X11287Y164733D01*
X11248Y164637D01*
X11205Y164543D01*
X11203Y164523D01*
X11195Y164505D01*
X11177Y164338D01*
X11177Y153254D01*
X11041Y153275D01*
X10985Y153275D01*
X10978Y153276D01*
X10953Y153276D01*
X10883Y153284D01*
X10839Y153274D01*
X10795Y153274D01*
X10720Y153248D01*
X10642Y153231D01*
X10604Y153209D01*
X10562Y153194D01*
X10499Y153146D01*
X10431Y153105D01*
X10402Y153072D01*
X10367Y153045D01*
X10323Y152979D01*
X10271Y152918D01*
X10255Y152877D01*
X10230Y152841D01*
X10209Y152764D01*
X10205Y152755D01*
X10189Y152719D01*
X10188Y152712D01*
X10179Y152690D01*
X10173Y152632D01*
X10165Y152603D01*
X10167Y152576D01*
X10161Y152523D01*
X10161Y12124D01*
X10162Y12113D01*
X10161Y12103D01*
X10182Y11992D01*
X10200Y11881D01*
X10205Y11872D01*
X10207Y11861D01*
X10263Y11763D01*
X10316Y11664D01*
X10323Y11656D01*
X10328Y11647D01*
X10412Y11572D01*
X10494Y11494D01*
X10504Y11490D01*
X10511Y11483D01*
X10614Y11438D01*
X10717Y11391D01*
X10728Y11390D01*
X10737Y11385D01*
X10903Y11363D01*
X60181Y10161D01*
X60188Y10162D01*
X60199Y10161D01*
X489078Y10161D01*
X489098Y10164D01*
G37*
%LPC*%
G36*
X408103Y40451D02*
X408103Y40451D01*
X404578Y41911D01*
X401881Y44608D01*
X400421Y48133D01*
X400421Y51947D01*
X401881Y55472D01*
X403911Y57502D01*
X403923Y57518D01*
X403938Y57530D01*
X403994Y57618D01*
X404055Y57701D01*
X404061Y57720D01*
X404071Y57737D01*
X404097Y57838D01*
X404127Y57937D01*
X404127Y57956D01*
X404131Y57976D01*
X404123Y58079D01*
X404121Y58182D01*
X404114Y58201D01*
X404112Y58221D01*
X404072Y58316D01*
X404036Y58413D01*
X404024Y58429D01*
X404016Y58447D01*
X403911Y58578D01*
X401821Y60668D01*
X401809Y60689D01*
X401804Y60693D01*
X401801Y60698D01*
X401712Y60772D01*
X401622Y60849D01*
X401617Y60851D01*
X401612Y60855D01*
X401504Y60897D01*
X401394Y60941D01*
X401387Y60942D01*
X401383Y60943D01*
X401365Y60944D01*
X401227Y60959D01*
X363655Y60959D01*
X337819Y86795D01*
X337819Y251580D01*
X337805Y251670D01*
X337797Y251761D01*
X337785Y251791D01*
X337780Y251823D01*
X337737Y251903D01*
X337701Y251987D01*
X337675Y252020D01*
X337664Y252040D01*
X337641Y252062D01*
X337596Y252118D01*
X336072Y253643D01*
X336014Y253684D01*
X335962Y253734D01*
X335915Y253756D01*
X335873Y253786D01*
X335804Y253807D01*
X335739Y253837D01*
X335687Y253843D01*
X335637Y253858D01*
X335566Y253857D01*
X335495Y253864D01*
X335444Y253853D01*
X335392Y253852D01*
X335324Y253827D01*
X335254Y253812D01*
X335209Y253785D01*
X335161Y253768D01*
X335105Y253723D01*
X335043Y253686D01*
X335009Y253646D01*
X334969Y253614D01*
X334930Y253554D01*
X334883Y253499D01*
X334864Y253451D01*
X334836Y253407D01*
X334818Y253338D01*
X334791Y253271D01*
X334783Y253200D01*
X334775Y253168D01*
X334777Y253145D01*
X334773Y253104D01*
X334773Y252080D01*
X333303Y248532D01*
X330588Y245817D01*
X327040Y244347D01*
X323200Y244347D01*
X319652Y245817D01*
X316937Y248532D01*
X315467Y252080D01*
X315467Y255920D01*
X316937Y259468D01*
X319652Y262183D01*
X323200Y263653D01*
X324224Y263653D01*
X324295Y263664D01*
X324367Y263666D01*
X324416Y263684D01*
X324467Y263692D01*
X324530Y263726D01*
X324598Y263751D01*
X324638Y263783D01*
X324684Y263808D01*
X324734Y263860D01*
X324790Y263904D01*
X324818Y263948D01*
X324854Y263986D01*
X324884Y264051D01*
X324923Y264111D01*
X324935Y264162D01*
X324957Y264209D01*
X324965Y264280D01*
X324983Y264350D01*
X324979Y264402D01*
X324984Y264453D01*
X324969Y264524D01*
X324964Y264595D01*
X324943Y264643D01*
X324932Y264694D01*
X324895Y264755D01*
X324867Y264821D01*
X324823Y264877D01*
X324806Y264905D01*
X324802Y264908D01*
X324802Y264909D01*
X324787Y264922D01*
X324763Y264952D01*
X315618Y274096D01*
X315545Y274149D01*
X315475Y274209D01*
X315445Y274221D01*
X315419Y274240D01*
X315332Y274267D01*
X315247Y274301D01*
X315206Y274305D01*
X315184Y274312D01*
X315151Y274311D01*
X315080Y274319D01*
X307556Y274319D01*
X307442Y274300D01*
X307325Y274283D01*
X307320Y274281D01*
X307313Y274280D01*
X307210Y274225D01*
X307106Y274172D01*
X307102Y274167D01*
X307096Y274164D01*
X307016Y274080D01*
X306934Y273996D01*
X306930Y273990D01*
X306927Y273986D01*
X306919Y273969D01*
X306912Y273957D01*
X304172Y271217D01*
X300624Y269747D01*
X283576Y269747D01*
X280028Y271217D01*
X277313Y273932D01*
X275843Y277480D01*
X275843Y281320D01*
X277313Y284868D01*
X280028Y287583D01*
X283576Y289053D01*
X300624Y289053D01*
X304172Y287583D01*
X306930Y284825D01*
X306974Y284751D01*
X306979Y284747D01*
X306982Y284742D01*
X307073Y284667D01*
X307161Y284591D01*
X307167Y284589D01*
X307172Y284585D01*
X307281Y284543D01*
X307389Y284499D01*
X307397Y284498D01*
X307401Y284497D01*
X307420Y284496D01*
X307556Y284481D01*
X319605Y284481D01*
X347981Y256105D01*
X347981Y91320D01*
X347995Y91230D01*
X348003Y91139D01*
X348015Y91109D01*
X348020Y91077D01*
X348063Y90996D01*
X348099Y90913D01*
X348125Y90880D01*
X348136Y90860D01*
X348159Y90838D01*
X348204Y90782D01*
X367642Y71344D01*
X367715Y71291D01*
X367785Y71231D01*
X367815Y71219D01*
X367841Y71200D01*
X367928Y71173D01*
X368013Y71139D01*
X368054Y71135D01*
X368076Y71128D01*
X368109Y71129D01*
X368180Y71121D01*
X401227Y71121D01*
X401342Y71140D01*
X401459Y71157D01*
X401464Y71160D01*
X401470Y71160D01*
X401572Y71215D01*
X401678Y71269D01*
X401682Y71273D01*
X401687Y71276D01*
X401765Y71357D01*
X401774Y71365D01*
X404270Y73861D01*
X404282Y73877D01*
X404298Y73890D01*
X404354Y73977D01*
X404414Y74061D01*
X404420Y74080D01*
X404431Y74096D01*
X404456Y74197D01*
X404486Y74296D01*
X404486Y74316D01*
X404491Y74335D01*
X404483Y74438D01*
X404480Y74542D01*
X404473Y74560D01*
X404472Y74580D01*
X404431Y74675D01*
X404396Y74773D01*
X404383Y74788D01*
X404375Y74807D01*
X404270Y74937D01*
X402957Y76251D01*
X401963Y77739D01*
X401278Y79391D01*
X401054Y80517D01*
X409248Y80517D01*
X409268Y80520D01*
X409287Y80518D01*
X409389Y80540D01*
X409491Y80557D01*
X409508Y80566D01*
X409528Y80570D01*
X409617Y80623D01*
X409708Y80672D01*
X409722Y80686D01*
X409739Y80696D01*
X409806Y80775D01*
X409877Y80850D01*
X409886Y80868D01*
X409899Y80883D01*
X409937Y80979D01*
X409981Y81073D01*
X409983Y81093D01*
X409991Y81111D01*
X410009Y81278D01*
X410009Y82802D01*
X410006Y82822D01*
X410008Y82841D01*
X409986Y82943D01*
X409969Y83045D01*
X409960Y83062D01*
X409956Y83082D01*
X409903Y83171D01*
X409854Y83262D01*
X409840Y83276D01*
X409830Y83293D01*
X409751Y83360D01*
X409676Y83431D01*
X409658Y83440D01*
X409643Y83453D01*
X409547Y83492D01*
X409453Y83535D01*
X409433Y83537D01*
X409415Y83545D01*
X409248Y83563D01*
X401054Y83563D01*
X401278Y84689D01*
X401823Y86003D01*
X401833Y86045D01*
X401849Y86081D01*
X401849Y86082D01*
X401852Y86089D01*
X401861Y86166D01*
X401879Y86242D01*
X401874Y86288D01*
X401879Y86333D01*
X401863Y86410D01*
X401856Y86487D01*
X401837Y86529D01*
X401827Y86574D01*
X401787Y86641D01*
X401756Y86712D01*
X401725Y86746D01*
X401701Y86785D01*
X401642Y86836D01*
X401589Y86893D01*
X401549Y86915D01*
X401514Y86945D01*
X401442Y86974D01*
X401374Y87011D01*
X401329Y87020D01*
X401286Y87037D01*
X401150Y87052D01*
X401132Y87055D01*
X401127Y87054D01*
X401119Y87055D01*
X362959Y87055D01*
X350519Y99495D01*
X350519Y276980D01*
X350505Y277070D01*
X350497Y277161D01*
X350485Y277191D01*
X350480Y277223D01*
X350437Y277304D01*
X350401Y277387D01*
X350375Y277420D01*
X350364Y277440D01*
X350341Y277462D01*
X350296Y277518D01*
X328318Y299496D01*
X328245Y299549D01*
X328175Y299609D01*
X328145Y299621D01*
X328119Y299640D01*
X328032Y299667D01*
X327947Y299701D01*
X327906Y299705D01*
X327884Y299712D01*
X327851Y299711D01*
X327780Y299719D01*
X307556Y299719D01*
X307442Y299700D01*
X307325Y299683D01*
X307320Y299681D01*
X307313Y299680D01*
X307210Y299625D01*
X307106Y299572D01*
X307102Y299567D01*
X307096Y299564D01*
X307016Y299480D01*
X306934Y299396D01*
X306930Y299390D01*
X306927Y299386D01*
X306919Y299369D01*
X306912Y299357D01*
X304172Y296617D01*
X300624Y295147D01*
X283576Y295147D01*
X280028Y296617D01*
X277313Y299332D01*
X275843Y302880D01*
X275843Y306720D01*
X277313Y310268D01*
X280028Y312983D01*
X283576Y314453D01*
X300624Y314453D01*
X304172Y312983D01*
X306930Y310225D01*
X306974Y310151D01*
X306979Y310147D01*
X306982Y310142D01*
X307073Y310067D01*
X307161Y309991D01*
X307167Y309989D01*
X307172Y309985D01*
X307281Y309943D01*
X307389Y309899D01*
X307397Y309898D01*
X307401Y309897D01*
X307420Y309896D01*
X307556Y309881D01*
X332305Y309881D01*
X360681Y281505D01*
X360681Y104020D01*
X360695Y103930D01*
X360703Y103839D01*
X360715Y103809D01*
X360720Y103777D01*
X360763Y103696D01*
X360799Y103613D01*
X360825Y103580D01*
X360836Y103560D01*
X360859Y103538D01*
X360904Y103482D01*
X366946Y97440D01*
X367019Y97387D01*
X367089Y97327D01*
X367119Y97315D01*
X367145Y97296D01*
X367232Y97269D01*
X367317Y97235D01*
X367358Y97231D01*
X367380Y97224D01*
X367413Y97225D01*
X367484Y97217D01*
X420296Y97217D01*
X437187Y80326D01*
X437187Y67754D01*
X431309Y61876D01*
X431241Y61782D01*
X431171Y61687D01*
X431169Y61681D01*
X431165Y61676D01*
X431131Y61565D01*
X431095Y61453D01*
X431095Y61447D01*
X431093Y61441D01*
X431096Y61324D01*
X431097Y61207D01*
X431099Y61200D01*
X431099Y61195D01*
X431106Y61177D01*
X431144Y61046D01*
X431599Y59947D01*
X431599Y56133D01*
X430139Y52608D01*
X427442Y49911D01*
X423917Y48451D01*
X420239Y48451D01*
X420125Y48432D01*
X420008Y48415D01*
X420003Y48413D01*
X419997Y48412D01*
X419894Y48357D01*
X419789Y48304D01*
X419785Y48299D01*
X419779Y48296D01*
X419699Y48212D01*
X419617Y48128D01*
X419613Y48122D01*
X419610Y48118D01*
X419602Y48101D01*
X419536Y47981D01*
X418139Y44608D01*
X415442Y41911D01*
X411917Y40451D01*
X408103Y40451D01*
G37*
%LPD*%
%LPC*%
G36*
X248732Y89407D02*
X248732Y89407D01*
X244383Y93756D01*
X244309Y93809D01*
X244239Y93869D01*
X244209Y93881D01*
X244183Y93900D01*
X244096Y93927D01*
X244011Y93961D01*
X243970Y93965D01*
X243948Y93972D01*
X243916Y93971D01*
X243844Y93979D01*
X216335Y93979D01*
X194055Y116259D01*
X194055Y163141D01*
X197254Y166340D01*
X201642Y170727D01*
X201653Y170743D01*
X201669Y170755D01*
X201725Y170843D01*
X201785Y170927D01*
X201791Y170946D01*
X201802Y170962D01*
X201827Y171063D01*
X201858Y171162D01*
X201857Y171182D01*
X201862Y171201D01*
X201854Y171304D01*
X201851Y171408D01*
X201844Y171426D01*
X201843Y171446D01*
X201802Y171541D01*
X201767Y171639D01*
X201754Y171654D01*
X201746Y171672D01*
X201642Y171803D01*
X201113Y172332D01*
X199643Y175880D01*
X199643Y179720D01*
X201113Y183268D01*
X203828Y185983D01*
X207376Y187453D01*
X224424Y187453D01*
X227972Y185983D01*
X230687Y183268D01*
X232157Y179720D01*
X232157Y175880D01*
X230687Y172332D01*
X227972Y169617D01*
X224424Y168147D01*
X213748Y168147D01*
X213658Y168133D01*
X213567Y168125D01*
X213537Y168113D01*
X213505Y168108D01*
X213424Y168065D01*
X213340Y168029D01*
X213308Y168003D01*
X213288Y167992D01*
X213265Y167969D01*
X213210Y167924D01*
X208637Y163352D01*
X208596Y163294D01*
X208546Y163242D01*
X208524Y163195D01*
X208494Y163153D01*
X208473Y163084D01*
X208443Y163019D01*
X208437Y162967D01*
X208422Y162917D01*
X208423Y162846D01*
X208416Y162775D01*
X208427Y162724D01*
X208428Y162672D01*
X208453Y162604D01*
X208468Y162534D01*
X208494Y162490D01*
X208512Y162441D01*
X208557Y162385D01*
X208594Y162323D01*
X208634Y162289D01*
X208666Y162249D01*
X208726Y162210D01*
X208781Y162163D01*
X208829Y162144D01*
X208873Y162116D01*
X208942Y162098D01*
X209009Y162071D01*
X209080Y162063D01*
X209112Y162055D01*
X209135Y162057D01*
X209176Y162053D01*
X224424Y162053D01*
X227972Y160583D01*
X230687Y157868D01*
X232157Y154320D01*
X232157Y150480D01*
X230687Y146932D01*
X227972Y144217D01*
X224424Y142747D01*
X207376Y142747D01*
X205269Y143620D01*
X205225Y143630D01*
X205183Y143650D01*
X205106Y143658D01*
X205030Y143676D01*
X204984Y143672D01*
X204939Y143677D01*
X204862Y143660D01*
X204785Y143653D01*
X204743Y143634D01*
X204698Y143625D01*
X204631Y143585D01*
X204560Y143553D01*
X204526Y143522D01*
X204487Y143498D01*
X204436Y143439D01*
X204379Y143387D01*
X204357Y143346D01*
X204327Y143311D01*
X204298Y143239D01*
X204261Y143171D01*
X204252Y143126D01*
X204235Y143083D01*
X204220Y142947D01*
X204217Y142929D01*
X204218Y142924D01*
X204217Y142917D01*
X204217Y136483D01*
X204224Y136438D01*
X204222Y136392D01*
X204244Y136317D01*
X204256Y136241D01*
X204278Y136200D01*
X204291Y136156D01*
X204335Y136092D01*
X204372Y136023D01*
X204405Y135992D01*
X204431Y135954D01*
X204493Y135908D01*
X204550Y135854D01*
X204592Y135835D01*
X204628Y135807D01*
X204702Y135783D01*
X204773Y135750D01*
X204819Y135745D01*
X204862Y135731D01*
X204940Y135732D01*
X205017Y135723D01*
X205062Y135733D01*
X205108Y135733D01*
X205240Y135771D01*
X205258Y135775D01*
X205262Y135778D01*
X205269Y135780D01*
X207376Y136653D01*
X224424Y136653D01*
X227972Y135183D01*
X230687Y132468D01*
X232157Y128920D01*
X232157Y125080D01*
X230687Y121532D01*
X230158Y121003D01*
X230147Y120987D01*
X230131Y120975D01*
X230075Y120888D01*
X230015Y120804D01*
X230009Y120785D01*
X229998Y120768D01*
X229973Y120668D01*
X229942Y120569D01*
X229943Y120549D01*
X229938Y120529D01*
X229946Y120426D01*
X229949Y120323D01*
X229956Y120304D01*
X229957Y120284D01*
X229998Y120189D01*
X230033Y120092D01*
X230046Y120076D01*
X230054Y120058D01*
X230158Y119927D01*
X230482Y119604D01*
X230556Y119551D01*
X230625Y119491D01*
X230655Y119479D01*
X230681Y119460D01*
X230768Y119433D01*
X230853Y119399D01*
X230894Y119395D01*
X230916Y119388D01*
X230949Y119389D01*
X231020Y119381D01*
X277626Y119381D01*
X277697Y119392D01*
X277769Y119394D01*
X277818Y119412D01*
X277869Y119420D01*
X277933Y119454D01*
X278000Y119479D01*
X278041Y119511D01*
X278087Y119536D01*
X278136Y119588D01*
X278192Y119632D01*
X278220Y119676D01*
X278256Y119714D01*
X278286Y119779D01*
X278325Y119839D01*
X278338Y119890D01*
X278360Y119937D01*
X278367Y120008D01*
X278385Y120078D01*
X278381Y120130D01*
X278387Y120181D01*
X278371Y120252D01*
X278366Y120323D01*
X278346Y120371D01*
X278334Y120422D01*
X278298Y120483D01*
X278270Y120549D01*
X278225Y120605D01*
X278208Y120633D01*
X278190Y120648D01*
X278165Y120680D01*
X277313Y121532D01*
X275843Y125080D01*
X275843Y128920D01*
X277313Y132468D01*
X280028Y135183D01*
X283576Y136653D01*
X300624Y136653D01*
X304172Y135183D01*
X306887Y132468D01*
X308357Y128920D01*
X308357Y125080D01*
X306887Y121532D01*
X306035Y120680D01*
X305993Y120622D01*
X305944Y120570D01*
X305922Y120523D01*
X305892Y120481D01*
X305871Y120412D01*
X305840Y120347D01*
X305835Y120295D01*
X305819Y120245D01*
X305821Y120174D01*
X305813Y120103D01*
X305824Y120052D01*
X305826Y120000D01*
X305850Y119932D01*
X305866Y119862D01*
X305892Y119817D01*
X305910Y119769D01*
X305955Y119713D01*
X305992Y119651D01*
X306031Y119617D01*
X306064Y119577D01*
X306124Y119538D01*
X306179Y119491D01*
X306227Y119472D01*
X306271Y119444D01*
X306340Y119426D01*
X306407Y119399D01*
X306478Y119391D01*
X306509Y119383D01*
X306533Y119385D01*
X306574Y119381D01*
X312605Y119381D01*
X312695Y119395D01*
X312786Y119403D01*
X312816Y119415D01*
X312848Y119420D01*
X312929Y119463D01*
X313013Y119499D01*
X313045Y119525D01*
X313065Y119536D01*
X313088Y119559D01*
X313144Y119604D01*
X313631Y120091D01*
X316141Y121131D01*
X318859Y121131D01*
X321369Y120091D01*
X323291Y118169D01*
X324331Y115659D01*
X324331Y112941D01*
X323291Y110431D01*
X321369Y108509D01*
X318859Y107469D01*
X316141Y107469D01*
X313631Y108509D01*
X313144Y108996D01*
X313070Y109049D01*
X313000Y109109D01*
X312970Y109121D01*
X312944Y109140D01*
X312857Y109167D01*
X312772Y109201D01*
X312731Y109205D01*
X312709Y109212D01*
X312677Y109211D01*
X312605Y109219D01*
X258060Y109219D01*
X257989Y109208D01*
X257917Y109206D01*
X257868Y109188D01*
X257817Y109180D01*
X257753Y109146D01*
X257686Y109121D01*
X257645Y109089D01*
X257599Y109064D01*
X257550Y109012D01*
X257494Y108968D01*
X257466Y108924D01*
X257430Y108886D01*
X257400Y108821D01*
X257361Y108761D01*
X257348Y108710D01*
X257326Y108663D01*
X257319Y108592D01*
X257301Y108522D01*
X257305Y108470D01*
X257299Y108419D01*
X257315Y108348D01*
X257320Y108277D01*
X257340Y108229D01*
X257352Y108178D01*
X257388Y108117D01*
X257416Y108051D01*
X257461Y107995D01*
X257478Y107967D01*
X257496Y107952D01*
X257521Y107920D01*
X262383Y103058D01*
X262383Y95062D01*
X256728Y89407D01*
X248732Y89407D01*
G37*
%LPD*%
%LPC*%
G36*
X207376Y371347D02*
X207376Y371347D01*
X203828Y372817D01*
X201113Y375532D01*
X199643Y379080D01*
X199643Y382920D01*
X201113Y386468D01*
X201642Y386997D01*
X201653Y387013D01*
X201669Y387025D01*
X201725Y387113D01*
X201785Y387196D01*
X201791Y387215D01*
X201802Y387232D01*
X201827Y387333D01*
X201857Y387431D01*
X201857Y387451D01*
X201862Y387471D01*
X201854Y387574D01*
X201851Y387677D01*
X201844Y387696D01*
X201843Y387716D01*
X201802Y387811D01*
X201767Y387908D01*
X201754Y387924D01*
X201746Y387942D01*
X201642Y388073D01*
X175918Y413796D01*
X175845Y413849D01*
X175775Y413909D01*
X175745Y413921D01*
X175719Y413940D01*
X175632Y413967D01*
X175547Y414001D01*
X175506Y414005D01*
X175484Y414012D01*
X175451Y414011D01*
X175380Y414019D01*
X131895Y414019D01*
X131805Y414005D01*
X131714Y413997D01*
X131684Y413985D01*
X131652Y413980D01*
X131571Y413937D01*
X131487Y413901D01*
X131455Y413875D01*
X131435Y413864D01*
X131412Y413841D01*
X131356Y413796D01*
X130869Y413309D01*
X128359Y412269D01*
X125641Y412269D01*
X123131Y413309D01*
X121209Y415231D01*
X120169Y417741D01*
X120169Y420459D01*
X121209Y422969D01*
X123131Y424891D01*
X125641Y425931D01*
X128359Y425931D01*
X130869Y424891D01*
X131356Y424404D01*
X131430Y424351D01*
X131500Y424291D01*
X131530Y424279D01*
X131556Y424260D01*
X131643Y424233D01*
X131728Y424199D01*
X131769Y424195D01*
X131791Y424188D01*
X131823Y424189D01*
X131895Y424181D01*
X179905Y424181D01*
X198344Y405741D01*
X198402Y405700D01*
X198454Y405650D01*
X198501Y405628D01*
X198543Y405598D01*
X198612Y405577D01*
X198677Y405547D01*
X198729Y405541D01*
X198779Y405526D01*
X198850Y405527D01*
X198921Y405520D01*
X198972Y405531D01*
X199024Y405532D01*
X199092Y405557D01*
X199162Y405572D01*
X199207Y405599D01*
X199255Y405616D01*
X199311Y405661D01*
X199373Y405698D01*
X199407Y405738D01*
X199447Y405770D01*
X199486Y405830D01*
X199533Y405885D01*
X199552Y405933D01*
X199580Y405977D01*
X199598Y406046D01*
X199625Y406113D01*
X199633Y406184D01*
X199641Y406216D01*
X199639Y406239D01*
X199643Y406280D01*
X199643Y408320D01*
X201113Y411868D01*
X203828Y414583D01*
X207376Y416053D01*
X224424Y416053D01*
X227972Y414583D01*
X230687Y411868D01*
X232157Y408320D01*
X232157Y404480D01*
X230687Y400932D01*
X227972Y398217D01*
X224424Y396747D01*
X209176Y396747D01*
X209105Y396736D01*
X209033Y396734D01*
X208984Y396716D01*
X208933Y396708D01*
X208870Y396674D01*
X208802Y396649D01*
X208762Y396617D01*
X208716Y396592D01*
X208666Y396540D01*
X208610Y396496D01*
X208582Y396452D01*
X208546Y396414D01*
X208516Y396349D01*
X208477Y396289D01*
X208465Y396238D01*
X208443Y396191D01*
X208435Y396120D01*
X208417Y396050D01*
X208421Y395998D01*
X208416Y395947D01*
X208431Y395876D01*
X208436Y395805D01*
X208457Y395757D01*
X208468Y395706D01*
X208505Y395645D01*
X208533Y395579D01*
X208577Y395523D01*
X208594Y395495D01*
X208612Y395480D01*
X208637Y395448D01*
X213210Y390876D01*
X213284Y390823D01*
X213353Y390763D01*
X213383Y390751D01*
X213409Y390732D01*
X213496Y390705D01*
X213581Y390671D01*
X213622Y390667D01*
X213644Y390660D01*
X213677Y390661D01*
X213748Y390653D01*
X224424Y390653D01*
X227972Y389183D01*
X230687Y386468D01*
X232157Y382920D01*
X232157Y379080D01*
X230687Y375532D01*
X227972Y372817D01*
X224424Y371347D01*
X207376Y371347D01*
G37*
%LPD*%
%LPC*%
G36*
X305874Y13541D02*
X305874Y13541D01*
X301982Y15153D01*
X299003Y18132D01*
X297391Y22024D01*
X297391Y26236D01*
X299003Y30128D01*
X301982Y33107D01*
X305874Y34719D01*
X310086Y34719D01*
X313978Y33107D01*
X316957Y30128D01*
X317818Y28049D01*
X317856Y27988D01*
X317885Y27922D01*
X317920Y27884D01*
X317948Y27840D01*
X318003Y27794D01*
X318051Y27741D01*
X318097Y27716D01*
X318137Y27683D01*
X318204Y27657D01*
X318267Y27623D01*
X318318Y27613D01*
X318367Y27595D01*
X318438Y27592D01*
X318509Y27579D01*
X318560Y27587D01*
X318612Y27584D01*
X318681Y27604D01*
X318752Y27615D01*
X318799Y27638D01*
X318849Y27653D01*
X318907Y27694D01*
X318971Y27726D01*
X319008Y27764D01*
X319051Y27793D01*
X319093Y27851D01*
X319144Y27902D01*
X319178Y27965D01*
X319197Y27991D01*
X319205Y28013D01*
X319225Y28049D01*
X319851Y29562D01*
X322548Y32259D01*
X326073Y33719D01*
X329887Y33719D01*
X333412Y32259D01*
X336109Y29562D01*
X337277Y26742D01*
X337315Y26681D01*
X337344Y26616D01*
X337379Y26578D01*
X337406Y26533D01*
X337462Y26488D01*
X337510Y26435D01*
X337556Y26410D01*
X337596Y26376D01*
X337663Y26351D01*
X337726Y26316D01*
X337777Y26307D01*
X337825Y26288D01*
X337897Y26285D01*
X337968Y26273D01*
X338019Y26280D01*
X338071Y26278D01*
X338140Y26298D01*
X338211Y26308D01*
X338257Y26332D01*
X338307Y26346D01*
X338366Y26387D01*
X338430Y26420D01*
X338467Y26457D01*
X338509Y26487D01*
X338552Y26544D01*
X338602Y26595D01*
X338637Y26658D01*
X338656Y26684D01*
X338663Y26706D01*
X338683Y26742D01*
X339851Y29562D01*
X342548Y32259D01*
X346073Y33719D01*
X349887Y33719D01*
X353412Y32259D01*
X356109Y29562D01*
X357277Y26742D01*
X357315Y26681D01*
X357344Y26616D01*
X357379Y26578D01*
X357406Y26533D01*
X357462Y26488D01*
X357510Y26435D01*
X357556Y26410D01*
X357596Y26376D01*
X357663Y26351D01*
X357726Y26316D01*
X357777Y26307D01*
X357825Y26288D01*
X357897Y26285D01*
X357968Y26273D01*
X358019Y26280D01*
X358071Y26278D01*
X358140Y26298D01*
X358211Y26308D01*
X358257Y26332D01*
X358307Y26346D01*
X358366Y26387D01*
X358430Y26420D01*
X358467Y26457D01*
X358509Y26487D01*
X358552Y26544D01*
X358602Y26595D01*
X358637Y26658D01*
X358656Y26684D01*
X358663Y26706D01*
X358683Y26742D01*
X359851Y29562D01*
X362548Y32259D01*
X366073Y33719D01*
X369887Y33719D01*
X373412Y32259D01*
X376109Y29562D01*
X376735Y28049D01*
X376773Y27988D01*
X376802Y27922D01*
X376838Y27884D01*
X376865Y27840D01*
X376920Y27794D01*
X376969Y27741D01*
X377014Y27716D01*
X377055Y27683D01*
X377121Y27657D01*
X377184Y27623D01*
X377236Y27614D01*
X377284Y27595D01*
X377356Y27592D01*
X377426Y27579D01*
X377478Y27587D01*
X377530Y27584D01*
X377599Y27604D01*
X377670Y27615D01*
X377716Y27638D01*
X377766Y27653D01*
X377825Y27694D01*
X377889Y27726D01*
X377925Y27764D01*
X377968Y27793D01*
X378011Y27851D01*
X378061Y27902D01*
X378096Y27965D01*
X378115Y27991D01*
X378122Y28013D01*
X378142Y28049D01*
X379003Y30128D01*
X381982Y33107D01*
X385874Y34719D01*
X390086Y34719D01*
X393978Y33107D01*
X396957Y30128D01*
X398569Y26236D01*
X398569Y22024D01*
X396957Y18132D01*
X393978Y15153D01*
X390086Y13541D01*
X385874Y13541D01*
X381982Y15153D01*
X379003Y18132D01*
X378142Y20211D01*
X378104Y20272D01*
X378075Y20338D01*
X378040Y20376D01*
X378012Y20420D01*
X377957Y20466D01*
X377909Y20519D01*
X377863Y20544D01*
X377823Y20577D01*
X377756Y20603D01*
X377693Y20637D01*
X377642Y20647D01*
X377593Y20665D01*
X377522Y20668D01*
X377451Y20681D01*
X377400Y20673D01*
X377348Y20676D01*
X377279Y20656D01*
X377208Y20645D01*
X377161Y20622D01*
X377111Y20607D01*
X377053Y20566D01*
X376989Y20534D01*
X376952Y20496D01*
X376909Y20467D01*
X376867Y20409D01*
X376816Y20358D01*
X376782Y20295D01*
X376763Y20269D01*
X376755Y20247D01*
X376735Y20211D01*
X376109Y18698D01*
X373412Y16001D01*
X369887Y14541D01*
X366073Y14541D01*
X362548Y16001D01*
X359851Y18698D01*
X358683Y21518D01*
X358646Y21579D01*
X358616Y21644D01*
X358581Y21682D01*
X358554Y21727D01*
X358499Y21772D01*
X358450Y21825D01*
X358404Y21850D01*
X358364Y21884D01*
X358297Y21909D01*
X358234Y21944D01*
X358183Y21953D01*
X358135Y21972D01*
X358063Y21975D01*
X357992Y21987D01*
X357941Y21980D01*
X357889Y21982D01*
X357820Y21962D01*
X357749Y21952D01*
X357703Y21928D01*
X357653Y21914D01*
X357594Y21873D01*
X357530Y21840D01*
X357493Y21803D01*
X357451Y21773D01*
X357408Y21716D01*
X357358Y21665D01*
X357323Y21602D01*
X357304Y21576D01*
X357297Y21554D01*
X357277Y21518D01*
X356109Y18698D01*
X353412Y16001D01*
X349887Y14541D01*
X346073Y14541D01*
X342548Y16001D01*
X339851Y18698D01*
X338683Y21518D01*
X338646Y21579D01*
X338616Y21644D01*
X338581Y21682D01*
X338554Y21727D01*
X338499Y21772D01*
X338450Y21825D01*
X338404Y21850D01*
X338364Y21884D01*
X338297Y21909D01*
X338234Y21944D01*
X338183Y21953D01*
X338135Y21972D01*
X338063Y21975D01*
X337992Y21987D01*
X337941Y21980D01*
X337889Y21982D01*
X337820Y21962D01*
X337749Y21952D01*
X337703Y21928D01*
X337653Y21914D01*
X337594Y21873D01*
X337530Y21840D01*
X337493Y21803D01*
X337451Y21773D01*
X337408Y21716D01*
X337358Y21665D01*
X337323Y21602D01*
X337304Y21576D01*
X337297Y21554D01*
X337277Y21518D01*
X336109Y18698D01*
X333412Y16001D01*
X329887Y14541D01*
X326073Y14541D01*
X322548Y16001D01*
X319851Y18698D01*
X319225Y20211D01*
X319187Y20272D01*
X319158Y20338D01*
X319122Y20376D01*
X319095Y20420D01*
X319040Y20466D01*
X318991Y20519D01*
X318946Y20544D01*
X318905Y20577D01*
X318839Y20603D01*
X318776Y20637D01*
X318724Y20646D01*
X318676Y20665D01*
X318604Y20668D01*
X318534Y20681D01*
X318482Y20673D01*
X318430Y20676D01*
X318361Y20656D01*
X318290Y20645D01*
X318244Y20622D01*
X318194Y20607D01*
X318135Y20566D01*
X318071Y20534D01*
X318035Y20496D01*
X317992Y20467D01*
X317949Y20409D01*
X317899Y20358D01*
X317864Y20295D01*
X317845Y20269D01*
X317838Y20247D01*
X317818Y20211D01*
X316957Y18132D01*
X313978Y15153D01*
X310086Y13541D01*
X305874Y13541D01*
G37*
%LPD*%
%LPC*%
G36*
X179134Y202183D02*
X179134Y202183D01*
X174559Y204078D01*
X171058Y207579D01*
X169163Y212154D01*
X169163Y217106D01*
X171058Y221681D01*
X174559Y225182D01*
X178858Y226962D01*
X178944Y227016D01*
X179033Y227064D01*
X179048Y227080D01*
X179067Y227092D01*
X179131Y227170D01*
X179200Y227244D01*
X179209Y227264D01*
X179223Y227281D01*
X179260Y227376D01*
X179301Y227468D01*
X179304Y227490D01*
X179312Y227511D01*
X179316Y227612D01*
X179326Y227713D01*
X179321Y227734D01*
X179322Y227757D01*
X179294Y227854D01*
X179271Y227953D01*
X179260Y227972D01*
X179253Y227993D01*
X179196Y228076D01*
X179143Y228162D01*
X179126Y228177D01*
X179113Y228195D01*
X179032Y228255D01*
X178954Y228320D01*
X178929Y228332D01*
X178916Y228342D01*
X178885Y228352D01*
X178801Y228389D01*
X177027Y228966D01*
X175353Y229819D01*
X173832Y230924D01*
X172504Y232252D01*
X171399Y233773D01*
X170546Y235447D01*
X169965Y237234D01*
X169764Y238507D01*
X180848Y238507D01*
X180868Y238510D01*
X180887Y238508D01*
X180989Y238530D01*
X181091Y238547D01*
X181108Y238556D01*
X181128Y238560D01*
X181217Y238613D01*
X181308Y238662D01*
X181322Y238676D01*
X181339Y238686D01*
X181406Y238765D01*
X181477Y238840D01*
X181486Y238858D01*
X181499Y238873D01*
X181537Y238969D01*
X181581Y239063D01*
X181583Y239083D01*
X181591Y239101D01*
X181609Y239268D01*
X181609Y240792D01*
X181606Y240812D01*
X181608Y240831D01*
X181586Y240933D01*
X181569Y241035D01*
X181560Y241052D01*
X181556Y241072D01*
X181503Y241161D01*
X181454Y241252D01*
X181440Y241266D01*
X181430Y241283D01*
X181351Y241350D01*
X181276Y241421D01*
X181258Y241430D01*
X181243Y241443D01*
X181147Y241482D01*
X181053Y241525D01*
X181033Y241527D01*
X181015Y241535D01*
X180848Y241553D01*
X169764Y241553D01*
X169965Y242826D01*
X170546Y244613D01*
X171399Y246287D01*
X172504Y247808D01*
X173832Y249136D01*
X175353Y250241D01*
X177027Y251094D01*
X178801Y251671D01*
X178891Y251717D01*
X178984Y251758D01*
X179000Y251773D01*
X179020Y251783D01*
X179090Y251856D01*
X179165Y251925D01*
X179176Y251944D01*
X179191Y251960D01*
X179235Y252051D01*
X179284Y252140D01*
X179288Y252162D01*
X179297Y252182D01*
X179309Y252282D01*
X179327Y252382D01*
X179324Y252404D01*
X179327Y252426D01*
X179306Y252525D01*
X179292Y252625D01*
X179282Y252645D01*
X179277Y252667D01*
X179226Y252754D01*
X179180Y252845D01*
X179164Y252860D01*
X179153Y252879D01*
X179077Y252946D01*
X179005Y253017D01*
X178980Y253030D01*
X178968Y253041D01*
X178938Y253054D01*
X178858Y253098D01*
X174559Y254878D01*
X171058Y258379D01*
X169163Y262954D01*
X169163Y267906D01*
X171058Y272481D01*
X174559Y275982D01*
X179134Y277877D01*
X184086Y277877D01*
X188661Y275982D01*
X192162Y272481D01*
X194057Y267906D01*
X194057Y262954D01*
X192162Y258379D01*
X188661Y254878D01*
X184362Y253098D01*
X184276Y253044D01*
X184187Y252996D01*
X184172Y252980D01*
X184153Y252968D01*
X184089Y252890D01*
X184020Y252816D01*
X184011Y252796D01*
X183997Y252779D01*
X183960Y252684D01*
X183919Y252592D01*
X183916Y252570D01*
X183908Y252549D01*
X183904Y252448D01*
X183894Y252347D01*
X183899Y252326D01*
X183898Y252303D01*
X183926Y252206D01*
X183949Y252107D01*
X183960Y252088D01*
X183967Y252067D01*
X184024Y251984D01*
X184077Y251898D01*
X184094Y251883D01*
X184107Y251865D01*
X184188Y251805D01*
X184266Y251740D01*
X184291Y251728D01*
X184304Y251718D01*
X184335Y251708D01*
X184419Y251671D01*
X186193Y251094D01*
X187867Y250241D01*
X189388Y249136D01*
X190716Y247808D01*
X191821Y246287D01*
X192674Y244613D01*
X193255Y242826D01*
X193456Y241553D01*
X182372Y241553D01*
X182352Y241550D01*
X182333Y241552D01*
X182231Y241530D01*
X182129Y241513D01*
X182112Y241504D01*
X182092Y241500D01*
X182003Y241447D01*
X181912Y241398D01*
X181898Y241384D01*
X181881Y241374D01*
X181814Y241295D01*
X181743Y241220D01*
X181734Y241202D01*
X181721Y241187D01*
X181683Y241091D01*
X181639Y240997D01*
X181637Y240977D01*
X181629Y240959D01*
X181611Y240792D01*
X181611Y239268D01*
X181612Y239260D01*
X181612Y239258D01*
X181614Y239248D01*
X181612Y239229D01*
X181634Y239127D01*
X181651Y239025D01*
X181660Y239008D01*
X181664Y238988D01*
X181717Y238899D01*
X181766Y238808D01*
X181780Y238794D01*
X181790Y238777D01*
X181869Y238710D01*
X181944Y238639D01*
X181962Y238630D01*
X181977Y238617D01*
X182073Y238578D01*
X182167Y238535D01*
X182187Y238533D01*
X182205Y238525D01*
X182372Y238507D01*
X193456Y238507D01*
X193255Y237234D01*
X192674Y235447D01*
X191821Y233773D01*
X190716Y232252D01*
X189388Y230924D01*
X187867Y229819D01*
X186193Y228966D01*
X184419Y228389D01*
X184329Y228343D01*
X184236Y228302D01*
X184220Y228287D01*
X184200Y228277D01*
X184130Y228204D01*
X184055Y228135D01*
X184044Y228116D01*
X184029Y228100D01*
X183985Y228009D01*
X183936Y227920D01*
X183932Y227898D01*
X183923Y227878D01*
X183911Y227778D01*
X183893Y227678D01*
X183896Y227656D01*
X183893Y227634D01*
X183914Y227535D01*
X183928Y227435D01*
X183938Y227415D01*
X183943Y227393D01*
X183994Y227306D01*
X184040Y227215D01*
X184056Y227200D01*
X184067Y227181D01*
X184143Y227114D01*
X184215Y227043D01*
X184240Y227030D01*
X184252Y227019D01*
X184282Y227006D01*
X184362Y226962D01*
X188661Y225182D01*
X192162Y221681D01*
X194057Y217106D01*
X194057Y212154D01*
X192162Y207579D01*
X188661Y204078D01*
X184086Y202183D01*
X179134Y202183D01*
G37*
%LPD*%
%LPC*%
G36*
X457569Y12241D02*
X457569Y12241D01*
X451211Y14875D01*
X446345Y19741D01*
X443711Y26099D01*
X443711Y32981D01*
X446345Y39339D01*
X451211Y44205D01*
X457569Y46839D01*
X464451Y46839D01*
X470809Y44205D01*
X475675Y39339D01*
X478309Y32981D01*
X478309Y26099D01*
X475675Y19741D01*
X470809Y14875D01*
X464451Y12241D01*
X457569Y12241D01*
G37*
%LPD*%
%LPC*%
G36*
X457569Y85241D02*
X457569Y85241D01*
X451211Y87875D01*
X446345Y92741D01*
X443711Y99099D01*
X443711Y105981D01*
X446345Y112339D01*
X451211Y117205D01*
X457569Y119839D01*
X464451Y119839D01*
X470809Y117205D01*
X475675Y112339D01*
X478309Y105981D01*
X478309Y99099D01*
X475675Y92741D01*
X470809Y87875D01*
X464451Y85241D01*
X457569Y85241D01*
G37*
%LPD*%
%LPC*%
G36*
X283576Y193547D02*
X283576Y193547D01*
X280028Y195017D01*
X277313Y197732D01*
X275843Y201280D01*
X275843Y205120D01*
X277313Y208668D01*
X280028Y211383D01*
X283576Y212853D01*
X300624Y212853D01*
X304172Y211383D01*
X306887Y208668D01*
X308357Y205120D01*
X308357Y201280D01*
X306887Y197732D01*
X304172Y195017D01*
X300624Y193547D01*
X283576Y193547D01*
G37*
%LPD*%
%LPC*%
G36*
X283576Y371347D02*
X283576Y371347D01*
X280028Y372817D01*
X277313Y375532D01*
X275843Y379080D01*
X275843Y382920D01*
X277313Y386468D01*
X280028Y389183D01*
X283576Y390653D01*
X300624Y390653D01*
X304172Y389183D01*
X306887Y386468D01*
X308357Y382920D01*
X308357Y379080D01*
X306887Y375532D01*
X304172Y372817D01*
X300624Y371347D01*
X283576Y371347D01*
G37*
%LPD*%
%LPC*%
G36*
X283576Y447547D02*
X283576Y447547D01*
X280028Y449017D01*
X277313Y451732D01*
X275843Y455280D01*
X275843Y459120D01*
X277313Y462668D01*
X280028Y465383D01*
X283576Y466853D01*
X300624Y466853D01*
X304172Y465383D01*
X306887Y462668D01*
X308357Y459120D01*
X308357Y455280D01*
X306887Y451732D01*
X304172Y449017D01*
X300624Y447547D01*
X283576Y447547D01*
G37*
%LPD*%
%LPC*%
G36*
X207376Y447547D02*
X207376Y447547D01*
X203828Y449017D01*
X201113Y451732D01*
X199643Y455280D01*
X199643Y459120D01*
X201113Y462668D01*
X203828Y465383D01*
X207376Y466853D01*
X224424Y466853D01*
X227972Y465383D01*
X230687Y462668D01*
X232157Y459120D01*
X232157Y455280D01*
X230687Y451732D01*
X227972Y449017D01*
X224424Y447547D01*
X207376Y447547D01*
G37*
%LPD*%
%LPC*%
G36*
X207376Y218947D02*
X207376Y218947D01*
X203828Y220417D01*
X201113Y223132D01*
X199643Y226680D01*
X199643Y230520D01*
X201113Y234068D01*
X203828Y236783D01*
X207376Y238253D01*
X224424Y238253D01*
X227972Y236783D01*
X230687Y234068D01*
X232157Y230520D01*
X232157Y226680D01*
X230687Y223132D01*
X227972Y220417D01*
X224424Y218947D01*
X207376Y218947D01*
G37*
%LPD*%
%LPC*%
G36*
X207376Y193547D02*
X207376Y193547D01*
X203828Y195017D01*
X201113Y197732D01*
X199643Y201280D01*
X199643Y205120D01*
X201113Y208668D01*
X203828Y211383D01*
X207376Y212853D01*
X224424Y212853D01*
X227972Y211383D01*
X230687Y208668D01*
X232157Y205120D01*
X232157Y201280D01*
X230687Y197732D01*
X227972Y195017D01*
X224424Y193547D01*
X207376Y193547D01*
G37*
%LPD*%
%LPC*%
G36*
X207376Y244347D02*
X207376Y244347D01*
X203828Y245817D01*
X201113Y248532D01*
X199643Y252080D01*
X199643Y255920D01*
X201113Y259468D01*
X203828Y262183D01*
X207376Y263653D01*
X224424Y263653D01*
X227972Y262183D01*
X230687Y259468D01*
X232157Y255920D01*
X232157Y252080D01*
X230687Y248532D01*
X227972Y245817D01*
X224424Y244347D01*
X207376Y244347D01*
G37*
%LPD*%
%LPC*%
G36*
X283576Y244347D02*
X283576Y244347D01*
X280028Y245817D01*
X277313Y248532D01*
X275843Y252080D01*
X275843Y255920D01*
X277313Y259468D01*
X280028Y262183D01*
X283576Y263653D01*
X300624Y263653D01*
X304172Y262183D01*
X306887Y259468D01*
X308357Y255920D01*
X308357Y252080D01*
X306887Y248532D01*
X304172Y245817D01*
X300624Y244347D01*
X283576Y244347D01*
G37*
%LPD*%
%LPC*%
G36*
X207376Y422147D02*
X207376Y422147D01*
X203828Y423617D01*
X201113Y426332D01*
X199643Y429880D01*
X199643Y433720D01*
X201113Y437268D01*
X203828Y439983D01*
X207376Y441453D01*
X224424Y441453D01*
X227972Y439983D01*
X230687Y437268D01*
X232157Y433720D01*
X232157Y429880D01*
X230687Y426332D01*
X227972Y423617D01*
X224424Y422147D01*
X207376Y422147D01*
G37*
%LPD*%
%LPC*%
G36*
X283576Y142747D02*
X283576Y142747D01*
X280028Y144217D01*
X277313Y146932D01*
X275843Y150480D01*
X275843Y154320D01*
X277313Y157868D01*
X280028Y160583D01*
X283576Y162053D01*
X300624Y162053D01*
X304172Y160583D01*
X306887Y157868D01*
X308357Y154320D01*
X308357Y150480D01*
X306887Y146932D01*
X304172Y144217D01*
X300624Y142747D01*
X283576Y142747D01*
G37*
%LPD*%
%LPC*%
G36*
X207376Y295147D02*
X207376Y295147D01*
X203828Y296617D01*
X201113Y299332D01*
X199643Y302880D01*
X199643Y306720D01*
X201113Y310268D01*
X203828Y312983D01*
X207376Y314453D01*
X224424Y314453D01*
X227972Y312983D01*
X230687Y310268D01*
X232157Y306720D01*
X232157Y302880D01*
X230687Y299332D01*
X227972Y296617D01*
X224424Y295147D01*
X207376Y295147D01*
G37*
%LPD*%
%LPC*%
G36*
X207376Y320547D02*
X207376Y320547D01*
X203828Y322017D01*
X201113Y324732D01*
X199643Y328280D01*
X199643Y332120D01*
X201113Y335668D01*
X203828Y338383D01*
X207376Y339853D01*
X224424Y339853D01*
X227972Y338383D01*
X230687Y335668D01*
X232157Y332120D01*
X232157Y328280D01*
X230687Y324732D01*
X227972Y322017D01*
X224424Y320547D01*
X207376Y320547D01*
G37*
%LPD*%
%LPC*%
G36*
X283576Y396747D02*
X283576Y396747D01*
X280028Y398217D01*
X277313Y400932D01*
X275843Y404480D01*
X275843Y408320D01*
X277313Y411868D01*
X280028Y414583D01*
X283576Y416053D01*
X300624Y416053D01*
X304172Y414583D01*
X306887Y411868D01*
X308357Y408320D01*
X308357Y404480D01*
X306887Y400932D01*
X304172Y398217D01*
X300624Y396747D01*
X283576Y396747D01*
G37*
%LPD*%
%LPC*%
G36*
X283576Y345947D02*
X283576Y345947D01*
X280028Y347417D01*
X277313Y350132D01*
X275843Y353680D01*
X275843Y357520D01*
X277313Y361068D01*
X280028Y363783D01*
X283576Y365253D01*
X300624Y365253D01*
X304172Y363783D01*
X306887Y361068D01*
X308357Y357520D01*
X308357Y353680D01*
X306887Y350132D01*
X304172Y347417D01*
X300624Y345947D01*
X283576Y345947D01*
G37*
%LPD*%
%LPC*%
G36*
X283576Y168147D02*
X283576Y168147D01*
X280028Y169617D01*
X277313Y172332D01*
X275843Y175880D01*
X275843Y179720D01*
X277313Y183268D01*
X280028Y185983D01*
X283576Y187453D01*
X300624Y187453D01*
X304172Y185983D01*
X306887Y183268D01*
X308357Y179720D01*
X308357Y175880D01*
X306887Y172332D01*
X304172Y169617D01*
X300624Y168147D01*
X283576Y168147D01*
G37*
%LPD*%
%LPC*%
G36*
X283576Y320547D02*
X283576Y320547D01*
X280028Y322017D01*
X277313Y324732D01*
X275843Y328280D01*
X275843Y332120D01*
X277313Y335668D01*
X280028Y338383D01*
X283576Y339853D01*
X300624Y339853D01*
X304172Y338383D01*
X306887Y335668D01*
X308357Y332120D01*
X308357Y328280D01*
X306887Y324732D01*
X304172Y322017D01*
X300624Y320547D01*
X283576Y320547D01*
G37*
%LPD*%
%LPC*%
G36*
X278194Y21843D02*
X278194Y21843D01*
X273619Y23738D01*
X270118Y27239D01*
X268223Y31814D01*
X268223Y36766D01*
X270118Y41341D01*
X273619Y44842D01*
X278194Y46737D01*
X283146Y46737D01*
X287721Y44842D01*
X291222Y41341D01*
X293117Y36766D01*
X293117Y31814D01*
X291222Y27239D01*
X287721Y23738D01*
X283146Y21843D01*
X278194Y21843D01*
G37*
%LPD*%
%LPC*%
G36*
X227394Y21843D02*
X227394Y21843D01*
X222819Y23738D01*
X219318Y27239D01*
X217423Y31814D01*
X217423Y36766D01*
X219318Y41341D01*
X222819Y44842D01*
X227394Y46737D01*
X232346Y46737D01*
X236921Y44842D01*
X240422Y41341D01*
X242317Y36766D01*
X242317Y31814D01*
X240422Y27239D01*
X236921Y23738D01*
X232346Y21843D01*
X227394Y21843D01*
G37*
%LPD*%
%LPC*%
G36*
X168974Y447293D02*
X168974Y447293D01*
X164399Y449188D01*
X160898Y452689D01*
X159003Y457264D01*
X159003Y462216D01*
X160898Y466791D01*
X164399Y470292D01*
X168974Y472187D01*
X173926Y472187D01*
X178501Y470292D01*
X182002Y466791D01*
X183897Y462216D01*
X183897Y457264D01*
X182002Y452689D01*
X178501Y449188D01*
X173926Y447293D01*
X168974Y447293D01*
G37*
%LPD*%
%LPC*%
G36*
X248732Y64007D02*
X248732Y64007D01*
X243077Y69662D01*
X243077Y77658D01*
X248732Y83313D01*
X256728Y83313D01*
X262383Y77658D01*
X262383Y69662D01*
X256728Y64007D01*
X248732Y64007D01*
G37*
%LPD*%
%LPC*%
G36*
X153482Y30987D02*
X153482Y30987D01*
X147827Y36642D01*
X147827Y44638D01*
X153482Y50293D01*
X161478Y50293D01*
X167133Y44638D01*
X167133Y36642D01*
X161478Y30987D01*
X153482Y30987D01*
G37*
%LPD*%
%LPC*%
G36*
X134432Y384047D02*
X134432Y384047D01*
X128777Y389702D01*
X128777Y397698D01*
X134432Y403353D01*
X142428Y403353D01*
X148083Y397698D01*
X148083Y389702D01*
X142428Y384047D01*
X134432Y384047D01*
G37*
%LPD*%
%LPC*%
G36*
X32832Y384047D02*
X32832Y384047D01*
X27177Y389702D01*
X27177Y397698D01*
X32832Y403353D01*
X40828Y403353D01*
X46483Y397698D01*
X46483Y389702D01*
X40828Y384047D01*
X32832Y384047D01*
G37*
%LPD*%
%LPC*%
G36*
X318582Y447547D02*
X318582Y447547D01*
X312927Y453202D01*
X312927Y461198D01*
X318582Y466853D01*
X326578Y466853D01*
X332233Y461198D01*
X332233Y453202D01*
X326578Y447547D01*
X318582Y447547D01*
G37*
%LPD*%
%LPC*%
G36*
X134432Y18287D02*
X134432Y18287D01*
X128777Y23942D01*
X128777Y31938D01*
X134432Y37593D01*
X142428Y37593D01*
X148083Y31938D01*
X148083Y23942D01*
X142428Y18287D01*
X134432Y18287D01*
G37*
%LPD*%
%LPC*%
G36*
X98872Y18287D02*
X98872Y18287D01*
X93217Y23942D01*
X93217Y31938D01*
X98872Y37593D01*
X106868Y37593D01*
X112523Y31938D01*
X112523Y23942D01*
X106868Y18287D01*
X98872Y18287D01*
G37*
%LPD*%
%LPC*%
G36*
X181422Y20827D02*
X181422Y20827D01*
X175767Y26482D01*
X175767Y34478D01*
X181422Y40133D01*
X189418Y40133D01*
X195073Y34478D01*
X195073Y26482D01*
X189418Y20827D01*
X181422Y20827D01*
G37*
%LPD*%
%LPC*%
G36*
X178882Y142747D02*
X178882Y142747D01*
X173227Y148402D01*
X173227Y156398D01*
X178882Y162053D01*
X186878Y162053D01*
X192533Y156398D01*
X192533Y148402D01*
X186878Y142747D01*
X178882Y142747D01*
G37*
%LPD*%
%LPC*%
G36*
X123002Y104647D02*
X123002Y104647D01*
X117347Y110302D01*
X117347Y118298D01*
X123002Y123953D01*
X130998Y123953D01*
X136653Y118298D01*
X136653Y110302D01*
X130998Y104647D01*
X123002Y104647D01*
G37*
%LPD*%
%LPC*%
G36*
X123002Y130047D02*
X123002Y130047D01*
X117347Y135702D01*
X117347Y143698D01*
X123002Y149353D01*
X130998Y149353D01*
X136653Y143698D01*
X136653Y135702D01*
X130998Y130047D01*
X123002Y130047D01*
G37*
%LPD*%
%LPC*%
G36*
X450408Y427227D02*
X450408Y427227D01*
X444753Y432882D01*
X444753Y440878D01*
X450408Y446533D01*
X458404Y446533D01*
X464059Y440878D01*
X464059Y432882D01*
X458404Y427227D01*
X450408Y427227D01*
G37*
%LPD*%
%LPC*%
G36*
X36180Y18287D02*
X36180Y18287D01*
X32632Y19757D01*
X29917Y22472D01*
X28447Y26020D01*
X28447Y29860D01*
X29917Y33408D01*
X32632Y36123D01*
X36180Y37593D01*
X40020Y37593D01*
X43568Y36123D01*
X46283Y33408D01*
X47753Y29860D01*
X47753Y26020D01*
X46283Y22472D01*
X43568Y19757D01*
X40020Y18287D01*
X36180Y18287D01*
G37*
%LPD*%
%LPC*%
G36*
X293623Y230123D02*
X293623Y230123D01*
X293623Y237745D01*
X299605Y237745D01*
X301371Y237393D01*
X303036Y236704D01*
X304534Y235703D01*
X305807Y234430D01*
X306808Y232932D01*
X307497Y231267D01*
X307725Y230123D01*
X293623Y230123D01*
G37*
%LPD*%
%LPC*%
G36*
X293623Y433323D02*
X293623Y433323D01*
X293623Y440945D01*
X299605Y440945D01*
X301371Y440593D01*
X303036Y439904D01*
X304534Y438903D01*
X305807Y437630D01*
X306808Y436132D01*
X307497Y434467D01*
X307725Y433323D01*
X293623Y433323D01*
G37*
%LPD*%
%LPC*%
G36*
X217423Y280923D02*
X217423Y280923D01*
X217423Y288545D01*
X223405Y288545D01*
X225171Y288193D01*
X226836Y287504D01*
X228334Y286503D01*
X229607Y285230D01*
X230608Y283732D01*
X231297Y282067D01*
X231525Y280923D01*
X217423Y280923D01*
G37*
%LPD*%
%LPC*%
G36*
X276475Y433323D02*
X276475Y433323D01*
X276703Y434467D01*
X277392Y436132D01*
X278393Y437630D01*
X279666Y438903D01*
X281164Y439904D01*
X282829Y440593D01*
X284595Y440945D01*
X290577Y440945D01*
X290577Y433323D01*
X276475Y433323D01*
G37*
%LPD*%
%LPC*%
G36*
X200275Y280923D02*
X200275Y280923D01*
X200503Y282067D01*
X201192Y283732D01*
X202193Y285230D01*
X203466Y286503D01*
X204964Y287504D01*
X206629Y288193D01*
X208395Y288545D01*
X214377Y288545D01*
X214377Y280923D01*
X200275Y280923D01*
G37*
%LPD*%
%LPC*%
G36*
X276475Y230123D02*
X276475Y230123D01*
X276703Y231267D01*
X277392Y232932D01*
X278393Y234430D01*
X279666Y235703D01*
X281164Y236704D01*
X282829Y237393D01*
X284595Y237745D01*
X290577Y237745D01*
X290577Y230123D01*
X276475Y230123D01*
G37*
%LPD*%
%LPC*%
G36*
X217423Y270255D02*
X217423Y270255D01*
X217423Y277877D01*
X231525Y277877D01*
X231297Y276733D01*
X230608Y275068D01*
X229607Y273570D01*
X228334Y272297D01*
X226836Y271296D01*
X225171Y270607D01*
X223405Y270255D01*
X217423Y270255D01*
G37*
%LPD*%
%LPC*%
G36*
X293623Y422655D02*
X293623Y422655D01*
X293623Y430277D01*
X307725Y430277D01*
X307497Y429133D01*
X306808Y427468D01*
X305807Y425970D01*
X304534Y424697D01*
X303036Y423696D01*
X301371Y423007D01*
X299605Y422655D01*
X293623Y422655D01*
G37*
%LPD*%
%LPC*%
G36*
X293623Y219455D02*
X293623Y219455D01*
X293623Y227077D01*
X307725Y227077D01*
X307497Y225933D01*
X306808Y224268D01*
X305807Y222770D01*
X304534Y221497D01*
X303036Y220496D01*
X301371Y219807D01*
X299605Y219455D01*
X293623Y219455D01*
G37*
%LPD*%
%LPC*%
G36*
X284595Y219455D02*
X284595Y219455D01*
X282829Y219807D01*
X281164Y220496D01*
X279666Y221497D01*
X278393Y222770D01*
X277392Y224268D01*
X276703Y225933D01*
X276475Y227077D01*
X290577Y227077D01*
X290577Y219455D01*
X284595Y219455D01*
G37*
%LPD*%
%LPC*%
G36*
X208395Y270255D02*
X208395Y270255D01*
X206629Y270607D01*
X204964Y271296D01*
X203466Y272297D01*
X202193Y273570D01*
X201192Y275068D01*
X200503Y276733D01*
X200275Y277877D01*
X214377Y277877D01*
X214377Y270255D01*
X208395Y270255D01*
G37*
%LPD*%
%LPC*%
G36*
X284595Y422655D02*
X284595Y422655D01*
X282829Y423007D01*
X281164Y423696D01*
X279666Y424697D01*
X278393Y425970D01*
X277392Y427468D01*
X276703Y429133D01*
X276475Y430277D01*
X290577Y430277D01*
X290577Y422655D01*
X284595Y422655D01*
G37*
%LPD*%
%LPC*%
G36*
X122173Y461263D02*
X122173Y461263D01*
X122173Y471586D01*
X123446Y471385D01*
X125233Y470804D01*
X126907Y469951D01*
X128428Y468846D01*
X129756Y467518D01*
X130861Y465997D01*
X131714Y464323D01*
X132295Y462536D01*
X132496Y461263D01*
X122173Y461263D01*
G37*
%LPD*%
%LPC*%
G36*
X14223Y163577D02*
X14223Y163577D01*
X24546Y163577D01*
X24345Y162304D01*
X23764Y160517D01*
X22911Y158843D01*
X21806Y157322D01*
X20478Y155994D01*
X18957Y154889D01*
X17283Y154036D01*
X15496Y153455D01*
X14223Y153254D01*
X14223Y163577D01*
G37*
%LPD*%
%LPC*%
G36*
X108804Y461263D02*
X108804Y461263D01*
X109005Y462536D01*
X109586Y464323D01*
X110439Y465997D01*
X111544Y467518D01*
X112872Y468846D01*
X114393Y469951D01*
X116067Y470804D01*
X117854Y471385D01*
X119127Y471586D01*
X119127Y461263D01*
X108804Y461263D01*
G37*
%LPD*%
%LPC*%
G36*
X122173Y458217D02*
X122173Y458217D01*
X132496Y458217D01*
X132295Y456944D01*
X131714Y455157D01*
X130861Y453483D01*
X129756Y451962D01*
X128428Y450634D01*
X126907Y449529D01*
X125233Y448676D01*
X123446Y448095D01*
X122173Y447894D01*
X122173Y458217D01*
G37*
%LPD*%
%LPC*%
G36*
X486154Y153455D02*
X486154Y153455D01*
X484367Y154036D01*
X482693Y154889D01*
X481172Y155994D01*
X479844Y157322D01*
X478739Y158843D01*
X477886Y160517D01*
X477305Y162304D01*
X477104Y163577D01*
X487427Y163577D01*
X487427Y153254D01*
X486154Y153455D01*
G37*
%LPD*%
%LPC*%
G36*
X117854Y448095D02*
X117854Y448095D01*
X116067Y448676D01*
X114393Y449529D01*
X112872Y450634D01*
X111544Y451962D01*
X110439Y453483D01*
X109586Y455157D01*
X109005Y456944D01*
X108804Y458217D01*
X119127Y458217D01*
X119127Y447894D01*
X117854Y448095D01*
G37*
%LPD*%
%LPC*%
G36*
X377443Y255523D02*
X377443Y255523D01*
X377443Y263145D01*
X379708Y263145D01*
X385065Y257788D01*
X385065Y255523D01*
X377443Y255523D01*
G37*
%LPD*%
%LPC*%
G36*
X380237Y476757D02*
X380237Y476757D01*
X380237Y484379D01*
X382502Y484379D01*
X387859Y479022D01*
X387859Y476757D01*
X380237Y476757D01*
G37*
%LPD*%
%LPC*%
G36*
X186943Y57403D02*
X186943Y57403D01*
X186943Y65025D01*
X189208Y65025D01*
X194565Y59668D01*
X194565Y57403D01*
X186943Y57403D01*
G37*
%LPD*%
%LPC*%
G36*
X139953Y54863D02*
X139953Y54863D01*
X139953Y62485D01*
X142218Y62485D01*
X147575Y57128D01*
X147575Y54863D01*
X139953Y54863D01*
G37*
%LPD*%
%LPC*%
G36*
X184403Y128523D02*
X184403Y128523D01*
X184403Y136145D01*
X186668Y136145D01*
X192025Y130788D01*
X192025Y128523D01*
X184403Y128523D01*
G37*
%LPD*%
%LPC*%
G36*
X104393Y54863D02*
X104393Y54863D01*
X104393Y62485D01*
X106658Y62485D01*
X112015Y57128D01*
X112015Y54863D01*
X104393Y54863D01*
G37*
%LPD*%
%LPC*%
G36*
X324103Y433323D02*
X324103Y433323D01*
X324103Y440945D01*
X326368Y440945D01*
X331725Y435588D01*
X331725Y433323D01*
X324103Y433323D01*
G37*
%LPD*%
%LPC*%
G36*
X26923Y141223D02*
X26923Y141223D01*
X26923Y148845D01*
X29188Y148845D01*
X34545Y143488D01*
X34545Y141223D01*
X26923Y141223D01*
G37*
%LPD*%
%LPC*%
G36*
X26923Y115823D02*
X26923Y115823D01*
X26923Y123445D01*
X29188Y123445D01*
X34545Y118088D01*
X34545Y115823D01*
X26923Y115823D01*
G37*
%LPD*%
%LPC*%
G36*
X39623Y80263D02*
X39623Y80263D01*
X39623Y87885D01*
X41888Y87885D01*
X47245Y82528D01*
X47245Y80263D01*
X39623Y80263D01*
G37*
%LPD*%
%LPC*%
G36*
X16255Y115823D02*
X16255Y115823D01*
X16255Y118088D01*
X21612Y123445D01*
X23877Y123445D01*
X23877Y115823D01*
X16255Y115823D01*
G37*
%LPD*%
%LPC*%
G36*
X16255Y141223D02*
X16255Y141223D01*
X16255Y143488D01*
X21612Y148845D01*
X23877Y148845D01*
X23877Y141223D01*
X16255Y141223D01*
G37*
%LPD*%
%LPC*%
G36*
X366775Y255523D02*
X366775Y255523D01*
X366775Y257788D01*
X372132Y263145D01*
X374397Y263145D01*
X374397Y255523D01*
X366775Y255523D01*
G37*
%LPD*%
%LPC*%
G36*
X369569Y476757D02*
X369569Y476757D01*
X369569Y479022D01*
X374926Y484379D01*
X377191Y484379D01*
X377191Y476757D01*
X369569Y476757D01*
G37*
%LPD*%
%LPC*%
G36*
X93725Y54863D02*
X93725Y54863D01*
X93725Y57128D01*
X99082Y62485D01*
X101347Y62485D01*
X101347Y54863D01*
X93725Y54863D01*
G37*
%LPD*%
%LPC*%
G36*
X184403Y117855D02*
X184403Y117855D01*
X184403Y125477D01*
X192025Y125477D01*
X192025Y123212D01*
X186668Y117855D01*
X184403Y117855D01*
G37*
%LPD*%
%LPC*%
G36*
X28955Y80263D02*
X28955Y80263D01*
X28955Y82528D01*
X34312Y87885D01*
X36577Y87885D01*
X36577Y80263D01*
X28955Y80263D01*
G37*
%LPD*%
%LPC*%
G36*
X173735Y128523D02*
X173735Y128523D01*
X173735Y130788D01*
X179092Y136145D01*
X181357Y136145D01*
X181357Y128523D01*
X173735Y128523D01*
G37*
%LPD*%
%LPC*%
G36*
X26923Y130555D02*
X26923Y130555D01*
X26923Y138177D01*
X34545Y138177D01*
X34545Y135912D01*
X29188Y130555D01*
X26923Y130555D01*
G37*
%LPD*%
%LPC*%
G36*
X129285Y54863D02*
X129285Y54863D01*
X129285Y57128D01*
X134642Y62485D01*
X136907Y62485D01*
X136907Y54863D01*
X129285Y54863D01*
G37*
%LPD*%
%LPC*%
G36*
X104393Y44195D02*
X104393Y44195D01*
X104393Y51817D01*
X112015Y51817D01*
X112015Y49552D01*
X106658Y44195D01*
X104393Y44195D01*
G37*
%LPD*%
%LPC*%
G36*
X139953Y44195D02*
X139953Y44195D01*
X139953Y51817D01*
X147575Y51817D01*
X147575Y49552D01*
X142218Y44195D01*
X139953Y44195D01*
G37*
%LPD*%
%LPC*%
G36*
X26923Y105155D02*
X26923Y105155D01*
X26923Y112777D01*
X34545Y112777D01*
X34545Y110512D01*
X29188Y105155D01*
X26923Y105155D01*
G37*
%LPD*%
%LPC*%
G36*
X377443Y244855D02*
X377443Y244855D01*
X377443Y252477D01*
X385065Y252477D01*
X385065Y250212D01*
X379708Y244855D01*
X377443Y244855D01*
G37*
%LPD*%
%LPC*%
G36*
X313435Y433323D02*
X313435Y433323D01*
X313435Y435588D01*
X318792Y440945D01*
X321057Y440945D01*
X321057Y433323D01*
X313435Y433323D01*
G37*
%LPD*%
%LPC*%
G36*
X176275Y57403D02*
X176275Y57403D01*
X176275Y59668D01*
X181632Y65025D01*
X183897Y65025D01*
X183897Y57403D01*
X176275Y57403D01*
G37*
%LPD*%
%LPC*%
G36*
X324103Y422655D02*
X324103Y422655D01*
X324103Y430277D01*
X331725Y430277D01*
X331725Y428012D01*
X326368Y422655D01*
X324103Y422655D01*
G37*
%LPD*%
%LPC*%
G36*
X186943Y46735D02*
X186943Y46735D01*
X186943Y54357D01*
X194565Y54357D01*
X194565Y52092D01*
X189208Y46735D01*
X186943Y46735D01*
G37*
%LPD*%
%LPC*%
G36*
X39623Y69595D02*
X39623Y69595D01*
X39623Y77217D01*
X47245Y77217D01*
X47245Y74952D01*
X41888Y69595D01*
X39623Y69595D01*
G37*
%LPD*%
%LPC*%
G36*
X380237Y466089D02*
X380237Y466089D01*
X380237Y473711D01*
X387859Y473711D01*
X387859Y471446D01*
X382502Y466089D01*
X380237Y466089D01*
G37*
%LPD*%
%LPC*%
G36*
X34312Y69595D02*
X34312Y69595D01*
X28955Y74952D01*
X28955Y77217D01*
X36577Y77217D01*
X36577Y69595D01*
X34312Y69595D01*
G37*
%LPD*%
%LPC*%
G36*
X181632Y46735D02*
X181632Y46735D01*
X176275Y52092D01*
X176275Y54357D01*
X183897Y54357D01*
X183897Y46735D01*
X181632Y46735D01*
G37*
%LPD*%
%LPC*%
G36*
X134642Y44195D02*
X134642Y44195D01*
X129285Y49552D01*
X129285Y51817D01*
X136907Y51817D01*
X136907Y44195D01*
X134642Y44195D01*
G37*
%LPD*%
%LPC*%
G36*
X318792Y422655D02*
X318792Y422655D01*
X313435Y428012D01*
X313435Y430277D01*
X321057Y430277D01*
X321057Y422655D01*
X318792Y422655D01*
G37*
%LPD*%
%LPC*%
G36*
X99082Y44195D02*
X99082Y44195D01*
X93725Y49552D01*
X93725Y51817D01*
X101347Y51817D01*
X101347Y44195D01*
X99082Y44195D01*
G37*
%LPD*%
%LPC*%
G36*
X179092Y117855D02*
X179092Y117855D01*
X173735Y123212D01*
X173735Y125477D01*
X181357Y125477D01*
X181357Y117855D01*
X179092Y117855D01*
G37*
%LPD*%
%LPC*%
G36*
X372132Y244855D02*
X372132Y244855D01*
X366775Y250212D01*
X366775Y252477D01*
X374397Y252477D01*
X374397Y244855D01*
X372132Y244855D01*
G37*
%LPD*%
%LPC*%
G36*
X21612Y130555D02*
X21612Y130555D01*
X16255Y135912D01*
X16255Y138177D01*
X23877Y138177D01*
X23877Y130555D01*
X21612Y130555D01*
G37*
%LPD*%
%LPC*%
G36*
X374926Y466089D02*
X374926Y466089D01*
X369569Y471446D01*
X369569Y473711D01*
X377191Y473711D01*
X377191Y466089D01*
X374926Y466089D01*
G37*
%LPD*%
%LPC*%
G36*
X21612Y105155D02*
X21612Y105155D01*
X16255Y110512D01*
X16255Y112777D01*
X23877Y112777D01*
X23877Y105155D01*
X21612Y105155D01*
G37*
%LPD*%
%LPC*%
G36*
X138429Y53339D02*
X138429Y53339D01*
X138429Y53341D01*
X138431Y53341D01*
X138431Y53339D01*
X138429Y53339D01*
G37*
%LPD*%
%LPC*%
G36*
X102869Y53339D02*
X102869Y53339D01*
X102869Y53341D01*
X102871Y53341D01*
X102871Y53339D01*
X102869Y53339D01*
G37*
%LPD*%
%LPC*%
G36*
X25399Y114299D02*
X25399Y114299D01*
X25399Y114301D01*
X25401Y114301D01*
X25401Y114299D01*
X25399Y114299D01*
G37*
%LPD*%
%LPC*%
G36*
X378713Y475233D02*
X378713Y475233D01*
X378713Y475235D01*
X378715Y475235D01*
X378715Y475233D01*
X378713Y475233D01*
G37*
%LPD*%
%LPC*%
G36*
X182879Y126999D02*
X182879Y126999D01*
X182879Y127001D01*
X182881Y127001D01*
X182881Y126999D01*
X182879Y126999D01*
G37*
%LPD*%
%LPC*%
G36*
X185419Y55879D02*
X185419Y55879D01*
X185419Y55881D01*
X185421Y55881D01*
X185421Y55879D01*
X185419Y55879D01*
G37*
%LPD*%
%LPC*%
G36*
X322579Y431799D02*
X322579Y431799D01*
X322579Y431801D01*
X322581Y431801D01*
X322581Y431799D01*
X322579Y431799D01*
G37*
%LPD*%
%LPC*%
G36*
X292099Y431799D02*
X292099Y431799D01*
X292099Y431801D01*
X292101Y431801D01*
X292101Y431799D01*
X292099Y431799D01*
G37*
%LPD*%
%LPC*%
G36*
X25399Y139699D02*
X25399Y139699D01*
X25399Y139701D01*
X25401Y139701D01*
X25401Y139699D01*
X25399Y139699D01*
G37*
%LPD*%
%LPC*%
G36*
X215899Y279399D02*
X215899Y279399D01*
X215899Y279401D01*
X215901Y279401D01*
X215901Y279399D01*
X215899Y279399D01*
G37*
%LPD*%
%LPC*%
G36*
X292099Y228599D02*
X292099Y228599D01*
X292099Y228601D01*
X292101Y228601D01*
X292101Y228599D01*
X292099Y228599D01*
G37*
%LPD*%
%LPC*%
G36*
X375919Y253999D02*
X375919Y253999D01*
X375919Y254001D01*
X375921Y254001D01*
X375921Y253999D01*
X375919Y253999D01*
G37*
%LPD*%
%LPC*%
G36*
X120649Y459739D02*
X120649Y459739D01*
X120649Y459741D01*
X120651Y459741D01*
X120651Y459739D01*
X120649Y459739D01*
G37*
%LPD*%
%LPC*%
G36*
X38099Y78739D02*
X38099Y78739D01*
X38099Y78741D01*
X38101Y78741D01*
X38101Y78739D01*
X38099Y78739D01*
G37*
%LPD*%
D10*
X322580Y457200D03*
X322580Y431800D03*
X182880Y152400D03*
X182880Y127000D03*
D11*
X185420Y30480D03*
X185420Y55880D03*
X102870Y27940D03*
X102870Y53340D03*
D12*
X325120Y254000D03*
D13*
X375920Y254000D03*
D12*
X38100Y27940D03*
D11*
X38100Y78740D03*
D14*
X410010Y50040D03*
X410010Y66040D03*
X410010Y82040D03*
X422010Y58040D03*
X422010Y74040D03*
D15*
X461010Y102540D03*
X461010Y29540D03*
D16*
X488950Y165100D03*
X488950Y190500D03*
X488950Y215900D03*
X488950Y241300D03*
X488950Y266700D03*
X488950Y292100D03*
X488950Y317500D03*
X488950Y342900D03*
X12700Y165100D03*
X12700Y190500D03*
X12700Y215900D03*
X12700Y241300D03*
X12700Y266700D03*
X12700Y292100D03*
X12700Y317500D03*
X12700Y342900D03*
D13*
X454406Y436880D03*
X479806Y436880D03*
D10*
X252730Y99060D03*
X252730Y73660D03*
D13*
X378714Y475234D03*
X480314Y475234D03*
X25400Y114300D03*
X127000Y114300D03*
D17*
X138430Y393700D03*
X36830Y393700D03*
D13*
X25400Y139700D03*
X127000Y139700D03*
D18*
X209296Y457200D02*
X222504Y457200D01*
X222504Y431800D02*
X209296Y431800D01*
X209296Y304800D02*
X222504Y304800D01*
X222504Y279400D02*
X209296Y279400D01*
X209296Y406400D02*
X222504Y406400D01*
X222504Y381000D02*
X209296Y381000D01*
X209296Y330200D02*
X222504Y330200D01*
X222504Y355600D02*
X209296Y355600D01*
X209296Y254000D02*
X222504Y254000D01*
X222504Y228600D02*
X209296Y228600D01*
X209296Y203200D02*
X222504Y203200D01*
X222504Y177800D02*
X209296Y177800D01*
X209296Y152400D02*
X222504Y152400D01*
X222504Y127000D02*
X209296Y127000D01*
X285496Y127000D02*
X298704Y127000D01*
X298704Y152400D02*
X285496Y152400D01*
X285496Y177800D02*
X298704Y177800D01*
X298704Y203200D02*
X285496Y203200D01*
X285496Y228600D02*
X298704Y228600D01*
X298704Y254000D02*
X285496Y254000D01*
X285496Y279400D02*
X298704Y279400D01*
X298704Y304800D02*
X285496Y304800D01*
X285496Y330200D02*
X298704Y330200D01*
X298704Y355600D02*
X285496Y355600D01*
X285496Y381000D02*
X298704Y381000D01*
X298704Y406400D02*
X285496Y406400D01*
X285496Y431800D02*
X298704Y431800D01*
X298704Y457200D02*
X285496Y457200D01*
D19*
X387980Y24130D03*
X307980Y24130D03*
D14*
X367980Y24130D03*
X347980Y24130D03*
X327980Y24130D03*
D10*
X138430Y27940D03*
X157480Y40640D03*
X138430Y53340D03*
D16*
X171450Y459740D03*
X120650Y459740D03*
X229870Y34290D03*
X280670Y34290D03*
X12700Y368300D03*
X12700Y393700D03*
X12700Y419100D03*
X12700Y444500D03*
X12700Y469900D03*
X181610Y265430D03*
X181610Y240030D03*
X181610Y214630D03*
D20*
X38100Y419100D02*
X12700Y444500D01*
X38100Y419100D02*
X63500Y419100D01*
D21*
X63500Y419100D03*
X127000Y419100D03*
D20*
X177800Y419100D01*
X215900Y381000D01*
X38100Y469900D02*
X12700Y469900D01*
X38100Y469900D02*
X152400Y355600D01*
X215900Y355600D01*
X215900Y177800D02*
X199136Y161036D01*
X218440Y99060D02*
X252730Y99060D01*
X199136Y118364D02*
X199136Y161036D01*
X199136Y118364D02*
X218440Y99060D01*
X228600Y114300D02*
X215900Y127000D01*
X228600Y114300D02*
X317500Y114300D01*
D21*
X317500Y114300D03*
D20*
X317500Y279400D02*
X292100Y279400D01*
X317500Y279400D02*
X342900Y254000D01*
X342900Y88900D01*
X365760Y66040D01*
X410010Y66040D01*
X330200Y304800D02*
X292100Y304800D01*
X330200Y304800D02*
X355600Y279400D01*
X355600Y101600D01*
X432106Y78222D02*
X432106Y69858D01*
X365064Y92136D02*
X355600Y101600D01*
X365064Y92136D02*
X418192Y92136D01*
X432106Y78222D01*
X432106Y69858D02*
X422010Y59762D01*
X422010Y58040D01*
M02*
