G04 EAGLE Gerber X2 export*
%TF.Part,Single*%
%TF.FileFunction,Copper,L1,Top,Mixed*%
%TF.FilePolarity,Positive*%
%TF.GenerationSoftware,Autodesk,EAGLE,8.7.1*%
%TF.CreationDate,2018-04-16T05:42:20Z*%
G75*
%MOMM*%
%FSLAX34Y34*%
%LPD*%
%AMOC8*
5,1,8,0,0,1.08239X$1,22.5*%
G01*
%ADD10P,1.429621X8X292.500000*%
%ADD11P,1.429621X8X112.500000*%
%ADD12C,1.320800*%
%ADD13P,1.429621X8X22.500000*%
%ADD14C,1.308000*%
%ADD15C,2.850000*%
%ADD16C,1.879600*%
%ADD17P,1.429621X8X202.500000*%
%ADD18C,1.320800*%
%ADD19C,1.508000*%
%ADD20C,0.406400*%
%ADD21C,0.756400*%
%ADD22C,0.254000*%


D10*
X322580Y457200D03*
X322580Y431800D03*
X182880Y152400D03*
X182880Y127000D03*
D11*
X185420Y30480D03*
X185420Y55880D03*
X102870Y27940D03*
X102870Y53340D03*
D12*
X325120Y254000D03*
D13*
X375920Y254000D03*
D12*
X38100Y27940D03*
D11*
X38100Y78740D03*
D14*
X410010Y50040D03*
X410010Y66040D03*
X410010Y82040D03*
X422010Y58040D03*
X422010Y74040D03*
D15*
X461010Y102540D03*
X461010Y29540D03*
D16*
X488950Y165100D03*
X488950Y190500D03*
X488950Y215900D03*
X488950Y241300D03*
X488950Y266700D03*
X488950Y292100D03*
X488950Y317500D03*
X488950Y342900D03*
X12700Y165100D03*
X12700Y190500D03*
X12700Y215900D03*
X12700Y241300D03*
X12700Y266700D03*
X12700Y292100D03*
X12700Y317500D03*
X12700Y342900D03*
D13*
X454406Y436880D03*
X479806Y436880D03*
D10*
X252730Y99060D03*
X252730Y73660D03*
D13*
X378714Y475234D03*
X480314Y475234D03*
X25400Y114300D03*
X127000Y114300D03*
D17*
X138430Y393700D03*
X36830Y393700D03*
D13*
X25400Y139700D03*
X127000Y139700D03*
D18*
X209296Y457200D02*
X222504Y457200D01*
X222504Y431800D02*
X209296Y431800D01*
X209296Y304800D02*
X222504Y304800D01*
X222504Y279400D02*
X209296Y279400D01*
X209296Y406400D02*
X222504Y406400D01*
X222504Y381000D02*
X209296Y381000D01*
X209296Y330200D02*
X222504Y330200D01*
X222504Y355600D02*
X209296Y355600D01*
X209296Y254000D02*
X222504Y254000D01*
X222504Y228600D02*
X209296Y228600D01*
X209296Y203200D02*
X222504Y203200D01*
X222504Y177800D02*
X209296Y177800D01*
X209296Y152400D02*
X222504Y152400D01*
X222504Y127000D02*
X209296Y127000D01*
X285496Y127000D02*
X298704Y127000D01*
X298704Y152400D02*
X285496Y152400D01*
X285496Y177800D02*
X298704Y177800D01*
X298704Y203200D02*
X285496Y203200D01*
X285496Y228600D02*
X298704Y228600D01*
X298704Y254000D02*
X285496Y254000D01*
X285496Y279400D02*
X298704Y279400D01*
X298704Y304800D02*
X285496Y304800D01*
X285496Y330200D02*
X298704Y330200D01*
X298704Y355600D02*
X285496Y355600D01*
X285496Y381000D02*
X298704Y381000D01*
X298704Y406400D02*
X285496Y406400D01*
X285496Y431800D02*
X298704Y431800D01*
X298704Y457200D02*
X285496Y457200D01*
D19*
X387980Y24130D03*
X307980Y24130D03*
D14*
X367980Y24130D03*
X347980Y24130D03*
X327980Y24130D03*
D10*
X138430Y27940D03*
X157480Y40640D03*
X138430Y53340D03*
D16*
X171450Y459740D03*
X120650Y459740D03*
X229870Y34290D03*
X280670Y34290D03*
X12700Y368300D03*
X12700Y393700D03*
X12700Y419100D03*
X12700Y444500D03*
X12700Y469900D03*
X181610Y265430D03*
X181610Y240030D03*
X181610Y214630D03*
D20*
X395196Y35226D02*
X410010Y50040D01*
X353702Y24130D02*
X347980Y24130D01*
X364798Y35226D02*
X395196Y35226D01*
X364798Y35226D02*
X353702Y24130D01*
X322580Y457200D02*
X292100Y457200D01*
X322580Y457200D02*
X401320Y457200D01*
X215900Y152400D02*
X182880Y152400D01*
X102870Y27940D02*
X38100Y27940D01*
X102870Y27940D02*
X138430Y27940D01*
X38100Y165100D02*
X12700Y190500D01*
X27940Y82948D02*
X27940Y74532D01*
X38100Y64372D02*
X38100Y27940D01*
X38100Y93108D02*
X38100Y165100D01*
X27940Y74532D02*
X38100Y64372D01*
X27940Y82948D02*
X38100Y93108D01*
X280670Y100330D02*
X280670Y34290D01*
X266700Y431800D02*
X292100Y457200D01*
X266700Y431800D02*
X266700Y330200D01*
X292100Y330200D01*
X266700Y330200D02*
X266700Y152400D01*
X215900Y152400D01*
X266700Y152400D02*
X266700Y114300D01*
X280670Y100330D01*
X36830Y393700D02*
X12700Y393700D01*
X36830Y393700D02*
X36830Y468630D01*
X50800Y482600D01*
X266700Y482600D01*
X292100Y457200D01*
X401320Y457200D02*
X454406Y436880D01*
X153272Y50800D02*
X147320Y44848D01*
X153272Y50800D02*
X161688Y50800D01*
X224504Y21336D02*
X235236Y21336D01*
X147320Y36830D02*
X147320Y44848D01*
X248190Y34290D02*
X280670Y34290D01*
X248190Y34290D02*
X235236Y21336D01*
X171848Y40640D02*
X161688Y50800D01*
X171848Y40640D02*
X205200Y40640D01*
X224504Y21336D01*
X147320Y36830D02*
X138430Y27940D01*
X323672Y24130D02*
X327980Y24130D01*
X323672Y24130D02*
X312576Y13034D01*
X202866Y13034D01*
X185420Y30480D01*
X292100Y60010D02*
X292100Y127000D01*
X292100Y60010D02*
X327980Y24130D01*
X425450Y127000D02*
X488950Y190500D01*
X425450Y127000D02*
X292100Y127000D01*
X185420Y30480D02*
X167640Y30480D01*
X157480Y40640D01*
X215900Y254000D02*
X204470Y265430D01*
X181610Y265430D01*
X182880Y215900D02*
X181610Y214630D01*
X182880Y215900D02*
X203200Y215900D01*
X215900Y228600D01*
X292100Y254000D02*
X325120Y254000D01*
X215900Y431800D02*
X190500Y431800D01*
X148590Y389890D02*
X148590Y389492D01*
X148590Y389890D02*
X190500Y431800D01*
X101998Y342900D02*
X12700Y342900D01*
X101998Y342900D02*
X148590Y389492D01*
X25400Y330200D02*
X12700Y317500D01*
X114300Y330200D02*
X190500Y406400D01*
X215900Y406400D01*
X114300Y330200D02*
X25400Y330200D01*
D21*
X63500Y419100D03*
D20*
X127000Y419100D01*
D21*
X127000Y419100D03*
D20*
X215900Y330200D02*
X203200Y317500D01*
X38100Y317500D01*
X12700Y292100D01*
X203200Y292100D02*
X215900Y304800D01*
X203200Y292100D02*
X38100Y292100D01*
X12700Y266700D01*
X12700Y215900D02*
X50800Y177800D01*
X215900Y177800D01*
D21*
X317500Y114300D03*
D20*
X420106Y75944D02*
X422010Y74040D01*
X420106Y75944D02*
X420106Y86222D01*
X392028Y114300D01*
X317500Y114300D01*
X213360Y459740D02*
X171450Y459740D01*
X213360Y459740D02*
X215900Y457200D01*
X171450Y459740D02*
X138430Y426720D01*
X138430Y393700D01*
X25400Y381000D02*
X12700Y368300D01*
X25400Y381000D02*
X127000Y381000D01*
X138430Y392430D01*
X138430Y393700D01*
X228600Y35560D02*
X229870Y34290D01*
X228600Y35560D02*
X228600Y76200D01*
X215900Y88900D01*
X127000Y88900D01*
X114300Y101600D01*
X114300Y127000D01*
X127000Y139700D01*
X63500Y190500D02*
X12700Y241300D01*
X63500Y190500D02*
X203200Y190500D01*
X215900Y203200D01*
X152400Y165100D02*
X127000Y139700D01*
X152400Y165100D02*
X228600Y165100D01*
X241300Y177800D01*
X241300Y190500D01*
X228600Y203200D02*
X215900Y203200D01*
X228600Y203200D02*
X241300Y190500D01*
X425450Y152400D02*
X488950Y215900D01*
X425450Y152400D02*
X292100Y152400D01*
X425450Y177800D02*
X488950Y241300D01*
X425450Y177800D02*
X292100Y177800D01*
X425450Y203200D02*
X488950Y266700D01*
X425450Y203200D02*
X292100Y203200D01*
X381000Y292100D02*
X488950Y292100D01*
X381000Y292100D02*
X317500Y355600D01*
X292100Y355600D01*
X381000Y317500D02*
X488950Y317500D01*
X381000Y317500D02*
X317500Y381000D01*
X292100Y381000D01*
X292100Y406400D02*
X317500Y406400D01*
X381000Y342900D01*
X488950Y342900D01*
X224790Y101600D02*
X252730Y73660D01*
X139700Y101600D02*
X127000Y114300D01*
X139700Y101600D02*
X224790Y101600D01*
D22*
X480314Y437388D02*
X480314Y475234D01*
X480314Y437388D02*
X479806Y436880D01*
M02*
