M48
;GenerationSoftware,Autodesk,EAGLE,8.7.1*%
;CreationDate,2018-04-16T05:42:20Z*%
FMAT,2
ICI,OFF
METRIC,TZ,000.000
T6C0.350
T5C0.800
T4C0.813
T3C1.000
T2C1.016
T1C1.900
%
G90
M71
T1
X46101Y2954
X46101Y10254
T2
X18161Y26543
X1270Y46990
X1270Y44450
X1270Y41910
X1270Y39370
X1270Y36830
X28067Y3429
X22987Y3429
X12065Y45974
X17145Y45974
X1270Y34290
X1270Y31750
X1270Y29210
X1270Y26670
X1270Y24130
X1270Y21590
X18161Y24003
X18161Y21463
X48895Y16510
X48895Y19050
X48895Y21590
X48895Y24130
X48895Y26670
X48895Y29210
X48895Y31750
X48895Y34290
X1270Y16510
X1270Y19050
T3
X30798Y2413
X38798Y2413
T4
X12700Y13970
X29210Y15240
X32258Y45720
X32258Y43180
X18288Y15240
X3810Y7874
X45441Y43688
X47981Y43688
X25273Y9906
X25273Y7366
X37871Y47523
X48031Y47523
X2540Y11430
X12700Y11430
X13843Y39370
X3683Y39370
X2540Y13970
X18288Y12700
X21590Y45720
X21590Y43180
X21590Y30480
X21590Y27940
X21590Y40640
X21590Y38100
X21590Y33020
X21590Y35560
X21590Y25400
X21590Y22860
X21590Y20320
X21590Y17780
X21590Y15240
X21590Y12700
X29210Y12700
X18542Y3048
X29210Y17780
X29210Y20320
X29210Y22860
X29210Y25400
X29210Y27940
X29210Y30480
X29210Y33020
X29210Y35560
X29210Y38100
X29210Y40640
X29210Y43180
X29210Y45720
X3810Y2794
X37592Y25400
X18542Y5588
X10287Y2794
X10287Y5334
X13843Y2794
X15748Y4064
X13843Y5334
X32512Y25400
T5
X32798Y2413
X34798Y2413
X36798Y2413
X42201Y5804
X42201Y7404
X41001Y5004
X41001Y6604
X41001Y8204
T6
X31750Y11430
X12700Y41910
X6350Y41910
M30