G04 EAGLE Gerber X2 export*
%TF.Part,Single*%
%TF.FileFunction,Legend,Bot,1*%
%TF.FilePolarity,Positive*%
%TF.GenerationSoftware,Autodesk,EAGLE,8.7.1*%
%TF.CreationDate,2018-04-16T05:42:20Z*%
G75*
%MOMM*%
%FSLAX34Y34*%
%LPD*%
%AMOC8*
5,1,8,0,0,1.08239X$1,22.5*%
G01*
%ADD10C,0.152400*%
%ADD11C,0.127000*%


D10*
X472124Y343803D02*
X467608Y343803D01*
X467608Y343804D02*
X467475Y343802D01*
X467343Y343796D01*
X467211Y343786D01*
X467079Y343773D01*
X466947Y343755D01*
X466817Y343734D01*
X466686Y343709D01*
X466557Y343680D01*
X466429Y343647D01*
X466301Y343611D01*
X466175Y343571D01*
X466050Y343527D01*
X465926Y343479D01*
X465804Y343428D01*
X465683Y343373D01*
X465564Y343315D01*
X465446Y343253D01*
X465331Y343188D01*
X465217Y343119D01*
X465106Y343048D01*
X464997Y342972D01*
X464890Y342894D01*
X464785Y342813D01*
X464683Y342728D01*
X464583Y342641D01*
X464486Y342551D01*
X464391Y342458D01*
X464300Y342362D01*
X464211Y342264D01*
X464125Y342163D01*
X464042Y342059D01*
X463962Y341953D01*
X463886Y341845D01*
X463812Y341735D01*
X463742Y341622D01*
X463675Y341508D01*
X463612Y341391D01*
X463552Y341273D01*
X463495Y341153D01*
X463442Y341031D01*
X463393Y340908D01*
X463347Y340784D01*
X463305Y340658D01*
X463267Y340531D01*
X463232Y340403D01*
X463201Y340274D01*
X463174Y340145D01*
X463151Y340014D01*
X463131Y339883D01*
X463116Y339751D01*
X463104Y339619D01*
X463096Y339487D01*
X463092Y339354D01*
X463092Y339222D01*
X463096Y339089D01*
X463104Y338957D01*
X463116Y338825D01*
X463131Y338693D01*
X463151Y338562D01*
X463174Y338431D01*
X463201Y338302D01*
X463232Y338173D01*
X463267Y338045D01*
X463305Y337918D01*
X463347Y337792D01*
X463393Y337668D01*
X463442Y337545D01*
X463495Y337423D01*
X463552Y337303D01*
X463612Y337185D01*
X463675Y337068D01*
X463742Y336954D01*
X463812Y336841D01*
X463886Y336731D01*
X463962Y336623D01*
X464042Y336517D01*
X464125Y336413D01*
X464211Y336312D01*
X464300Y336214D01*
X464391Y336118D01*
X464486Y336025D01*
X464583Y335935D01*
X464683Y335848D01*
X464785Y335763D01*
X464890Y335682D01*
X464997Y335604D01*
X465106Y335528D01*
X465217Y335457D01*
X465331Y335388D01*
X465446Y335323D01*
X465564Y335261D01*
X465683Y335203D01*
X465804Y335148D01*
X465926Y335097D01*
X466050Y335049D01*
X466175Y335005D01*
X466301Y334965D01*
X466429Y334929D01*
X466557Y334896D01*
X466686Y334867D01*
X466817Y334842D01*
X466947Y334821D01*
X467079Y334803D01*
X467211Y334790D01*
X467343Y334780D01*
X467475Y334774D01*
X467608Y334772D01*
X472124Y334772D01*
X472124Y351028D01*
X467608Y351028D01*
X467489Y351026D01*
X467369Y351020D01*
X467250Y351010D01*
X467132Y350996D01*
X467013Y350979D01*
X466896Y350957D01*
X466779Y350932D01*
X466664Y350902D01*
X466549Y350869D01*
X466435Y350832D01*
X466323Y350792D01*
X466212Y350747D01*
X466103Y350699D01*
X465995Y350648D01*
X465889Y350593D01*
X465785Y350534D01*
X465683Y350472D01*
X465583Y350407D01*
X465485Y350338D01*
X465389Y350266D01*
X465296Y350191D01*
X465206Y350114D01*
X465118Y350033D01*
X465033Y349949D01*
X464951Y349862D01*
X464871Y349773D01*
X464795Y349681D01*
X464721Y349587D01*
X464651Y349490D01*
X464584Y349392D01*
X464520Y349291D01*
X464460Y349187D01*
X464403Y349082D01*
X464350Y348975D01*
X464300Y348867D01*
X464254Y348757D01*
X464212Y348645D01*
X464173Y348532D01*
X464138Y348418D01*
X464107Y348303D01*
X464079Y348186D01*
X464056Y348069D01*
X464036Y347952D01*
X464020Y347833D01*
X464008Y347714D01*
X464000Y347595D01*
X463996Y347476D01*
X463996Y347356D01*
X464000Y347237D01*
X464008Y347118D01*
X464020Y346999D01*
X464036Y346880D01*
X464056Y346763D01*
X464079Y346646D01*
X464107Y346529D01*
X464138Y346414D01*
X464173Y346300D01*
X464212Y346187D01*
X464254Y346075D01*
X464300Y345965D01*
X464350Y345857D01*
X464403Y345750D01*
X464460Y345645D01*
X464520Y345541D01*
X464584Y345440D01*
X464651Y345342D01*
X464721Y345245D01*
X464795Y345151D01*
X464871Y345059D01*
X464951Y344970D01*
X465033Y344883D01*
X465118Y344799D01*
X465206Y344718D01*
X465296Y344641D01*
X465389Y344566D01*
X465485Y344494D01*
X465583Y344425D01*
X465683Y344360D01*
X465785Y344298D01*
X465889Y344239D01*
X465995Y344184D01*
X466103Y344133D01*
X466212Y344085D01*
X466323Y344040D01*
X466435Y344000D01*
X466549Y343963D01*
X466664Y343930D01*
X466779Y343900D01*
X466896Y343875D01*
X467013Y343853D01*
X467132Y343836D01*
X467250Y343822D01*
X467369Y343812D01*
X467489Y343806D01*
X467608Y343804D01*
X457224Y347416D02*
X452709Y351028D01*
X452709Y334772D01*
X457224Y334772D02*
X448193Y334772D01*
X441593Y334772D02*
X436174Y334772D01*
X436056Y334774D01*
X435938Y334780D01*
X435820Y334789D01*
X435703Y334803D01*
X435586Y334820D01*
X435469Y334841D01*
X435354Y334866D01*
X435239Y334895D01*
X435125Y334928D01*
X435013Y334964D01*
X434902Y335004D01*
X434792Y335047D01*
X434683Y335094D01*
X434576Y335144D01*
X434471Y335199D01*
X434368Y335256D01*
X434267Y335317D01*
X434167Y335381D01*
X434070Y335448D01*
X433975Y335518D01*
X433883Y335592D01*
X433792Y335668D01*
X433705Y335748D01*
X433620Y335830D01*
X433538Y335915D01*
X433458Y336002D01*
X433382Y336093D01*
X433308Y336185D01*
X433238Y336280D01*
X433171Y336377D01*
X433107Y336477D01*
X433046Y336578D01*
X432989Y336681D01*
X432934Y336786D01*
X432884Y336893D01*
X432837Y337002D01*
X432794Y337112D01*
X432754Y337223D01*
X432718Y337335D01*
X432685Y337449D01*
X432656Y337564D01*
X432631Y337679D01*
X432610Y337796D01*
X432593Y337913D01*
X432579Y338030D01*
X432570Y338148D01*
X432564Y338266D01*
X432562Y338384D01*
X432562Y340191D01*
X432564Y340309D01*
X432570Y340427D01*
X432579Y340545D01*
X432593Y340662D01*
X432610Y340779D01*
X432631Y340896D01*
X432656Y341011D01*
X432685Y341126D01*
X432718Y341240D01*
X432754Y341352D01*
X432794Y341463D01*
X432837Y341573D01*
X432884Y341682D01*
X432934Y341789D01*
X432989Y341894D01*
X433046Y341997D01*
X433107Y342098D01*
X433171Y342198D01*
X433238Y342295D01*
X433308Y342390D01*
X433382Y342482D01*
X433458Y342573D01*
X433538Y342660D01*
X433620Y342745D01*
X433705Y342827D01*
X433792Y342907D01*
X433883Y342983D01*
X433975Y343057D01*
X434070Y343127D01*
X434167Y343194D01*
X434267Y343258D01*
X434368Y343319D01*
X434471Y343376D01*
X434576Y343431D01*
X434683Y343481D01*
X434792Y343528D01*
X434902Y343571D01*
X435013Y343611D01*
X435125Y343647D01*
X435239Y343680D01*
X435354Y343709D01*
X435469Y343734D01*
X435586Y343755D01*
X435703Y343772D01*
X435820Y343786D01*
X435938Y343795D01*
X436056Y343801D01*
X436174Y343803D01*
X441593Y343803D01*
X441593Y351028D01*
X432562Y351028D01*
X467608Y319673D02*
X472124Y319673D01*
X467608Y319674D02*
X467475Y319672D01*
X467343Y319666D01*
X467211Y319656D01*
X467079Y319643D01*
X466947Y319625D01*
X466817Y319604D01*
X466686Y319579D01*
X466557Y319550D01*
X466429Y319517D01*
X466301Y319481D01*
X466175Y319441D01*
X466050Y319397D01*
X465926Y319349D01*
X465804Y319298D01*
X465683Y319243D01*
X465564Y319185D01*
X465446Y319123D01*
X465331Y319058D01*
X465217Y318989D01*
X465106Y318918D01*
X464997Y318842D01*
X464890Y318764D01*
X464785Y318683D01*
X464683Y318598D01*
X464583Y318511D01*
X464486Y318421D01*
X464391Y318328D01*
X464300Y318232D01*
X464211Y318134D01*
X464125Y318033D01*
X464042Y317929D01*
X463962Y317823D01*
X463886Y317715D01*
X463812Y317605D01*
X463742Y317492D01*
X463675Y317378D01*
X463612Y317261D01*
X463552Y317143D01*
X463495Y317023D01*
X463442Y316901D01*
X463393Y316778D01*
X463347Y316654D01*
X463305Y316528D01*
X463267Y316401D01*
X463232Y316273D01*
X463201Y316144D01*
X463174Y316015D01*
X463151Y315884D01*
X463131Y315753D01*
X463116Y315621D01*
X463104Y315489D01*
X463096Y315357D01*
X463092Y315224D01*
X463092Y315092D01*
X463096Y314959D01*
X463104Y314827D01*
X463116Y314695D01*
X463131Y314563D01*
X463151Y314432D01*
X463174Y314301D01*
X463201Y314172D01*
X463232Y314043D01*
X463267Y313915D01*
X463305Y313788D01*
X463347Y313662D01*
X463393Y313538D01*
X463442Y313415D01*
X463495Y313293D01*
X463552Y313173D01*
X463612Y313055D01*
X463675Y312938D01*
X463742Y312824D01*
X463812Y312711D01*
X463886Y312601D01*
X463962Y312493D01*
X464042Y312387D01*
X464125Y312283D01*
X464211Y312182D01*
X464300Y312084D01*
X464391Y311988D01*
X464486Y311895D01*
X464583Y311805D01*
X464683Y311718D01*
X464785Y311633D01*
X464890Y311552D01*
X464997Y311474D01*
X465106Y311398D01*
X465217Y311327D01*
X465331Y311258D01*
X465446Y311193D01*
X465564Y311131D01*
X465683Y311073D01*
X465804Y311018D01*
X465926Y310967D01*
X466050Y310919D01*
X466175Y310875D01*
X466301Y310835D01*
X466429Y310799D01*
X466557Y310766D01*
X466686Y310737D01*
X466817Y310712D01*
X466947Y310691D01*
X467079Y310673D01*
X467211Y310660D01*
X467343Y310650D01*
X467475Y310644D01*
X467608Y310642D01*
X472124Y310642D01*
X472124Y326898D01*
X467608Y326898D01*
X467489Y326896D01*
X467369Y326890D01*
X467250Y326880D01*
X467132Y326866D01*
X467013Y326849D01*
X466896Y326827D01*
X466779Y326802D01*
X466664Y326772D01*
X466549Y326739D01*
X466435Y326702D01*
X466323Y326662D01*
X466212Y326617D01*
X466103Y326569D01*
X465995Y326518D01*
X465889Y326463D01*
X465785Y326404D01*
X465683Y326342D01*
X465583Y326277D01*
X465485Y326208D01*
X465389Y326136D01*
X465296Y326061D01*
X465206Y325984D01*
X465118Y325903D01*
X465033Y325819D01*
X464951Y325732D01*
X464871Y325643D01*
X464795Y325551D01*
X464721Y325457D01*
X464651Y325360D01*
X464584Y325262D01*
X464520Y325161D01*
X464460Y325057D01*
X464403Y324952D01*
X464350Y324845D01*
X464300Y324737D01*
X464254Y324627D01*
X464212Y324515D01*
X464173Y324402D01*
X464138Y324288D01*
X464107Y324173D01*
X464079Y324056D01*
X464056Y323939D01*
X464036Y323822D01*
X464020Y323703D01*
X464008Y323584D01*
X464000Y323465D01*
X463996Y323346D01*
X463996Y323226D01*
X464000Y323107D01*
X464008Y322988D01*
X464020Y322869D01*
X464036Y322750D01*
X464056Y322633D01*
X464079Y322516D01*
X464107Y322399D01*
X464138Y322284D01*
X464173Y322170D01*
X464212Y322057D01*
X464254Y321945D01*
X464300Y321835D01*
X464350Y321727D01*
X464403Y321620D01*
X464460Y321515D01*
X464520Y321411D01*
X464584Y321310D01*
X464651Y321212D01*
X464721Y321115D01*
X464795Y321021D01*
X464871Y320929D01*
X464951Y320840D01*
X465033Y320753D01*
X465118Y320669D01*
X465206Y320588D01*
X465296Y320511D01*
X465389Y320436D01*
X465485Y320364D01*
X465583Y320295D01*
X465683Y320230D01*
X465785Y320168D01*
X465889Y320109D01*
X465995Y320054D01*
X466103Y320003D01*
X466212Y319955D01*
X466323Y319910D01*
X466435Y319870D01*
X466549Y319833D01*
X466664Y319800D01*
X466779Y319770D01*
X466896Y319745D01*
X467013Y319723D01*
X467132Y319706D01*
X467250Y319692D01*
X467369Y319682D01*
X467489Y319676D01*
X467608Y319674D01*
X457224Y323286D02*
X452709Y326898D01*
X452709Y310642D01*
X457224Y310642D02*
X448193Y310642D01*
X441593Y314254D02*
X437981Y326898D01*
X441593Y314254D02*
X432562Y314254D01*
X435271Y317867D02*
X435271Y310642D01*
X467608Y291733D02*
X472124Y291733D01*
X467608Y291734D02*
X467475Y291732D01*
X467343Y291726D01*
X467211Y291716D01*
X467079Y291703D01*
X466947Y291685D01*
X466817Y291664D01*
X466686Y291639D01*
X466557Y291610D01*
X466429Y291577D01*
X466301Y291541D01*
X466175Y291501D01*
X466050Y291457D01*
X465926Y291409D01*
X465804Y291358D01*
X465683Y291303D01*
X465564Y291245D01*
X465446Y291183D01*
X465331Y291118D01*
X465217Y291049D01*
X465106Y290978D01*
X464997Y290902D01*
X464890Y290824D01*
X464785Y290743D01*
X464683Y290658D01*
X464583Y290571D01*
X464486Y290481D01*
X464391Y290388D01*
X464300Y290292D01*
X464211Y290194D01*
X464125Y290093D01*
X464042Y289989D01*
X463962Y289883D01*
X463886Y289775D01*
X463812Y289665D01*
X463742Y289552D01*
X463675Y289438D01*
X463612Y289321D01*
X463552Y289203D01*
X463495Y289083D01*
X463442Y288961D01*
X463393Y288838D01*
X463347Y288714D01*
X463305Y288588D01*
X463267Y288461D01*
X463232Y288333D01*
X463201Y288204D01*
X463174Y288075D01*
X463151Y287944D01*
X463131Y287813D01*
X463116Y287681D01*
X463104Y287549D01*
X463096Y287417D01*
X463092Y287284D01*
X463092Y287152D01*
X463096Y287019D01*
X463104Y286887D01*
X463116Y286755D01*
X463131Y286623D01*
X463151Y286492D01*
X463174Y286361D01*
X463201Y286232D01*
X463232Y286103D01*
X463267Y285975D01*
X463305Y285848D01*
X463347Y285722D01*
X463393Y285598D01*
X463442Y285475D01*
X463495Y285353D01*
X463552Y285233D01*
X463612Y285115D01*
X463675Y284998D01*
X463742Y284884D01*
X463812Y284771D01*
X463886Y284661D01*
X463962Y284553D01*
X464042Y284447D01*
X464125Y284343D01*
X464211Y284242D01*
X464300Y284144D01*
X464391Y284048D01*
X464486Y283955D01*
X464583Y283865D01*
X464683Y283778D01*
X464785Y283693D01*
X464890Y283612D01*
X464997Y283534D01*
X465106Y283458D01*
X465217Y283387D01*
X465331Y283318D01*
X465446Y283253D01*
X465564Y283191D01*
X465683Y283133D01*
X465804Y283078D01*
X465926Y283027D01*
X466050Y282979D01*
X466175Y282935D01*
X466301Y282895D01*
X466429Y282859D01*
X466557Y282826D01*
X466686Y282797D01*
X466817Y282772D01*
X466947Y282751D01*
X467079Y282733D01*
X467211Y282720D01*
X467343Y282710D01*
X467475Y282704D01*
X467608Y282702D01*
X472124Y282702D01*
X472124Y298958D01*
X467608Y298958D01*
X467489Y298956D01*
X467369Y298950D01*
X467250Y298940D01*
X467132Y298926D01*
X467013Y298909D01*
X466896Y298887D01*
X466779Y298862D01*
X466664Y298832D01*
X466549Y298799D01*
X466435Y298762D01*
X466323Y298722D01*
X466212Y298677D01*
X466103Y298629D01*
X465995Y298578D01*
X465889Y298523D01*
X465785Y298464D01*
X465683Y298402D01*
X465583Y298337D01*
X465485Y298268D01*
X465389Y298196D01*
X465296Y298121D01*
X465206Y298044D01*
X465118Y297963D01*
X465033Y297879D01*
X464951Y297792D01*
X464871Y297703D01*
X464795Y297611D01*
X464721Y297517D01*
X464651Y297420D01*
X464584Y297322D01*
X464520Y297221D01*
X464460Y297117D01*
X464403Y297012D01*
X464350Y296905D01*
X464300Y296797D01*
X464254Y296687D01*
X464212Y296575D01*
X464173Y296462D01*
X464138Y296348D01*
X464107Y296233D01*
X464079Y296116D01*
X464056Y295999D01*
X464036Y295882D01*
X464020Y295763D01*
X464008Y295644D01*
X464000Y295525D01*
X463996Y295406D01*
X463996Y295286D01*
X464000Y295167D01*
X464008Y295048D01*
X464020Y294929D01*
X464036Y294810D01*
X464056Y294693D01*
X464079Y294576D01*
X464107Y294459D01*
X464138Y294344D01*
X464173Y294230D01*
X464212Y294117D01*
X464254Y294005D01*
X464300Y293895D01*
X464350Y293787D01*
X464403Y293680D01*
X464460Y293575D01*
X464520Y293471D01*
X464584Y293370D01*
X464651Y293272D01*
X464721Y293175D01*
X464795Y293081D01*
X464871Y292989D01*
X464951Y292900D01*
X465033Y292813D01*
X465118Y292729D01*
X465206Y292648D01*
X465296Y292571D01*
X465389Y292496D01*
X465485Y292424D01*
X465583Y292355D01*
X465683Y292290D01*
X465785Y292228D01*
X465889Y292169D01*
X465995Y292114D01*
X466103Y292063D01*
X466212Y292015D01*
X466323Y291970D01*
X466435Y291930D01*
X466549Y291893D01*
X466664Y291860D01*
X466779Y291830D01*
X466896Y291805D01*
X467013Y291783D01*
X467132Y291766D01*
X467250Y291752D01*
X467369Y291742D01*
X467489Y291736D01*
X467608Y291734D01*
X457224Y295346D02*
X452709Y298958D01*
X452709Y282702D01*
X457224Y282702D02*
X448193Y282702D01*
X441593Y282702D02*
X437078Y282702D01*
X436945Y282704D01*
X436813Y282710D01*
X436681Y282720D01*
X436549Y282733D01*
X436417Y282751D01*
X436287Y282772D01*
X436156Y282797D01*
X436027Y282826D01*
X435899Y282859D01*
X435771Y282895D01*
X435645Y282935D01*
X435520Y282979D01*
X435396Y283027D01*
X435274Y283078D01*
X435153Y283133D01*
X435034Y283191D01*
X434916Y283253D01*
X434801Y283318D01*
X434687Y283387D01*
X434576Y283458D01*
X434467Y283534D01*
X434360Y283612D01*
X434255Y283693D01*
X434153Y283778D01*
X434053Y283865D01*
X433956Y283955D01*
X433861Y284048D01*
X433770Y284144D01*
X433681Y284242D01*
X433595Y284343D01*
X433512Y284447D01*
X433432Y284553D01*
X433356Y284661D01*
X433282Y284771D01*
X433212Y284884D01*
X433145Y284998D01*
X433082Y285115D01*
X433022Y285233D01*
X432965Y285353D01*
X432912Y285475D01*
X432863Y285598D01*
X432817Y285722D01*
X432775Y285848D01*
X432737Y285975D01*
X432702Y286103D01*
X432671Y286232D01*
X432644Y286361D01*
X432621Y286492D01*
X432601Y286623D01*
X432586Y286755D01*
X432574Y286887D01*
X432566Y287019D01*
X432562Y287152D01*
X432562Y287284D01*
X432566Y287417D01*
X432574Y287549D01*
X432586Y287681D01*
X432601Y287813D01*
X432621Y287944D01*
X432644Y288075D01*
X432671Y288204D01*
X432702Y288333D01*
X432737Y288461D01*
X432775Y288588D01*
X432817Y288714D01*
X432863Y288838D01*
X432912Y288961D01*
X432965Y289083D01*
X433022Y289203D01*
X433082Y289321D01*
X433145Y289438D01*
X433212Y289552D01*
X433282Y289665D01*
X433356Y289775D01*
X433432Y289883D01*
X433512Y289989D01*
X433595Y290093D01*
X433681Y290194D01*
X433770Y290292D01*
X433861Y290388D01*
X433956Y290481D01*
X434053Y290571D01*
X434153Y290658D01*
X434255Y290743D01*
X434360Y290824D01*
X434467Y290902D01*
X434576Y290978D01*
X434687Y291049D01*
X434801Y291118D01*
X434916Y291183D01*
X435034Y291245D01*
X435153Y291303D01*
X435274Y291358D01*
X435396Y291409D01*
X435520Y291457D01*
X435645Y291501D01*
X435771Y291541D01*
X435899Y291577D01*
X436027Y291610D01*
X436156Y291639D01*
X436287Y291664D01*
X436417Y291685D01*
X436549Y291703D01*
X436681Y291716D01*
X436813Y291726D01*
X436945Y291732D01*
X437078Y291734D01*
X436174Y298958D02*
X441593Y298958D01*
X436174Y298958D02*
X436055Y298956D01*
X435935Y298950D01*
X435816Y298940D01*
X435698Y298926D01*
X435579Y298909D01*
X435462Y298887D01*
X435345Y298862D01*
X435230Y298832D01*
X435115Y298799D01*
X435001Y298762D01*
X434889Y298722D01*
X434778Y298677D01*
X434669Y298629D01*
X434561Y298578D01*
X434455Y298523D01*
X434351Y298464D01*
X434249Y298402D01*
X434149Y298337D01*
X434051Y298268D01*
X433955Y298196D01*
X433862Y298121D01*
X433772Y298044D01*
X433684Y297963D01*
X433599Y297879D01*
X433517Y297792D01*
X433437Y297703D01*
X433361Y297611D01*
X433287Y297517D01*
X433217Y297420D01*
X433150Y297322D01*
X433086Y297221D01*
X433026Y297117D01*
X432969Y297012D01*
X432916Y296905D01*
X432866Y296797D01*
X432820Y296687D01*
X432778Y296575D01*
X432739Y296462D01*
X432704Y296348D01*
X432673Y296233D01*
X432645Y296116D01*
X432622Y295999D01*
X432602Y295882D01*
X432586Y295763D01*
X432574Y295644D01*
X432566Y295525D01*
X432562Y295406D01*
X432562Y295286D01*
X432566Y295167D01*
X432574Y295048D01*
X432586Y294929D01*
X432602Y294810D01*
X432622Y294693D01*
X432645Y294576D01*
X432673Y294459D01*
X432704Y294344D01*
X432739Y294230D01*
X432778Y294117D01*
X432820Y294005D01*
X432866Y293895D01*
X432916Y293787D01*
X432969Y293680D01*
X433026Y293575D01*
X433086Y293471D01*
X433150Y293370D01*
X433217Y293272D01*
X433287Y293175D01*
X433361Y293081D01*
X433437Y292989D01*
X433517Y292900D01*
X433599Y292813D01*
X433684Y292729D01*
X433772Y292648D01*
X433862Y292571D01*
X433955Y292496D01*
X434051Y292424D01*
X434149Y292355D01*
X434249Y292290D01*
X434351Y292228D01*
X434455Y292169D01*
X434561Y292114D01*
X434669Y292063D01*
X434778Y292015D01*
X434889Y291970D01*
X435001Y291930D01*
X435115Y291893D01*
X435230Y291860D01*
X435345Y291830D01*
X435462Y291805D01*
X435579Y291783D01*
X435698Y291766D01*
X435816Y291752D01*
X435935Y291742D01*
X436055Y291736D01*
X436174Y291734D01*
X436174Y291733D02*
X439787Y291733D01*
X464677Y267603D02*
X469192Y267603D01*
X464677Y267604D02*
X464544Y267602D01*
X464412Y267596D01*
X464280Y267586D01*
X464148Y267573D01*
X464016Y267555D01*
X463886Y267534D01*
X463755Y267509D01*
X463626Y267480D01*
X463498Y267447D01*
X463370Y267411D01*
X463244Y267371D01*
X463119Y267327D01*
X462995Y267279D01*
X462873Y267228D01*
X462752Y267173D01*
X462633Y267115D01*
X462515Y267053D01*
X462400Y266988D01*
X462286Y266919D01*
X462175Y266848D01*
X462066Y266772D01*
X461959Y266694D01*
X461854Y266613D01*
X461752Y266528D01*
X461652Y266441D01*
X461555Y266351D01*
X461460Y266258D01*
X461369Y266162D01*
X461280Y266064D01*
X461194Y265963D01*
X461111Y265859D01*
X461031Y265753D01*
X460955Y265645D01*
X460881Y265535D01*
X460811Y265422D01*
X460744Y265308D01*
X460681Y265191D01*
X460621Y265073D01*
X460564Y264953D01*
X460511Y264831D01*
X460462Y264708D01*
X460416Y264584D01*
X460374Y264458D01*
X460336Y264331D01*
X460301Y264203D01*
X460270Y264074D01*
X460243Y263945D01*
X460220Y263814D01*
X460200Y263683D01*
X460185Y263551D01*
X460173Y263419D01*
X460165Y263287D01*
X460161Y263154D01*
X460161Y263022D01*
X460165Y262889D01*
X460173Y262757D01*
X460185Y262625D01*
X460200Y262493D01*
X460220Y262362D01*
X460243Y262231D01*
X460270Y262102D01*
X460301Y261973D01*
X460336Y261845D01*
X460374Y261718D01*
X460416Y261592D01*
X460462Y261468D01*
X460511Y261345D01*
X460564Y261223D01*
X460621Y261103D01*
X460681Y260985D01*
X460744Y260868D01*
X460811Y260754D01*
X460881Y260641D01*
X460955Y260531D01*
X461031Y260423D01*
X461111Y260317D01*
X461194Y260213D01*
X461280Y260112D01*
X461369Y260014D01*
X461460Y259918D01*
X461555Y259825D01*
X461652Y259735D01*
X461752Y259648D01*
X461854Y259563D01*
X461959Y259482D01*
X462066Y259404D01*
X462175Y259328D01*
X462286Y259257D01*
X462400Y259188D01*
X462515Y259123D01*
X462633Y259061D01*
X462752Y259003D01*
X462873Y258948D01*
X462995Y258897D01*
X463119Y258849D01*
X463244Y258805D01*
X463370Y258765D01*
X463498Y258729D01*
X463626Y258696D01*
X463755Y258667D01*
X463886Y258642D01*
X464016Y258621D01*
X464148Y258603D01*
X464280Y258590D01*
X464412Y258580D01*
X464544Y258574D01*
X464677Y258572D01*
X469192Y258572D01*
X469192Y274828D01*
X464677Y274828D01*
X464558Y274826D01*
X464438Y274820D01*
X464319Y274810D01*
X464201Y274796D01*
X464082Y274779D01*
X463965Y274757D01*
X463848Y274732D01*
X463733Y274702D01*
X463618Y274669D01*
X463504Y274632D01*
X463392Y274592D01*
X463281Y274547D01*
X463172Y274499D01*
X463064Y274448D01*
X462958Y274393D01*
X462854Y274334D01*
X462752Y274272D01*
X462652Y274207D01*
X462554Y274138D01*
X462458Y274066D01*
X462365Y273991D01*
X462275Y273914D01*
X462187Y273833D01*
X462102Y273749D01*
X462020Y273662D01*
X461940Y273573D01*
X461864Y273481D01*
X461790Y273387D01*
X461720Y273290D01*
X461653Y273192D01*
X461589Y273091D01*
X461529Y272987D01*
X461472Y272882D01*
X461419Y272775D01*
X461369Y272667D01*
X461323Y272557D01*
X461281Y272445D01*
X461242Y272332D01*
X461207Y272218D01*
X461176Y272103D01*
X461148Y271986D01*
X461125Y271869D01*
X461105Y271752D01*
X461089Y271633D01*
X461077Y271514D01*
X461069Y271395D01*
X461065Y271276D01*
X461065Y271156D01*
X461069Y271037D01*
X461077Y270918D01*
X461089Y270799D01*
X461105Y270680D01*
X461125Y270563D01*
X461148Y270446D01*
X461176Y270329D01*
X461207Y270214D01*
X461242Y270100D01*
X461281Y269987D01*
X461323Y269875D01*
X461369Y269765D01*
X461419Y269657D01*
X461472Y269550D01*
X461529Y269445D01*
X461589Y269341D01*
X461653Y269240D01*
X461720Y269142D01*
X461790Y269045D01*
X461864Y268951D01*
X461940Y268859D01*
X462020Y268770D01*
X462102Y268683D01*
X462187Y268599D01*
X462275Y268518D01*
X462365Y268441D01*
X462458Y268366D01*
X462554Y268294D01*
X462652Y268225D01*
X462752Y268160D01*
X462854Y268098D01*
X462958Y268039D01*
X463064Y267984D01*
X463172Y267933D01*
X463281Y267885D01*
X463392Y267840D01*
X463504Y267800D01*
X463618Y267763D01*
X463733Y267730D01*
X463848Y267700D01*
X463965Y267675D01*
X464082Y267653D01*
X464201Y267636D01*
X464319Y267622D01*
X464438Y267612D01*
X464558Y267606D01*
X464677Y267604D01*
X450681Y265797D02*
X445262Y265797D01*
X450681Y265797D02*
X450799Y265799D01*
X450917Y265805D01*
X451035Y265814D01*
X451152Y265828D01*
X451269Y265845D01*
X451386Y265866D01*
X451501Y265891D01*
X451616Y265920D01*
X451730Y265953D01*
X451842Y265989D01*
X451953Y266029D01*
X452063Y266072D01*
X452172Y266119D01*
X452279Y266169D01*
X452384Y266224D01*
X452487Y266281D01*
X452588Y266342D01*
X452688Y266406D01*
X452785Y266473D01*
X452880Y266543D01*
X452972Y266617D01*
X453063Y266693D01*
X453150Y266773D01*
X453235Y266855D01*
X453317Y266940D01*
X453397Y267027D01*
X453473Y267118D01*
X453547Y267210D01*
X453617Y267305D01*
X453684Y267402D01*
X453748Y267502D01*
X453809Y267603D01*
X453866Y267706D01*
X453921Y267811D01*
X453971Y267918D01*
X454018Y268027D01*
X454061Y268137D01*
X454101Y268248D01*
X454137Y268360D01*
X454170Y268474D01*
X454199Y268589D01*
X454224Y268704D01*
X454245Y268821D01*
X454262Y268938D01*
X454276Y269055D01*
X454285Y269173D01*
X454291Y269291D01*
X454293Y269409D01*
X454293Y270312D01*
X454294Y270312D02*
X454292Y270445D01*
X454286Y270577D01*
X454276Y270709D01*
X454263Y270841D01*
X454245Y270973D01*
X454224Y271103D01*
X454199Y271234D01*
X454170Y271363D01*
X454137Y271491D01*
X454101Y271619D01*
X454061Y271745D01*
X454017Y271870D01*
X453969Y271994D01*
X453918Y272116D01*
X453863Y272237D01*
X453805Y272356D01*
X453743Y272474D01*
X453678Y272589D01*
X453609Y272703D01*
X453538Y272814D01*
X453462Y272923D01*
X453384Y273030D01*
X453303Y273135D01*
X453218Y273237D01*
X453131Y273337D01*
X453041Y273434D01*
X452948Y273529D01*
X452852Y273620D01*
X452754Y273709D01*
X452653Y273795D01*
X452549Y273878D01*
X452443Y273958D01*
X452335Y274034D01*
X452225Y274108D01*
X452112Y274178D01*
X451998Y274245D01*
X451881Y274308D01*
X451763Y274368D01*
X451643Y274425D01*
X451521Y274478D01*
X451398Y274527D01*
X451274Y274573D01*
X451148Y274615D01*
X451021Y274653D01*
X450893Y274688D01*
X450764Y274719D01*
X450635Y274746D01*
X450504Y274769D01*
X450373Y274789D01*
X450241Y274804D01*
X450109Y274816D01*
X449977Y274824D01*
X449844Y274828D01*
X449712Y274828D01*
X449579Y274824D01*
X449447Y274816D01*
X449315Y274804D01*
X449183Y274789D01*
X449052Y274769D01*
X448921Y274746D01*
X448792Y274719D01*
X448663Y274688D01*
X448535Y274653D01*
X448408Y274615D01*
X448282Y274573D01*
X448158Y274527D01*
X448035Y274478D01*
X447913Y274425D01*
X447793Y274368D01*
X447675Y274308D01*
X447558Y274245D01*
X447444Y274178D01*
X447331Y274108D01*
X447221Y274034D01*
X447113Y273958D01*
X447007Y273878D01*
X446903Y273795D01*
X446802Y273709D01*
X446704Y273620D01*
X446608Y273529D01*
X446515Y273434D01*
X446425Y273337D01*
X446338Y273237D01*
X446253Y273135D01*
X446172Y273030D01*
X446094Y272923D01*
X446018Y272814D01*
X445947Y272703D01*
X445878Y272589D01*
X445813Y272474D01*
X445751Y272356D01*
X445693Y272237D01*
X445638Y272116D01*
X445587Y271994D01*
X445539Y271870D01*
X445495Y271745D01*
X445455Y271619D01*
X445419Y271491D01*
X445386Y271363D01*
X445357Y271234D01*
X445332Y271103D01*
X445311Y270973D01*
X445293Y270841D01*
X445280Y270709D01*
X445270Y270577D01*
X445264Y270445D01*
X445262Y270312D01*
X445262Y265797D01*
X445264Y265622D01*
X445270Y265448D01*
X445281Y265274D01*
X445296Y265100D01*
X445315Y264926D01*
X445338Y264753D01*
X445365Y264581D01*
X445397Y264409D01*
X445432Y264238D01*
X445472Y264068D01*
X445516Y263899D01*
X445564Y263731D01*
X445616Y263564D01*
X445672Y263399D01*
X445732Y263235D01*
X445795Y263072D01*
X445863Y262912D01*
X445935Y262752D01*
X446010Y262595D01*
X446090Y262439D01*
X446173Y262286D01*
X446259Y262134D01*
X446350Y261985D01*
X446444Y261838D01*
X446541Y261693D01*
X446642Y261550D01*
X446746Y261410D01*
X446854Y261273D01*
X446965Y261138D01*
X447079Y261006D01*
X447196Y260877D01*
X447317Y260750D01*
X447440Y260627D01*
X447567Y260506D01*
X447696Y260389D01*
X447828Y260275D01*
X447963Y260164D01*
X448100Y260056D01*
X448240Y259952D01*
X448383Y259851D01*
X448528Y259754D01*
X448675Y259660D01*
X448824Y259569D01*
X448976Y259483D01*
X449129Y259400D01*
X449285Y259320D01*
X449442Y259245D01*
X449602Y259173D01*
X449762Y259105D01*
X449925Y259042D01*
X450089Y258982D01*
X450254Y258926D01*
X450421Y258874D01*
X450589Y258826D01*
X450758Y258782D01*
X450928Y258742D01*
X451099Y258707D01*
X451271Y258675D01*
X451443Y258648D01*
X451616Y258625D01*
X451790Y258606D01*
X451964Y258591D01*
X452138Y258580D01*
X452312Y258574D01*
X452487Y258572D01*
X464677Y240933D02*
X469192Y240933D01*
X464677Y240934D02*
X464544Y240932D01*
X464412Y240926D01*
X464280Y240916D01*
X464148Y240903D01*
X464016Y240885D01*
X463886Y240864D01*
X463755Y240839D01*
X463626Y240810D01*
X463498Y240777D01*
X463370Y240741D01*
X463244Y240701D01*
X463119Y240657D01*
X462995Y240609D01*
X462873Y240558D01*
X462752Y240503D01*
X462633Y240445D01*
X462515Y240383D01*
X462400Y240318D01*
X462286Y240249D01*
X462175Y240178D01*
X462066Y240102D01*
X461959Y240024D01*
X461854Y239943D01*
X461752Y239858D01*
X461652Y239771D01*
X461555Y239681D01*
X461460Y239588D01*
X461369Y239492D01*
X461280Y239394D01*
X461194Y239293D01*
X461111Y239189D01*
X461031Y239083D01*
X460955Y238975D01*
X460881Y238865D01*
X460811Y238752D01*
X460744Y238638D01*
X460681Y238521D01*
X460621Y238403D01*
X460564Y238283D01*
X460511Y238161D01*
X460462Y238038D01*
X460416Y237914D01*
X460374Y237788D01*
X460336Y237661D01*
X460301Y237533D01*
X460270Y237404D01*
X460243Y237275D01*
X460220Y237144D01*
X460200Y237013D01*
X460185Y236881D01*
X460173Y236749D01*
X460165Y236617D01*
X460161Y236484D01*
X460161Y236352D01*
X460165Y236219D01*
X460173Y236087D01*
X460185Y235955D01*
X460200Y235823D01*
X460220Y235692D01*
X460243Y235561D01*
X460270Y235432D01*
X460301Y235303D01*
X460336Y235175D01*
X460374Y235048D01*
X460416Y234922D01*
X460462Y234798D01*
X460511Y234675D01*
X460564Y234553D01*
X460621Y234433D01*
X460681Y234315D01*
X460744Y234198D01*
X460811Y234084D01*
X460881Y233971D01*
X460955Y233861D01*
X461031Y233753D01*
X461111Y233647D01*
X461194Y233543D01*
X461280Y233442D01*
X461369Y233344D01*
X461460Y233248D01*
X461555Y233155D01*
X461652Y233065D01*
X461752Y232978D01*
X461854Y232893D01*
X461959Y232812D01*
X462066Y232734D01*
X462175Y232658D01*
X462286Y232587D01*
X462400Y232518D01*
X462515Y232453D01*
X462633Y232391D01*
X462752Y232333D01*
X462873Y232278D01*
X462995Y232227D01*
X463119Y232179D01*
X463244Y232135D01*
X463370Y232095D01*
X463498Y232059D01*
X463626Y232026D01*
X463755Y231997D01*
X463886Y231972D01*
X464016Y231951D01*
X464148Y231933D01*
X464280Y231920D01*
X464412Y231910D01*
X464544Y231904D01*
X464677Y231902D01*
X469192Y231902D01*
X469192Y248158D01*
X464677Y248158D01*
X464558Y248156D01*
X464438Y248150D01*
X464319Y248140D01*
X464201Y248126D01*
X464082Y248109D01*
X463965Y248087D01*
X463848Y248062D01*
X463733Y248032D01*
X463618Y247999D01*
X463504Y247962D01*
X463392Y247922D01*
X463281Y247877D01*
X463172Y247829D01*
X463064Y247778D01*
X462958Y247723D01*
X462854Y247664D01*
X462752Y247602D01*
X462652Y247537D01*
X462554Y247468D01*
X462458Y247396D01*
X462365Y247321D01*
X462275Y247244D01*
X462187Y247163D01*
X462102Y247079D01*
X462020Y246992D01*
X461940Y246903D01*
X461864Y246811D01*
X461790Y246717D01*
X461720Y246620D01*
X461653Y246522D01*
X461589Y246421D01*
X461529Y246317D01*
X461472Y246212D01*
X461419Y246105D01*
X461369Y245997D01*
X461323Y245887D01*
X461281Y245775D01*
X461242Y245662D01*
X461207Y245548D01*
X461176Y245433D01*
X461148Y245316D01*
X461125Y245199D01*
X461105Y245082D01*
X461089Y244963D01*
X461077Y244844D01*
X461069Y244725D01*
X461065Y244606D01*
X461065Y244486D01*
X461069Y244367D01*
X461077Y244248D01*
X461089Y244129D01*
X461105Y244010D01*
X461125Y243893D01*
X461148Y243776D01*
X461176Y243659D01*
X461207Y243544D01*
X461242Y243430D01*
X461281Y243317D01*
X461323Y243205D01*
X461369Y243095D01*
X461419Y242987D01*
X461472Y242880D01*
X461529Y242775D01*
X461589Y242671D01*
X461653Y242570D01*
X461720Y242472D01*
X461790Y242375D01*
X461864Y242281D01*
X461940Y242189D01*
X462020Y242100D01*
X462102Y242013D01*
X462187Y241929D01*
X462275Y241848D01*
X462365Y241771D01*
X462458Y241696D01*
X462554Y241624D01*
X462652Y241555D01*
X462752Y241490D01*
X462854Y241428D01*
X462958Y241369D01*
X463064Y241314D01*
X463172Y241263D01*
X463281Y241215D01*
X463392Y241170D01*
X463504Y241130D01*
X463618Y241093D01*
X463733Y241060D01*
X463848Y241030D01*
X463965Y241005D01*
X464082Y240983D01*
X464201Y240966D01*
X464319Y240952D01*
X464438Y240942D01*
X464558Y240936D01*
X464677Y240934D01*
X454294Y236418D02*
X454292Y236551D01*
X454286Y236683D01*
X454276Y236815D01*
X454263Y236947D01*
X454245Y237079D01*
X454224Y237209D01*
X454199Y237340D01*
X454170Y237469D01*
X454137Y237597D01*
X454101Y237725D01*
X454061Y237851D01*
X454017Y237976D01*
X453969Y238100D01*
X453918Y238222D01*
X453863Y238343D01*
X453805Y238462D01*
X453743Y238580D01*
X453678Y238695D01*
X453609Y238809D01*
X453538Y238920D01*
X453462Y239029D01*
X453384Y239136D01*
X453303Y239241D01*
X453218Y239343D01*
X453131Y239443D01*
X453041Y239540D01*
X452948Y239635D01*
X452852Y239726D01*
X452754Y239815D01*
X452653Y239901D01*
X452549Y239984D01*
X452443Y240064D01*
X452335Y240140D01*
X452225Y240214D01*
X452112Y240284D01*
X451998Y240351D01*
X451881Y240414D01*
X451763Y240474D01*
X451643Y240531D01*
X451521Y240584D01*
X451398Y240633D01*
X451274Y240679D01*
X451148Y240721D01*
X451021Y240759D01*
X450893Y240794D01*
X450764Y240825D01*
X450635Y240852D01*
X450504Y240875D01*
X450373Y240895D01*
X450241Y240910D01*
X450109Y240922D01*
X449977Y240930D01*
X449844Y240934D01*
X449712Y240934D01*
X449579Y240930D01*
X449447Y240922D01*
X449315Y240910D01*
X449183Y240895D01*
X449052Y240875D01*
X448921Y240852D01*
X448792Y240825D01*
X448663Y240794D01*
X448535Y240759D01*
X448408Y240721D01*
X448282Y240679D01*
X448158Y240633D01*
X448035Y240584D01*
X447913Y240531D01*
X447793Y240474D01*
X447675Y240414D01*
X447558Y240351D01*
X447444Y240284D01*
X447331Y240214D01*
X447221Y240140D01*
X447113Y240064D01*
X447007Y239984D01*
X446903Y239901D01*
X446802Y239815D01*
X446704Y239726D01*
X446608Y239635D01*
X446515Y239540D01*
X446425Y239443D01*
X446338Y239343D01*
X446253Y239241D01*
X446172Y239136D01*
X446094Y239029D01*
X446018Y238920D01*
X445947Y238809D01*
X445878Y238695D01*
X445813Y238580D01*
X445751Y238462D01*
X445693Y238343D01*
X445638Y238222D01*
X445587Y238100D01*
X445539Y237976D01*
X445495Y237851D01*
X445455Y237725D01*
X445419Y237597D01*
X445386Y237469D01*
X445357Y237340D01*
X445332Y237209D01*
X445311Y237079D01*
X445293Y236947D01*
X445280Y236815D01*
X445270Y236683D01*
X445264Y236551D01*
X445262Y236418D01*
X445264Y236285D01*
X445270Y236153D01*
X445280Y236021D01*
X445293Y235889D01*
X445311Y235757D01*
X445332Y235627D01*
X445357Y235496D01*
X445386Y235367D01*
X445419Y235239D01*
X445455Y235111D01*
X445495Y234985D01*
X445539Y234860D01*
X445587Y234736D01*
X445638Y234614D01*
X445693Y234493D01*
X445751Y234374D01*
X445813Y234256D01*
X445878Y234141D01*
X445947Y234027D01*
X446018Y233916D01*
X446094Y233807D01*
X446172Y233700D01*
X446253Y233595D01*
X446338Y233493D01*
X446425Y233393D01*
X446515Y233296D01*
X446608Y233201D01*
X446704Y233110D01*
X446802Y233021D01*
X446903Y232935D01*
X447007Y232852D01*
X447113Y232772D01*
X447221Y232696D01*
X447331Y232622D01*
X447444Y232552D01*
X447558Y232485D01*
X447675Y232422D01*
X447793Y232362D01*
X447913Y232305D01*
X448035Y232252D01*
X448158Y232203D01*
X448282Y232157D01*
X448408Y232115D01*
X448535Y232077D01*
X448663Y232042D01*
X448792Y232011D01*
X448921Y231984D01*
X449052Y231961D01*
X449183Y231941D01*
X449315Y231926D01*
X449447Y231914D01*
X449579Y231906D01*
X449712Y231902D01*
X449844Y231902D01*
X449977Y231906D01*
X450109Y231914D01*
X450241Y231926D01*
X450373Y231941D01*
X450504Y231961D01*
X450635Y231984D01*
X450764Y232011D01*
X450893Y232042D01*
X451021Y232077D01*
X451148Y232115D01*
X451274Y232157D01*
X451398Y232203D01*
X451521Y232252D01*
X451643Y232305D01*
X451763Y232362D01*
X451881Y232422D01*
X451998Y232485D01*
X452112Y232552D01*
X452225Y232622D01*
X452335Y232696D01*
X452443Y232772D01*
X452549Y232852D01*
X452653Y232935D01*
X452754Y233021D01*
X452852Y233110D01*
X452948Y233201D01*
X453041Y233296D01*
X453131Y233393D01*
X453218Y233493D01*
X453303Y233595D01*
X453384Y233700D01*
X453462Y233807D01*
X453538Y233916D01*
X453609Y234027D01*
X453678Y234141D01*
X453743Y234256D01*
X453805Y234374D01*
X453863Y234493D01*
X453918Y234614D01*
X453969Y234736D01*
X454017Y234860D01*
X454061Y234985D01*
X454101Y235111D01*
X454137Y235239D01*
X454170Y235367D01*
X454199Y235496D01*
X454224Y235627D01*
X454245Y235757D01*
X454263Y235889D01*
X454276Y236021D01*
X454286Y236153D01*
X454292Y236285D01*
X454294Y236418D01*
X453390Y244546D02*
X453388Y244665D01*
X453382Y244785D01*
X453372Y244904D01*
X453358Y245022D01*
X453341Y245141D01*
X453319Y245258D01*
X453294Y245375D01*
X453264Y245490D01*
X453231Y245605D01*
X453194Y245719D01*
X453154Y245831D01*
X453109Y245942D01*
X453061Y246051D01*
X453010Y246159D01*
X452955Y246265D01*
X452896Y246369D01*
X452834Y246471D01*
X452769Y246571D01*
X452700Y246669D01*
X452628Y246765D01*
X452553Y246858D01*
X452476Y246948D01*
X452395Y247036D01*
X452311Y247121D01*
X452224Y247203D01*
X452135Y247283D01*
X452043Y247359D01*
X451949Y247433D01*
X451852Y247503D01*
X451754Y247570D01*
X451653Y247634D01*
X451549Y247694D01*
X451444Y247751D01*
X451337Y247804D01*
X451229Y247854D01*
X451119Y247900D01*
X451007Y247942D01*
X450894Y247981D01*
X450780Y248016D01*
X450665Y248047D01*
X450548Y248075D01*
X450431Y248098D01*
X450314Y248118D01*
X450195Y248134D01*
X450076Y248146D01*
X449957Y248154D01*
X449838Y248158D01*
X449718Y248158D01*
X449599Y248154D01*
X449480Y248146D01*
X449361Y248134D01*
X449242Y248118D01*
X449125Y248098D01*
X449008Y248075D01*
X448891Y248047D01*
X448776Y248016D01*
X448662Y247981D01*
X448549Y247942D01*
X448437Y247900D01*
X448327Y247854D01*
X448219Y247804D01*
X448112Y247751D01*
X448007Y247694D01*
X447903Y247634D01*
X447802Y247570D01*
X447704Y247503D01*
X447607Y247433D01*
X447513Y247359D01*
X447421Y247283D01*
X447332Y247203D01*
X447245Y247121D01*
X447161Y247036D01*
X447080Y246948D01*
X447003Y246858D01*
X446928Y246765D01*
X446856Y246669D01*
X446787Y246571D01*
X446722Y246471D01*
X446660Y246369D01*
X446601Y246265D01*
X446546Y246159D01*
X446495Y246051D01*
X446447Y245942D01*
X446402Y245831D01*
X446362Y245719D01*
X446325Y245605D01*
X446292Y245490D01*
X446262Y245375D01*
X446237Y245258D01*
X446215Y245141D01*
X446198Y245022D01*
X446184Y244904D01*
X446174Y244785D01*
X446168Y244665D01*
X446166Y244546D01*
X446168Y244427D01*
X446174Y244307D01*
X446184Y244188D01*
X446198Y244070D01*
X446215Y243951D01*
X446237Y243834D01*
X446262Y243717D01*
X446292Y243602D01*
X446325Y243487D01*
X446362Y243373D01*
X446402Y243261D01*
X446447Y243150D01*
X446495Y243041D01*
X446546Y242933D01*
X446601Y242827D01*
X446660Y242723D01*
X446722Y242621D01*
X446787Y242521D01*
X446856Y242423D01*
X446928Y242327D01*
X447003Y242234D01*
X447080Y242144D01*
X447161Y242056D01*
X447245Y241971D01*
X447332Y241889D01*
X447421Y241809D01*
X447513Y241733D01*
X447607Y241659D01*
X447704Y241589D01*
X447802Y241522D01*
X447903Y241458D01*
X448007Y241398D01*
X448112Y241341D01*
X448219Y241288D01*
X448327Y241238D01*
X448437Y241192D01*
X448549Y241150D01*
X448662Y241111D01*
X448776Y241076D01*
X448891Y241045D01*
X449008Y241017D01*
X449125Y240994D01*
X449242Y240974D01*
X449361Y240958D01*
X449480Y240946D01*
X449599Y240938D01*
X449718Y240934D01*
X449838Y240934D01*
X449957Y240938D01*
X450076Y240946D01*
X450195Y240958D01*
X450314Y240974D01*
X450431Y240994D01*
X450548Y241017D01*
X450665Y241045D01*
X450780Y241076D01*
X450894Y241111D01*
X451007Y241150D01*
X451119Y241192D01*
X451229Y241238D01*
X451337Y241288D01*
X451444Y241341D01*
X451549Y241398D01*
X451653Y241458D01*
X451754Y241522D01*
X451852Y241589D01*
X451949Y241659D01*
X452043Y241733D01*
X452135Y241809D01*
X452224Y241889D01*
X452311Y241971D01*
X452395Y242056D01*
X452476Y242144D01*
X452553Y242234D01*
X452628Y242327D01*
X452700Y242423D01*
X452769Y242521D01*
X452834Y242621D01*
X452896Y242723D01*
X452955Y242827D01*
X453010Y242933D01*
X453061Y243041D01*
X453109Y243150D01*
X453154Y243261D01*
X453194Y243373D01*
X453231Y243487D01*
X453264Y243602D01*
X453294Y243717D01*
X453319Y243834D01*
X453341Y243951D01*
X453358Y244070D01*
X453372Y244188D01*
X453382Y244307D01*
X453388Y244427D01*
X453390Y244546D01*
X464677Y215533D02*
X469192Y215533D01*
X464677Y215534D02*
X464544Y215532D01*
X464412Y215526D01*
X464280Y215516D01*
X464148Y215503D01*
X464016Y215485D01*
X463886Y215464D01*
X463755Y215439D01*
X463626Y215410D01*
X463498Y215377D01*
X463370Y215341D01*
X463244Y215301D01*
X463119Y215257D01*
X462995Y215209D01*
X462873Y215158D01*
X462752Y215103D01*
X462633Y215045D01*
X462515Y214983D01*
X462400Y214918D01*
X462286Y214849D01*
X462175Y214778D01*
X462066Y214702D01*
X461959Y214624D01*
X461854Y214543D01*
X461752Y214458D01*
X461652Y214371D01*
X461555Y214281D01*
X461460Y214188D01*
X461369Y214092D01*
X461280Y213994D01*
X461194Y213893D01*
X461111Y213789D01*
X461031Y213683D01*
X460955Y213575D01*
X460881Y213465D01*
X460811Y213352D01*
X460744Y213238D01*
X460681Y213121D01*
X460621Y213003D01*
X460564Y212883D01*
X460511Y212761D01*
X460462Y212638D01*
X460416Y212514D01*
X460374Y212388D01*
X460336Y212261D01*
X460301Y212133D01*
X460270Y212004D01*
X460243Y211875D01*
X460220Y211744D01*
X460200Y211613D01*
X460185Y211481D01*
X460173Y211349D01*
X460165Y211217D01*
X460161Y211084D01*
X460161Y210952D01*
X460165Y210819D01*
X460173Y210687D01*
X460185Y210555D01*
X460200Y210423D01*
X460220Y210292D01*
X460243Y210161D01*
X460270Y210032D01*
X460301Y209903D01*
X460336Y209775D01*
X460374Y209648D01*
X460416Y209522D01*
X460462Y209398D01*
X460511Y209275D01*
X460564Y209153D01*
X460621Y209033D01*
X460681Y208915D01*
X460744Y208798D01*
X460811Y208684D01*
X460881Y208571D01*
X460955Y208461D01*
X461031Y208353D01*
X461111Y208247D01*
X461194Y208143D01*
X461280Y208042D01*
X461369Y207944D01*
X461460Y207848D01*
X461555Y207755D01*
X461652Y207665D01*
X461752Y207578D01*
X461854Y207493D01*
X461959Y207412D01*
X462066Y207334D01*
X462175Y207258D01*
X462286Y207187D01*
X462400Y207118D01*
X462515Y207053D01*
X462633Y206991D01*
X462752Y206933D01*
X462873Y206878D01*
X462995Y206827D01*
X463119Y206779D01*
X463244Y206735D01*
X463370Y206695D01*
X463498Y206659D01*
X463626Y206626D01*
X463755Y206597D01*
X463886Y206572D01*
X464016Y206551D01*
X464148Y206533D01*
X464280Y206520D01*
X464412Y206510D01*
X464544Y206504D01*
X464677Y206502D01*
X469192Y206502D01*
X469192Y222758D01*
X464677Y222758D01*
X464558Y222756D01*
X464438Y222750D01*
X464319Y222740D01*
X464201Y222726D01*
X464082Y222709D01*
X463965Y222687D01*
X463848Y222662D01*
X463733Y222632D01*
X463618Y222599D01*
X463504Y222562D01*
X463392Y222522D01*
X463281Y222477D01*
X463172Y222429D01*
X463064Y222378D01*
X462958Y222323D01*
X462854Y222264D01*
X462752Y222202D01*
X462652Y222137D01*
X462554Y222068D01*
X462458Y221996D01*
X462365Y221921D01*
X462275Y221844D01*
X462187Y221763D01*
X462102Y221679D01*
X462020Y221592D01*
X461940Y221503D01*
X461864Y221411D01*
X461790Y221317D01*
X461720Y221220D01*
X461653Y221122D01*
X461589Y221021D01*
X461529Y220917D01*
X461472Y220812D01*
X461419Y220705D01*
X461369Y220597D01*
X461323Y220487D01*
X461281Y220375D01*
X461242Y220262D01*
X461207Y220148D01*
X461176Y220033D01*
X461148Y219916D01*
X461125Y219799D01*
X461105Y219682D01*
X461089Y219563D01*
X461077Y219444D01*
X461069Y219325D01*
X461065Y219206D01*
X461065Y219086D01*
X461069Y218967D01*
X461077Y218848D01*
X461089Y218729D01*
X461105Y218610D01*
X461125Y218493D01*
X461148Y218376D01*
X461176Y218259D01*
X461207Y218144D01*
X461242Y218030D01*
X461281Y217917D01*
X461323Y217805D01*
X461369Y217695D01*
X461419Y217587D01*
X461472Y217480D01*
X461529Y217375D01*
X461589Y217271D01*
X461653Y217170D01*
X461720Y217072D01*
X461790Y216975D01*
X461864Y216881D01*
X461940Y216789D01*
X462020Y216700D01*
X462102Y216613D01*
X462187Y216529D01*
X462275Y216448D01*
X462365Y216371D01*
X462458Y216296D01*
X462554Y216224D01*
X462652Y216155D01*
X462752Y216090D01*
X462854Y216028D01*
X462958Y215969D01*
X463064Y215914D01*
X463172Y215863D01*
X463281Y215815D01*
X463392Y215770D01*
X463504Y215730D01*
X463618Y215693D01*
X463733Y215660D01*
X463848Y215630D01*
X463965Y215605D01*
X464082Y215583D01*
X464201Y215566D01*
X464319Y215552D01*
X464438Y215542D01*
X464558Y215536D01*
X464677Y215534D01*
X454293Y220952D02*
X454293Y222758D01*
X445262Y222758D01*
X449778Y206502D01*
X464867Y188694D02*
X475704Y188694D01*
X470285Y194112D02*
X470285Y183275D01*
X458127Y182372D02*
X452709Y182372D01*
X452591Y182374D01*
X452473Y182380D01*
X452355Y182389D01*
X452238Y182403D01*
X452121Y182420D01*
X452004Y182441D01*
X451889Y182466D01*
X451774Y182495D01*
X451660Y182528D01*
X451548Y182564D01*
X451437Y182604D01*
X451327Y182647D01*
X451218Y182694D01*
X451111Y182744D01*
X451006Y182799D01*
X450903Y182856D01*
X450802Y182917D01*
X450702Y182981D01*
X450605Y183048D01*
X450510Y183118D01*
X450418Y183192D01*
X450327Y183268D01*
X450240Y183348D01*
X450155Y183430D01*
X450073Y183515D01*
X449993Y183602D01*
X449917Y183693D01*
X449843Y183785D01*
X449773Y183880D01*
X449706Y183977D01*
X449642Y184077D01*
X449581Y184178D01*
X449524Y184281D01*
X449469Y184386D01*
X449419Y184493D01*
X449372Y184602D01*
X449329Y184712D01*
X449289Y184823D01*
X449253Y184935D01*
X449220Y185049D01*
X449191Y185164D01*
X449166Y185279D01*
X449145Y185396D01*
X449128Y185513D01*
X449114Y185630D01*
X449105Y185748D01*
X449099Y185866D01*
X449097Y185984D01*
X449096Y185984D02*
X449096Y187791D01*
X449097Y187791D02*
X449099Y187909D01*
X449105Y188027D01*
X449114Y188145D01*
X449128Y188262D01*
X449145Y188379D01*
X449166Y188496D01*
X449191Y188611D01*
X449220Y188726D01*
X449253Y188840D01*
X449289Y188952D01*
X449329Y189063D01*
X449372Y189173D01*
X449419Y189282D01*
X449469Y189389D01*
X449524Y189494D01*
X449581Y189597D01*
X449642Y189698D01*
X449706Y189798D01*
X449773Y189895D01*
X449843Y189990D01*
X449917Y190082D01*
X449993Y190173D01*
X450073Y190260D01*
X450155Y190345D01*
X450240Y190427D01*
X450327Y190507D01*
X450418Y190583D01*
X450510Y190657D01*
X450605Y190727D01*
X450702Y190794D01*
X450802Y190858D01*
X450903Y190919D01*
X451006Y190976D01*
X451111Y191031D01*
X451218Y191081D01*
X451327Y191128D01*
X451437Y191171D01*
X451548Y191211D01*
X451660Y191247D01*
X451774Y191280D01*
X451889Y191309D01*
X452004Y191334D01*
X452121Y191355D01*
X452238Y191372D01*
X452355Y191386D01*
X452473Y191395D01*
X452591Y191401D01*
X452709Y191403D01*
X458127Y191403D01*
X458127Y198628D01*
X449096Y198628D01*
X443399Y198628D02*
X437981Y182372D01*
X432562Y198628D01*
X454479Y167273D02*
X457188Y167273D01*
X454479Y167273D02*
X454479Y158242D01*
X459897Y158242D01*
X460015Y158244D01*
X460133Y158250D01*
X460251Y158259D01*
X460368Y158273D01*
X460485Y158290D01*
X460602Y158311D01*
X460717Y158336D01*
X460832Y158365D01*
X460946Y158398D01*
X461058Y158434D01*
X461169Y158474D01*
X461279Y158517D01*
X461388Y158564D01*
X461495Y158614D01*
X461600Y158669D01*
X461703Y158726D01*
X461804Y158787D01*
X461904Y158851D01*
X462001Y158918D01*
X462096Y158988D01*
X462188Y159062D01*
X462279Y159138D01*
X462366Y159218D01*
X462451Y159300D01*
X462533Y159385D01*
X462613Y159472D01*
X462689Y159563D01*
X462763Y159655D01*
X462833Y159750D01*
X462900Y159847D01*
X462964Y159947D01*
X463025Y160048D01*
X463082Y160151D01*
X463137Y160256D01*
X463187Y160363D01*
X463234Y160472D01*
X463277Y160582D01*
X463317Y160693D01*
X463353Y160805D01*
X463386Y160919D01*
X463415Y161034D01*
X463440Y161149D01*
X463461Y161266D01*
X463478Y161383D01*
X463492Y161500D01*
X463501Y161618D01*
X463507Y161736D01*
X463509Y161854D01*
X463510Y161854D02*
X463510Y170886D01*
X463509Y170886D02*
X463507Y171004D01*
X463501Y171122D01*
X463492Y171240D01*
X463478Y171357D01*
X463461Y171474D01*
X463440Y171591D01*
X463415Y171706D01*
X463386Y171821D01*
X463353Y171935D01*
X463317Y172047D01*
X463277Y172158D01*
X463234Y172268D01*
X463187Y172377D01*
X463137Y172484D01*
X463082Y172589D01*
X463025Y172692D01*
X462964Y172793D01*
X462900Y172893D01*
X462833Y172990D01*
X462763Y173085D01*
X462689Y173177D01*
X462613Y173268D01*
X462533Y173355D01*
X462451Y173440D01*
X462366Y173522D01*
X462279Y173602D01*
X462188Y173678D01*
X462096Y173752D01*
X462001Y173822D01*
X461904Y173889D01*
X461804Y173953D01*
X461703Y174014D01*
X461600Y174071D01*
X461495Y174126D01*
X461388Y174176D01*
X461279Y174223D01*
X461169Y174266D01*
X461058Y174306D01*
X460946Y174342D01*
X460832Y174375D01*
X460717Y174404D01*
X460602Y174429D01*
X460485Y174450D01*
X460368Y174467D01*
X460251Y174481D01*
X460133Y174490D01*
X460015Y174496D01*
X459897Y174498D01*
X454479Y174498D01*
X446836Y174498D02*
X446836Y158242D01*
X437805Y158242D02*
X446836Y174498D01*
X437805Y174498D02*
X437805Y158242D01*
X430163Y158242D02*
X430163Y174498D01*
X425648Y174498D01*
X425517Y174496D01*
X425385Y174490D01*
X425254Y174481D01*
X425124Y174467D01*
X424993Y174450D01*
X424864Y174429D01*
X424735Y174405D01*
X424607Y174376D01*
X424479Y174344D01*
X424353Y174308D01*
X424228Y174269D01*
X424103Y174226D01*
X423981Y174179D01*
X423859Y174129D01*
X423739Y174075D01*
X423621Y174018D01*
X423505Y173957D01*
X423390Y173893D01*
X423277Y173826D01*
X423166Y173755D01*
X423058Y173681D01*
X422951Y173604D01*
X422847Y173524D01*
X422745Y173441D01*
X422646Y173356D01*
X422549Y173267D01*
X422455Y173175D01*
X422363Y173081D01*
X422274Y172984D01*
X422189Y172885D01*
X422106Y172783D01*
X422026Y172679D01*
X421949Y172572D01*
X421875Y172464D01*
X421804Y172353D01*
X421737Y172240D01*
X421673Y172125D01*
X421612Y172009D01*
X421555Y171891D01*
X421501Y171771D01*
X421451Y171649D01*
X421404Y171527D01*
X421361Y171402D01*
X421322Y171277D01*
X421286Y171151D01*
X421254Y171023D01*
X421225Y170895D01*
X421201Y170766D01*
X421180Y170637D01*
X421163Y170506D01*
X421149Y170376D01*
X421140Y170245D01*
X421134Y170113D01*
X421132Y169982D01*
X421132Y162758D01*
X421134Y162627D01*
X421140Y162495D01*
X421149Y162364D01*
X421163Y162234D01*
X421180Y162103D01*
X421201Y161974D01*
X421225Y161845D01*
X421254Y161717D01*
X421286Y161589D01*
X421322Y161463D01*
X421361Y161338D01*
X421404Y161213D01*
X421451Y161091D01*
X421501Y160969D01*
X421555Y160849D01*
X421612Y160731D01*
X421673Y160615D01*
X421737Y160500D01*
X421804Y160387D01*
X421875Y160276D01*
X421949Y160168D01*
X422026Y160061D01*
X422106Y159957D01*
X422189Y159855D01*
X422274Y159756D01*
X422363Y159659D01*
X422455Y159565D01*
X422549Y159473D01*
X422646Y159384D01*
X422745Y159299D01*
X422847Y159216D01*
X422951Y159136D01*
X423058Y159059D01*
X423166Y158985D01*
X423277Y158914D01*
X423390Y158847D01*
X423505Y158783D01*
X423621Y158722D01*
X423739Y158665D01*
X423859Y158611D01*
X423981Y158561D01*
X424103Y158514D01*
X424228Y158471D01*
X424353Y158432D01*
X424479Y158396D01*
X424607Y158364D01*
X424735Y158335D01*
X424864Y158311D01*
X424993Y158290D01*
X425124Y158273D01*
X425254Y158259D01*
X425385Y158250D01*
X425517Y158244D01*
X425648Y158242D01*
X430163Y158242D01*
X57658Y334772D02*
X52239Y351028D01*
X46821Y334772D01*
X48175Y338836D02*
X56303Y338836D01*
X41123Y342900D02*
X41119Y343220D01*
X41108Y343539D01*
X41089Y343859D01*
X41062Y344177D01*
X41028Y344495D01*
X40986Y344812D01*
X40936Y345128D01*
X40879Y345443D01*
X40815Y345756D01*
X40743Y346068D01*
X40664Y346378D01*
X40577Y346685D01*
X40483Y346991D01*
X40382Y347294D01*
X40273Y347595D01*
X40158Y347893D01*
X40035Y348189D01*
X39905Y348481D01*
X39768Y348770D01*
X39769Y348771D02*
X39730Y348879D01*
X39687Y348986D01*
X39641Y349091D01*
X39590Y349195D01*
X39537Y349297D01*
X39480Y349397D01*
X39419Y349495D01*
X39355Y349590D01*
X39288Y349684D01*
X39217Y349775D01*
X39144Y349864D01*
X39067Y349950D01*
X38988Y350033D01*
X38906Y350114D01*
X38821Y350192D01*
X38733Y350266D01*
X38643Y350338D01*
X38551Y350406D01*
X38456Y350472D01*
X38359Y350534D01*
X38260Y350592D01*
X38158Y350648D01*
X38056Y350699D01*
X37951Y350747D01*
X37845Y350792D01*
X37737Y350833D01*
X37628Y350870D01*
X37518Y350903D01*
X37406Y350932D01*
X37294Y350958D01*
X37181Y350980D01*
X37067Y350997D01*
X36953Y351011D01*
X36838Y351021D01*
X36723Y351027D01*
X36608Y351029D01*
X36608Y351028D02*
X36493Y351026D01*
X36378Y351020D01*
X36263Y351010D01*
X36149Y350996D01*
X36035Y350979D01*
X35922Y350957D01*
X35810Y350931D01*
X35698Y350902D01*
X35588Y350869D01*
X35479Y350832D01*
X35371Y350791D01*
X35265Y350746D01*
X35161Y350698D01*
X35058Y350647D01*
X34957Y350591D01*
X34857Y350533D01*
X34760Y350471D01*
X34666Y350406D01*
X34573Y350337D01*
X34483Y350265D01*
X34395Y350191D01*
X34310Y350113D01*
X34228Y350032D01*
X34149Y349949D01*
X34072Y349863D01*
X33999Y349774D01*
X33928Y349683D01*
X33861Y349589D01*
X33797Y349494D01*
X33736Y349396D01*
X33679Y349296D01*
X33626Y349194D01*
X33575Y349090D01*
X33529Y348985D01*
X33486Y348878D01*
X33447Y348770D01*
X33448Y348770D02*
X33311Y348481D01*
X33181Y348189D01*
X33058Y347893D01*
X32943Y347595D01*
X32834Y347294D01*
X32733Y346991D01*
X32639Y346685D01*
X32552Y346378D01*
X32473Y346068D01*
X32401Y345756D01*
X32337Y345443D01*
X32280Y345128D01*
X32230Y344812D01*
X32188Y344495D01*
X32154Y344177D01*
X32127Y343859D01*
X32108Y343539D01*
X32097Y343220D01*
X32093Y342900D01*
X41123Y342900D02*
X41119Y342580D01*
X41108Y342261D01*
X41089Y341941D01*
X41062Y341623D01*
X41028Y341305D01*
X40986Y340988D01*
X40936Y340672D01*
X40879Y340357D01*
X40815Y340044D01*
X40743Y339732D01*
X40664Y339422D01*
X40577Y339115D01*
X40483Y338809D01*
X40382Y338506D01*
X40273Y338205D01*
X40158Y337907D01*
X40035Y337611D01*
X39905Y337319D01*
X39768Y337030D01*
X39769Y337030D02*
X39730Y336922D01*
X39687Y336815D01*
X39641Y336710D01*
X39590Y336606D01*
X39537Y336504D01*
X39480Y336404D01*
X39419Y336306D01*
X39355Y336211D01*
X39288Y336117D01*
X39217Y336026D01*
X39144Y335937D01*
X39067Y335851D01*
X38988Y335768D01*
X38906Y335687D01*
X38821Y335609D01*
X38733Y335535D01*
X38643Y335463D01*
X38550Y335394D01*
X38456Y335329D01*
X38359Y335267D01*
X38259Y335209D01*
X38158Y335153D01*
X38056Y335102D01*
X37951Y335054D01*
X37845Y335009D01*
X37737Y334968D01*
X37628Y334931D01*
X37518Y334898D01*
X37406Y334869D01*
X37294Y334843D01*
X37181Y334821D01*
X37067Y334804D01*
X36953Y334790D01*
X36838Y334780D01*
X36723Y334774D01*
X36608Y334772D01*
X33448Y337030D02*
X33311Y337319D01*
X33181Y337611D01*
X33058Y337907D01*
X32943Y338205D01*
X32834Y338506D01*
X32733Y338809D01*
X32639Y339115D01*
X32552Y339422D01*
X32473Y339732D01*
X32401Y340044D01*
X32337Y340357D01*
X32280Y340672D01*
X32230Y340988D01*
X32188Y341305D01*
X32154Y341623D01*
X32127Y341941D01*
X32108Y342261D01*
X32097Y342580D01*
X32093Y342900D01*
X33447Y337030D02*
X33486Y336922D01*
X33529Y336815D01*
X33575Y336710D01*
X33626Y336606D01*
X33679Y336504D01*
X33737Y336404D01*
X33797Y336306D01*
X33861Y336211D01*
X33928Y336117D01*
X33999Y336026D01*
X34072Y335937D01*
X34149Y335851D01*
X34228Y335768D01*
X34310Y335687D01*
X34395Y335609D01*
X34483Y335535D01*
X34573Y335463D01*
X34666Y335394D01*
X34760Y335329D01*
X34857Y335267D01*
X34957Y335209D01*
X35058Y335153D01*
X35161Y335102D01*
X35265Y335054D01*
X35371Y335009D01*
X35479Y334968D01*
X35588Y334931D01*
X35698Y334898D01*
X35810Y334869D01*
X35922Y334843D01*
X36035Y334821D01*
X36149Y334804D01*
X36263Y334790D01*
X36378Y334780D01*
X36493Y334774D01*
X36608Y334772D01*
X40221Y338384D02*
X32996Y347416D01*
X52239Y325628D02*
X57658Y309372D01*
X46821Y309372D02*
X52239Y325628D01*
X48175Y313436D02*
X56303Y313436D01*
X41124Y322016D02*
X36608Y325628D01*
X36608Y309372D01*
X32093Y309372D02*
X41124Y309372D01*
X53142Y294273D02*
X57658Y294273D01*
X53142Y294274D02*
X53009Y294272D01*
X52877Y294266D01*
X52745Y294256D01*
X52613Y294243D01*
X52481Y294225D01*
X52351Y294204D01*
X52220Y294179D01*
X52091Y294150D01*
X51963Y294117D01*
X51835Y294081D01*
X51709Y294041D01*
X51584Y293997D01*
X51460Y293949D01*
X51338Y293898D01*
X51217Y293843D01*
X51098Y293785D01*
X50980Y293723D01*
X50865Y293658D01*
X50751Y293589D01*
X50640Y293518D01*
X50531Y293442D01*
X50424Y293364D01*
X50319Y293283D01*
X50217Y293198D01*
X50117Y293111D01*
X50020Y293021D01*
X49925Y292928D01*
X49834Y292832D01*
X49745Y292734D01*
X49659Y292633D01*
X49576Y292529D01*
X49496Y292423D01*
X49420Y292315D01*
X49346Y292205D01*
X49276Y292092D01*
X49209Y291978D01*
X49146Y291861D01*
X49086Y291743D01*
X49029Y291623D01*
X48976Y291501D01*
X48927Y291378D01*
X48881Y291254D01*
X48839Y291128D01*
X48801Y291001D01*
X48766Y290873D01*
X48735Y290744D01*
X48708Y290615D01*
X48685Y290484D01*
X48665Y290353D01*
X48650Y290221D01*
X48638Y290089D01*
X48630Y289957D01*
X48626Y289824D01*
X48626Y289692D01*
X48630Y289559D01*
X48638Y289427D01*
X48650Y289295D01*
X48665Y289163D01*
X48685Y289032D01*
X48708Y288901D01*
X48735Y288772D01*
X48766Y288643D01*
X48801Y288515D01*
X48839Y288388D01*
X48881Y288262D01*
X48927Y288138D01*
X48976Y288015D01*
X49029Y287893D01*
X49086Y287773D01*
X49146Y287655D01*
X49209Y287538D01*
X49276Y287424D01*
X49346Y287311D01*
X49420Y287201D01*
X49496Y287093D01*
X49576Y286987D01*
X49659Y286883D01*
X49745Y286782D01*
X49834Y286684D01*
X49925Y286588D01*
X50020Y286495D01*
X50117Y286405D01*
X50217Y286318D01*
X50319Y286233D01*
X50424Y286152D01*
X50531Y286074D01*
X50640Y285998D01*
X50751Y285927D01*
X50865Y285858D01*
X50980Y285793D01*
X51098Y285731D01*
X51217Y285673D01*
X51338Y285618D01*
X51460Y285567D01*
X51584Y285519D01*
X51709Y285475D01*
X51835Y285435D01*
X51963Y285399D01*
X52091Y285366D01*
X52220Y285337D01*
X52351Y285312D01*
X52481Y285291D01*
X52613Y285273D01*
X52745Y285260D01*
X52877Y285250D01*
X53009Y285244D01*
X53142Y285242D01*
X57658Y285242D01*
X57658Y301498D01*
X53142Y301498D01*
X53023Y301496D01*
X52903Y301490D01*
X52784Y301480D01*
X52666Y301466D01*
X52547Y301449D01*
X52430Y301427D01*
X52313Y301402D01*
X52198Y301372D01*
X52083Y301339D01*
X51969Y301302D01*
X51857Y301262D01*
X51746Y301217D01*
X51637Y301169D01*
X51529Y301118D01*
X51423Y301063D01*
X51319Y301004D01*
X51217Y300942D01*
X51117Y300877D01*
X51019Y300808D01*
X50923Y300736D01*
X50830Y300661D01*
X50740Y300584D01*
X50652Y300503D01*
X50567Y300419D01*
X50485Y300332D01*
X50405Y300243D01*
X50329Y300151D01*
X50255Y300057D01*
X50185Y299960D01*
X50118Y299862D01*
X50054Y299761D01*
X49994Y299657D01*
X49937Y299552D01*
X49884Y299445D01*
X49834Y299337D01*
X49788Y299227D01*
X49746Y299115D01*
X49707Y299002D01*
X49672Y298888D01*
X49641Y298773D01*
X49613Y298656D01*
X49590Y298539D01*
X49570Y298422D01*
X49554Y298303D01*
X49542Y298184D01*
X49534Y298065D01*
X49530Y297946D01*
X49530Y297826D01*
X49534Y297707D01*
X49542Y297588D01*
X49554Y297469D01*
X49570Y297350D01*
X49590Y297233D01*
X49613Y297116D01*
X49641Y296999D01*
X49672Y296884D01*
X49707Y296770D01*
X49746Y296657D01*
X49788Y296545D01*
X49834Y296435D01*
X49884Y296327D01*
X49937Y296220D01*
X49994Y296115D01*
X50054Y296011D01*
X50118Y295910D01*
X50185Y295812D01*
X50255Y295715D01*
X50329Y295621D01*
X50405Y295529D01*
X50485Y295440D01*
X50567Y295353D01*
X50652Y295269D01*
X50740Y295188D01*
X50830Y295111D01*
X50923Y295036D01*
X51019Y294964D01*
X51117Y294895D01*
X51217Y294830D01*
X51319Y294768D01*
X51423Y294709D01*
X51529Y294654D01*
X51637Y294603D01*
X51746Y294555D01*
X51857Y294510D01*
X51969Y294470D01*
X52083Y294433D01*
X52198Y294400D01*
X52313Y294370D01*
X52430Y294345D01*
X52547Y294323D01*
X52666Y294306D01*
X52784Y294292D01*
X52903Y294282D01*
X53023Y294276D01*
X53142Y294274D01*
X37792Y301498D02*
X37667Y301496D01*
X37542Y301490D01*
X37417Y301481D01*
X37293Y301467D01*
X37169Y301450D01*
X37045Y301429D01*
X36923Y301404D01*
X36801Y301375D01*
X36680Y301343D01*
X36560Y301307D01*
X36441Y301267D01*
X36324Y301224D01*
X36208Y301177D01*
X36093Y301126D01*
X35981Y301072D01*
X35869Y301014D01*
X35760Y300954D01*
X35653Y300889D01*
X35547Y300822D01*
X35444Y300751D01*
X35343Y300677D01*
X35244Y300600D01*
X35148Y300520D01*
X35054Y300437D01*
X34963Y300352D01*
X34874Y300263D01*
X34789Y300172D01*
X34706Y300078D01*
X34626Y299982D01*
X34549Y299883D01*
X34475Y299782D01*
X34404Y299679D01*
X34337Y299573D01*
X34272Y299466D01*
X34212Y299357D01*
X34154Y299245D01*
X34100Y299133D01*
X34049Y299018D01*
X34002Y298902D01*
X33959Y298785D01*
X33919Y298666D01*
X33883Y298546D01*
X33851Y298425D01*
X33822Y298303D01*
X33797Y298181D01*
X33776Y298057D01*
X33759Y297933D01*
X33745Y297809D01*
X33736Y297684D01*
X33730Y297559D01*
X33728Y297434D01*
X37792Y301498D02*
X37935Y301496D01*
X38077Y301490D01*
X38220Y301480D01*
X38362Y301467D01*
X38503Y301449D01*
X38645Y301428D01*
X38785Y301403D01*
X38925Y301374D01*
X39064Y301341D01*
X39202Y301304D01*
X39339Y301264D01*
X39474Y301220D01*
X39609Y301172D01*
X39742Y301120D01*
X39874Y301065D01*
X40004Y301006D01*
X40132Y300944D01*
X40259Y300878D01*
X40384Y300809D01*
X40507Y300737D01*
X40628Y300661D01*
X40746Y300582D01*
X40863Y300499D01*
X40977Y300414D01*
X41089Y300325D01*
X41198Y300234D01*
X41305Y300139D01*
X41410Y300042D01*
X41511Y299941D01*
X41610Y299838D01*
X41706Y299733D01*
X41799Y299624D01*
X41889Y299513D01*
X41976Y299400D01*
X42060Y299285D01*
X42140Y299167D01*
X42218Y299047D01*
X42292Y298925D01*
X42362Y298801D01*
X42430Y298675D01*
X42493Y298547D01*
X42554Y298418D01*
X42611Y298287D01*
X42664Y298155D01*
X42713Y298021D01*
X42759Y297886D01*
X35083Y294273D02*
X34989Y294365D01*
X34899Y294459D01*
X34811Y294556D01*
X34726Y294656D01*
X34644Y294758D01*
X34565Y294863D01*
X34490Y294970D01*
X34418Y295079D01*
X34349Y295190D01*
X34283Y295304D01*
X34221Y295419D01*
X34162Y295536D01*
X34107Y295655D01*
X34056Y295775D01*
X34008Y295897D01*
X33963Y296020D01*
X33923Y296144D01*
X33886Y296270D01*
X33853Y296397D01*
X33824Y296524D01*
X33798Y296653D01*
X33777Y296782D01*
X33759Y296912D01*
X33746Y297042D01*
X33736Y297172D01*
X33730Y297303D01*
X33728Y297434D01*
X35082Y294273D02*
X42759Y285242D01*
X33728Y285242D01*
X53142Y267603D02*
X57658Y267603D01*
X53142Y267604D02*
X53009Y267602D01*
X52877Y267596D01*
X52745Y267586D01*
X52613Y267573D01*
X52481Y267555D01*
X52351Y267534D01*
X52220Y267509D01*
X52091Y267480D01*
X51963Y267447D01*
X51835Y267411D01*
X51709Y267371D01*
X51584Y267327D01*
X51460Y267279D01*
X51338Y267228D01*
X51217Y267173D01*
X51098Y267115D01*
X50980Y267053D01*
X50865Y266988D01*
X50751Y266919D01*
X50640Y266848D01*
X50531Y266772D01*
X50424Y266694D01*
X50319Y266613D01*
X50217Y266528D01*
X50117Y266441D01*
X50020Y266351D01*
X49925Y266258D01*
X49834Y266162D01*
X49745Y266064D01*
X49659Y265963D01*
X49576Y265859D01*
X49496Y265753D01*
X49420Y265645D01*
X49346Y265535D01*
X49276Y265422D01*
X49209Y265308D01*
X49146Y265191D01*
X49086Y265073D01*
X49029Y264953D01*
X48976Y264831D01*
X48927Y264708D01*
X48881Y264584D01*
X48839Y264458D01*
X48801Y264331D01*
X48766Y264203D01*
X48735Y264074D01*
X48708Y263945D01*
X48685Y263814D01*
X48665Y263683D01*
X48650Y263551D01*
X48638Y263419D01*
X48630Y263287D01*
X48626Y263154D01*
X48626Y263022D01*
X48630Y262889D01*
X48638Y262757D01*
X48650Y262625D01*
X48665Y262493D01*
X48685Y262362D01*
X48708Y262231D01*
X48735Y262102D01*
X48766Y261973D01*
X48801Y261845D01*
X48839Y261718D01*
X48881Y261592D01*
X48927Y261468D01*
X48976Y261345D01*
X49029Y261223D01*
X49086Y261103D01*
X49146Y260985D01*
X49209Y260868D01*
X49276Y260754D01*
X49346Y260641D01*
X49420Y260531D01*
X49496Y260423D01*
X49576Y260317D01*
X49659Y260213D01*
X49745Y260112D01*
X49834Y260014D01*
X49925Y259918D01*
X50020Y259825D01*
X50117Y259735D01*
X50217Y259648D01*
X50319Y259563D01*
X50424Y259482D01*
X50531Y259404D01*
X50640Y259328D01*
X50751Y259257D01*
X50865Y259188D01*
X50980Y259123D01*
X51098Y259061D01*
X51217Y259003D01*
X51338Y258948D01*
X51460Y258897D01*
X51584Y258849D01*
X51709Y258805D01*
X51835Y258765D01*
X51963Y258729D01*
X52091Y258696D01*
X52220Y258667D01*
X52351Y258642D01*
X52481Y258621D01*
X52613Y258603D01*
X52745Y258590D01*
X52877Y258580D01*
X53009Y258574D01*
X53142Y258572D01*
X57658Y258572D01*
X57658Y274828D01*
X53142Y274828D01*
X53023Y274826D01*
X52903Y274820D01*
X52784Y274810D01*
X52666Y274796D01*
X52547Y274779D01*
X52430Y274757D01*
X52313Y274732D01*
X52198Y274702D01*
X52083Y274669D01*
X51969Y274632D01*
X51857Y274592D01*
X51746Y274547D01*
X51637Y274499D01*
X51529Y274448D01*
X51423Y274393D01*
X51319Y274334D01*
X51217Y274272D01*
X51117Y274207D01*
X51019Y274138D01*
X50923Y274066D01*
X50830Y273991D01*
X50740Y273914D01*
X50652Y273833D01*
X50567Y273749D01*
X50485Y273662D01*
X50405Y273573D01*
X50329Y273481D01*
X50255Y273387D01*
X50185Y273290D01*
X50118Y273192D01*
X50054Y273091D01*
X49994Y272987D01*
X49937Y272882D01*
X49884Y272775D01*
X49834Y272667D01*
X49788Y272557D01*
X49746Y272445D01*
X49707Y272332D01*
X49672Y272218D01*
X49641Y272103D01*
X49613Y271986D01*
X49590Y271869D01*
X49570Y271752D01*
X49554Y271633D01*
X49542Y271514D01*
X49534Y271395D01*
X49530Y271276D01*
X49530Y271156D01*
X49534Y271037D01*
X49542Y270918D01*
X49554Y270799D01*
X49570Y270680D01*
X49590Y270563D01*
X49613Y270446D01*
X49641Y270329D01*
X49672Y270214D01*
X49707Y270100D01*
X49746Y269987D01*
X49788Y269875D01*
X49834Y269765D01*
X49884Y269657D01*
X49937Y269550D01*
X49994Y269445D01*
X50054Y269341D01*
X50118Y269240D01*
X50185Y269142D01*
X50255Y269045D01*
X50329Y268951D01*
X50405Y268859D01*
X50485Y268770D01*
X50567Y268683D01*
X50652Y268599D01*
X50740Y268518D01*
X50830Y268441D01*
X50923Y268366D01*
X51019Y268294D01*
X51117Y268225D01*
X51217Y268160D01*
X51319Y268098D01*
X51423Y268039D01*
X51529Y267984D01*
X51637Y267933D01*
X51746Y267885D01*
X51857Y267840D01*
X51969Y267800D01*
X52083Y267763D01*
X52198Y267730D01*
X52313Y267700D01*
X52430Y267675D01*
X52547Y267653D01*
X52666Y267636D01*
X52784Y267622D01*
X52903Y267612D01*
X53023Y267606D01*
X53142Y267604D01*
X42759Y258572D02*
X38243Y258572D01*
X38110Y258574D01*
X37978Y258580D01*
X37846Y258590D01*
X37714Y258603D01*
X37582Y258621D01*
X37452Y258642D01*
X37321Y258667D01*
X37192Y258696D01*
X37064Y258729D01*
X36936Y258765D01*
X36810Y258805D01*
X36685Y258849D01*
X36561Y258897D01*
X36439Y258948D01*
X36318Y259003D01*
X36199Y259061D01*
X36081Y259123D01*
X35966Y259188D01*
X35852Y259257D01*
X35741Y259328D01*
X35632Y259404D01*
X35525Y259482D01*
X35420Y259563D01*
X35318Y259648D01*
X35218Y259735D01*
X35121Y259825D01*
X35026Y259918D01*
X34935Y260014D01*
X34846Y260112D01*
X34760Y260213D01*
X34677Y260317D01*
X34597Y260423D01*
X34521Y260531D01*
X34447Y260641D01*
X34377Y260754D01*
X34310Y260868D01*
X34247Y260985D01*
X34187Y261103D01*
X34130Y261223D01*
X34077Y261345D01*
X34028Y261468D01*
X33982Y261592D01*
X33940Y261718D01*
X33902Y261845D01*
X33867Y261973D01*
X33836Y262102D01*
X33809Y262231D01*
X33786Y262362D01*
X33766Y262493D01*
X33751Y262625D01*
X33739Y262757D01*
X33731Y262889D01*
X33727Y263022D01*
X33727Y263154D01*
X33731Y263287D01*
X33739Y263419D01*
X33751Y263551D01*
X33766Y263683D01*
X33786Y263814D01*
X33809Y263945D01*
X33836Y264074D01*
X33867Y264203D01*
X33902Y264331D01*
X33940Y264458D01*
X33982Y264584D01*
X34028Y264708D01*
X34077Y264831D01*
X34130Y264953D01*
X34187Y265073D01*
X34247Y265191D01*
X34310Y265308D01*
X34377Y265422D01*
X34447Y265535D01*
X34521Y265645D01*
X34597Y265753D01*
X34677Y265859D01*
X34760Y265963D01*
X34846Y266064D01*
X34935Y266162D01*
X35026Y266258D01*
X35121Y266351D01*
X35218Y266441D01*
X35318Y266528D01*
X35420Y266613D01*
X35525Y266694D01*
X35632Y266772D01*
X35741Y266848D01*
X35852Y266919D01*
X35966Y266988D01*
X36081Y267053D01*
X36199Y267115D01*
X36318Y267173D01*
X36439Y267228D01*
X36561Y267279D01*
X36685Y267327D01*
X36810Y267371D01*
X36936Y267411D01*
X37064Y267447D01*
X37192Y267480D01*
X37321Y267509D01*
X37452Y267534D01*
X37582Y267555D01*
X37714Y267573D01*
X37846Y267586D01*
X37978Y267596D01*
X38110Y267602D01*
X38243Y267604D01*
X37340Y274828D02*
X42759Y274828D01*
X37340Y274828D02*
X37221Y274826D01*
X37101Y274820D01*
X36982Y274810D01*
X36864Y274796D01*
X36745Y274779D01*
X36628Y274757D01*
X36511Y274732D01*
X36396Y274702D01*
X36281Y274669D01*
X36167Y274632D01*
X36055Y274592D01*
X35944Y274547D01*
X35835Y274499D01*
X35727Y274448D01*
X35621Y274393D01*
X35517Y274334D01*
X35415Y274272D01*
X35315Y274207D01*
X35217Y274138D01*
X35121Y274066D01*
X35028Y273991D01*
X34938Y273914D01*
X34850Y273833D01*
X34765Y273749D01*
X34683Y273662D01*
X34603Y273573D01*
X34527Y273481D01*
X34453Y273387D01*
X34383Y273290D01*
X34316Y273192D01*
X34252Y273091D01*
X34192Y272987D01*
X34135Y272882D01*
X34082Y272775D01*
X34032Y272667D01*
X33986Y272557D01*
X33944Y272445D01*
X33905Y272332D01*
X33870Y272218D01*
X33839Y272103D01*
X33811Y271986D01*
X33788Y271869D01*
X33768Y271752D01*
X33752Y271633D01*
X33740Y271514D01*
X33732Y271395D01*
X33728Y271276D01*
X33728Y271156D01*
X33732Y271037D01*
X33740Y270918D01*
X33752Y270799D01*
X33768Y270680D01*
X33788Y270563D01*
X33811Y270446D01*
X33839Y270329D01*
X33870Y270214D01*
X33905Y270100D01*
X33944Y269987D01*
X33986Y269875D01*
X34032Y269765D01*
X34082Y269657D01*
X34135Y269550D01*
X34192Y269445D01*
X34252Y269341D01*
X34316Y269240D01*
X34383Y269142D01*
X34453Y269045D01*
X34527Y268951D01*
X34603Y268859D01*
X34683Y268770D01*
X34765Y268683D01*
X34850Y268599D01*
X34938Y268518D01*
X35028Y268441D01*
X35121Y268366D01*
X35217Y268294D01*
X35315Y268225D01*
X35415Y268160D01*
X35517Y268098D01*
X35621Y268039D01*
X35727Y267984D01*
X35835Y267933D01*
X35944Y267885D01*
X36055Y267840D01*
X36167Y267800D01*
X36281Y267763D01*
X36396Y267730D01*
X36511Y267700D01*
X36628Y267675D01*
X36745Y267653D01*
X36864Y267636D01*
X36982Y267622D01*
X37101Y267612D01*
X37221Y267606D01*
X37340Y267604D01*
X37340Y267603D02*
X40953Y267603D01*
X53142Y243473D02*
X57658Y243473D01*
X53142Y243474D02*
X53009Y243472D01*
X52877Y243466D01*
X52745Y243456D01*
X52613Y243443D01*
X52481Y243425D01*
X52351Y243404D01*
X52220Y243379D01*
X52091Y243350D01*
X51963Y243317D01*
X51835Y243281D01*
X51709Y243241D01*
X51584Y243197D01*
X51460Y243149D01*
X51338Y243098D01*
X51217Y243043D01*
X51098Y242985D01*
X50980Y242923D01*
X50865Y242858D01*
X50751Y242789D01*
X50640Y242718D01*
X50531Y242642D01*
X50424Y242564D01*
X50319Y242483D01*
X50217Y242398D01*
X50117Y242311D01*
X50020Y242221D01*
X49925Y242128D01*
X49834Y242032D01*
X49745Y241934D01*
X49659Y241833D01*
X49576Y241729D01*
X49496Y241623D01*
X49420Y241515D01*
X49346Y241405D01*
X49276Y241292D01*
X49209Y241178D01*
X49146Y241061D01*
X49086Y240943D01*
X49029Y240823D01*
X48976Y240701D01*
X48927Y240578D01*
X48881Y240454D01*
X48839Y240328D01*
X48801Y240201D01*
X48766Y240073D01*
X48735Y239944D01*
X48708Y239815D01*
X48685Y239684D01*
X48665Y239553D01*
X48650Y239421D01*
X48638Y239289D01*
X48630Y239157D01*
X48626Y239024D01*
X48626Y238892D01*
X48630Y238759D01*
X48638Y238627D01*
X48650Y238495D01*
X48665Y238363D01*
X48685Y238232D01*
X48708Y238101D01*
X48735Y237972D01*
X48766Y237843D01*
X48801Y237715D01*
X48839Y237588D01*
X48881Y237462D01*
X48927Y237338D01*
X48976Y237215D01*
X49029Y237093D01*
X49086Y236973D01*
X49146Y236855D01*
X49209Y236738D01*
X49276Y236624D01*
X49346Y236511D01*
X49420Y236401D01*
X49496Y236293D01*
X49576Y236187D01*
X49659Y236083D01*
X49745Y235982D01*
X49834Y235884D01*
X49925Y235788D01*
X50020Y235695D01*
X50117Y235605D01*
X50217Y235518D01*
X50319Y235433D01*
X50424Y235352D01*
X50531Y235274D01*
X50640Y235198D01*
X50751Y235127D01*
X50865Y235058D01*
X50980Y234993D01*
X51098Y234931D01*
X51217Y234873D01*
X51338Y234818D01*
X51460Y234767D01*
X51584Y234719D01*
X51709Y234675D01*
X51835Y234635D01*
X51963Y234599D01*
X52091Y234566D01*
X52220Y234537D01*
X52351Y234512D01*
X52481Y234491D01*
X52613Y234473D01*
X52745Y234460D01*
X52877Y234450D01*
X53009Y234444D01*
X53142Y234442D01*
X57658Y234442D01*
X57658Y250698D01*
X53142Y250698D01*
X53023Y250696D01*
X52903Y250690D01*
X52784Y250680D01*
X52666Y250666D01*
X52547Y250649D01*
X52430Y250627D01*
X52313Y250602D01*
X52198Y250572D01*
X52083Y250539D01*
X51969Y250502D01*
X51857Y250462D01*
X51746Y250417D01*
X51637Y250369D01*
X51529Y250318D01*
X51423Y250263D01*
X51319Y250204D01*
X51217Y250142D01*
X51117Y250077D01*
X51019Y250008D01*
X50923Y249936D01*
X50830Y249861D01*
X50740Y249784D01*
X50652Y249703D01*
X50567Y249619D01*
X50485Y249532D01*
X50405Y249443D01*
X50329Y249351D01*
X50255Y249257D01*
X50185Y249160D01*
X50118Y249062D01*
X50054Y248961D01*
X49994Y248857D01*
X49937Y248752D01*
X49884Y248645D01*
X49834Y248537D01*
X49788Y248427D01*
X49746Y248315D01*
X49707Y248202D01*
X49672Y248088D01*
X49641Y247973D01*
X49613Y247856D01*
X49590Y247739D01*
X49570Y247622D01*
X49554Y247503D01*
X49542Y247384D01*
X49534Y247265D01*
X49530Y247146D01*
X49530Y247026D01*
X49534Y246907D01*
X49542Y246788D01*
X49554Y246669D01*
X49570Y246550D01*
X49590Y246433D01*
X49613Y246316D01*
X49641Y246199D01*
X49672Y246084D01*
X49707Y245970D01*
X49746Y245857D01*
X49788Y245745D01*
X49834Y245635D01*
X49884Y245527D01*
X49937Y245420D01*
X49994Y245315D01*
X50054Y245211D01*
X50118Y245110D01*
X50185Y245012D01*
X50255Y244915D01*
X50329Y244821D01*
X50405Y244729D01*
X50485Y244640D01*
X50567Y244553D01*
X50652Y244469D01*
X50740Y244388D01*
X50830Y244311D01*
X50923Y244236D01*
X51019Y244164D01*
X51117Y244095D01*
X51217Y244030D01*
X51319Y243968D01*
X51423Y243909D01*
X51529Y243854D01*
X51637Y243803D01*
X51746Y243755D01*
X51857Y243710D01*
X51969Y243670D01*
X52083Y243633D01*
X52198Y243600D01*
X52313Y243570D01*
X52430Y243545D01*
X52547Y243523D01*
X52666Y243506D01*
X52784Y243492D01*
X52903Y243482D01*
X53023Y243476D01*
X53142Y243474D01*
X42759Y238054D02*
X39146Y250698D01*
X42759Y238054D02*
X33728Y238054D01*
X36437Y241667D02*
X36437Y234442D01*
X52239Y225298D02*
X57658Y209042D01*
X46821Y209042D02*
X52239Y225298D01*
X48175Y213106D02*
X56303Y213106D01*
X41124Y212654D02*
X37511Y225298D01*
X41124Y212654D02*
X32093Y212654D01*
X34802Y216267D02*
X34802Y209042D01*
X73462Y184912D02*
X77978Y184912D01*
X73462Y184912D02*
X73329Y184914D01*
X73197Y184920D01*
X73065Y184930D01*
X72933Y184943D01*
X72801Y184961D01*
X72671Y184982D01*
X72540Y185007D01*
X72411Y185036D01*
X72283Y185069D01*
X72155Y185105D01*
X72029Y185145D01*
X71904Y185189D01*
X71780Y185237D01*
X71658Y185288D01*
X71537Y185343D01*
X71418Y185401D01*
X71300Y185463D01*
X71185Y185528D01*
X71071Y185597D01*
X70960Y185668D01*
X70851Y185744D01*
X70744Y185822D01*
X70639Y185903D01*
X70537Y185988D01*
X70437Y186075D01*
X70340Y186165D01*
X70245Y186258D01*
X70154Y186354D01*
X70065Y186452D01*
X69979Y186553D01*
X69896Y186657D01*
X69816Y186763D01*
X69740Y186871D01*
X69666Y186981D01*
X69596Y187094D01*
X69529Y187208D01*
X69466Y187325D01*
X69406Y187443D01*
X69349Y187563D01*
X69296Y187685D01*
X69247Y187808D01*
X69201Y187932D01*
X69159Y188058D01*
X69121Y188185D01*
X69086Y188313D01*
X69055Y188442D01*
X69028Y188571D01*
X69005Y188702D01*
X68985Y188833D01*
X68970Y188965D01*
X68958Y189097D01*
X68950Y189229D01*
X68946Y189362D01*
X68946Y189494D01*
X68950Y189627D01*
X68958Y189759D01*
X68970Y189891D01*
X68985Y190023D01*
X69005Y190154D01*
X69028Y190285D01*
X69055Y190414D01*
X69086Y190543D01*
X69121Y190671D01*
X69159Y190798D01*
X69201Y190924D01*
X69247Y191048D01*
X69296Y191171D01*
X69349Y191293D01*
X69406Y191413D01*
X69466Y191531D01*
X69529Y191648D01*
X69596Y191762D01*
X69666Y191875D01*
X69740Y191985D01*
X69816Y192093D01*
X69896Y192199D01*
X69979Y192303D01*
X70065Y192404D01*
X70154Y192502D01*
X70245Y192598D01*
X70340Y192691D01*
X70437Y192781D01*
X70537Y192868D01*
X70639Y192953D01*
X70744Y193034D01*
X70851Y193112D01*
X70960Y193188D01*
X71071Y193259D01*
X71185Y193328D01*
X71300Y193393D01*
X71418Y193455D01*
X71537Y193513D01*
X71658Y193568D01*
X71780Y193619D01*
X71904Y193667D01*
X72029Y193711D01*
X72155Y193751D01*
X72283Y193787D01*
X72411Y193820D01*
X72540Y193849D01*
X72671Y193874D01*
X72801Y193895D01*
X72933Y193913D01*
X73065Y193926D01*
X73197Y193936D01*
X73329Y193942D01*
X73462Y193944D01*
X72559Y201168D02*
X77978Y201168D01*
X72559Y201168D02*
X72440Y201166D01*
X72320Y201160D01*
X72201Y201150D01*
X72083Y201136D01*
X71964Y201119D01*
X71847Y201097D01*
X71730Y201072D01*
X71615Y201042D01*
X71500Y201009D01*
X71386Y200972D01*
X71274Y200932D01*
X71163Y200887D01*
X71054Y200839D01*
X70946Y200788D01*
X70840Y200733D01*
X70736Y200674D01*
X70634Y200612D01*
X70534Y200547D01*
X70436Y200478D01*
X70340Y200406D01*
X70247Y200331D01*
X70157Y200254D01*
X70069Y200173D01*
X69984Y200089D01*
X69902Y200002D01*
X69822Y199913D01*
X69746Y199821D01*
X69672Y199727D01*
X69602Y199630D01*
X69535Y199532D01*
X69471Y199431D01*
X69411Y199327D01*
X69354Y199222D01*
X69301Y199115D01*
X69251Y199007D01*
X69205Y198897D01*
X69163Y198785D01*
X69124Y198672D01*
X69089Y198558D01*
X69058Y198443D01*
X69030Y198326D01*
X69007Y198209D01*
X68987Y198092D01*
X68971Y197973D01*
X68959Y197854D01*
X68951Y197735D01*
X68947Y197616D01*
X68947Y197496D01*
X68951Y197377D01*
X68959Y197258D01*
X68971Y197139D01*
X68987Y197020D01*
X69007Y196903D01*
X69030Y196786D01*
X69058Y196669D01*
X69089Y196554D01*
X69124Y196440D01*
X69163Y196327D01*
X69205Y196215D01*
X69251Y196105D01*
X69301Y195997D01*
X69354Y195890D01*
X69411Y195785D01*
X69471Y195681D01*
X69535Y195580D01*
X69602Y195482D01*
X69672Y195385D01*
X69746Y195291D01*
X69822Y195199D01*
X69902Y195110D01*
X69984Y195023D01*
X70069Y194939D01*
X70157Y194858D01*
X70247Y194781D01*
X70340Y194706D01*
X70436Y194634D01*
X70534Y194565D01*
X70634Y194500D01*
X70736Y194438D01*
X70840Y194379D01*
X70946Y194324D01*
X71054Y194273D01*
X71163Y194225D01*
X71274Y194180D01*
X71386Y194140D01*
X71500Y194103D01*
X71615Y194070D01*
X71730Y194040D01*
X71847Y194015D01*
X71964Y193993D01*
X72083Y193976D01*
X72201Y193962D01*
X72320Y193952D01*
X72440Y193946D01*
X72559Y193944D01*
X72559Y193943D02*
X76172Y193943D01*
X62972Y185815D02*
X62972Y184912D01*
X62972Y185815D02*
X62069Y185815D01*
X62069Y184912D01*
X62972Y184912D01*
X56094Y184912D02*
X51579Y184912D01*
X51446Y184914D01*
X51314Y184920D01*
X51182Y184930D01*
X51050Y184943D01*
X50918Y184961D01*
X50788Y184982D01*
X50657Y185007D01*
X50528Y185036D01*
X50400Y185069D01*
X50272Y185105D01*
X50146Y185145D01*
X50021Y185189D01*
X49897Y185237D01*
X49775Y185288D01*
X49654Y185343D01*
X49535Y185401D01*
X49417Y185463D01*
X49302Y185528D01*
X49188Y185597D01*
X49077Y185668D01*
X48968Y185744D01*
X48861Y185822D01*
X48756Y185903D01*
X48654Y185988D01*
X48554Y186075D01*
X48457Y186165D01*
X48362Y186258D01*
X48271Y186354D01*
X48182Y186452D01*
X48096Y186553D01*
X48013Y186657D01*
X47933Y186763D01*
X47857Y186871D01*
X47783Y186981D01*
X47713Y187094D01*
X47646Y187208D01*
X47583Y187325D01*
X47523Y187443D01*
X47466Y187563D01*
X47413Y187685D01*
X47364Y187808D01*
X47318Y187932D01*
X47276Y188058D01*
X47238Y188185D01*
X47203Y188313D01*
X47172Y188442D01*
X47145Y188571D01*
X47122Y188702D01*
X47102Y188833D01*
X47087Y188965D01*
X47075Y189097D01*
X47067Y189229D01*
X47063Y189362D01*
X47063Y189494D01*
X47067Y189627D01*
X47075Y189759D01*
X47087Y189891D01*
X47102Y190023D01*
X47122Y190154D01*
X47145Y190285D01*
X47172Y190414D01*
X47203Y190543D01*
X47238Y190671D01*
X47276Y190798D01*
X47318Y190924D01*
X47364Y191048D01*
X47413Y191171D01*
X47466Y191293D01*
X47523Y191413D01*
X47583Y191531D01*
X47646Y191648D01*
X47713Y191762D01*
X47783Y191875D01*
X47857Y191985D01*
X47933Y192093D01*
X48013Y192199D01*
X48096Y192303D01*
X48182Y192404D01*
X48271Y192502D01*
X48362Y192598D01*
X48457Y192691D01*
X48554Y192781D01*
X48654Y192868D01*
X48756Y192953D01*
X48861Y193034D01*
X48968Y193112D01*
X49077Y193188D01*
X49188Y193259D01*
X49302Y193328D01*
X49417Y193393D01*
X49535Y193455D01*
X49654Y193513D01*
X49775Y193568D01*
X49897Y193619D01*
X50021Y193667D01*
X50146Y193711D01*
X50272Y193751D01*
X50400Y193787D01*
X50528Y193820D01*
X50657Y193849D01*
X50788Y193874D01*
X50918Y193895D01*
X51050Y193913D01*
X51182Y193926D01*
X51314Y193936D01*
X51446Y193942D01*
X51579Y193944D01*
X50676Y201168D02*
X56094Y201168D01*
X50676Y201168D02*
X50557Y201166D01*
X50437Y201160D01*
X50318Y201150D01*
X50200Y201136D01*
X50081Y201119D01*
X49964Y201097D01*
X49847Y201072D01*
X49732Y201042D01*
X49617Y201009D01*
X49503Y200972D01*
X49391Y200932D01*
X49280Y200887D01*
X49171Y200839D01*
X49063Y200788D01*
X48957Y200733D01*
X48853Y200674D01*
X48751Y200612D01*
X48651Y200547D01*
X48553Y200478D01*
X48457Y200406D01*
X48364Y200331D01*
X48274Y200254D01*
X48186Y200173D01*
X48101Y200089D01*
X48019Y200002D01*
X47939Y199913D01*
X47863Y199821D01*
X47789Y199727D01*
X47719Y199630D01*
X47652Y199532D01*
X47588Y199431D01*
X47528Y199327D01*
X47471Y199222D01*
X47418Y199115D01*
X47368Y199007D01*
X47322Y198897D01*
X47280Y198785D01*
X47241Y198672D01*
X47206Y198558D01*
X47175Y198443D01*
X47147Y198326D01*
X47124Y198209D01*
X47104Y198092D01*
X47088Y197973D01*
X47076Y197854D01*
X47068Y197735D01*
X47064Y197616D01*
X47064Y197496D01*
X47068Y197377D01*
X47076Y197258D01*
X47088Y197139D01*
X47104Y197020D01*
X47124Y196903D01*
X47147Y196786D01*
X47175Y196669D01*
X47206Y196554D01*
X47241Y196440D01*
X47280Y196327D01*
X47322Y196215D01*
X47368Y196105D01*
X47418Y195997D01*
X47471Y195890D01*
X47528Y195785D01*
X47588Y195681D01*
X47652Y195580D01*
X47719Y195482D01*
X47789Y195385D01*
X47863Y195291D01*
X47939Y195199D01*
X48019Y195110D01*
X48101Y195023D01*
X48186Y194939D01*
X48274Y194858D01*
X48364Y194781D01*
X48457Y194706D01*
X48553Y194634D01*
X48651Y194565D01*
X48751Y194500D01*
X48853Y194438D01*
X48957Y194379D01*
X49063Y194324D01*
X49171Y194273D01*
X49280Y194225D01*
X49391Y194180D01*
X49503Y194140D01*
X49617Y194103D01*
X49732Y194070D01*
X49847Y194040D01*
X49964Y194015D01*
X50081Y193993D01*
X50200Y193976D01*
X50318Y193962D01*
X50437Y193952D01*
X50557Y193946D01*
X50676Y193944D01*
X50676Y193943D02*
X54288Y193943D01*
X41366Y201168D02*
X35948Y184912D01*
X30529Y201168D01*
X72757Y167273D02*
X75466Y167273D01*
X72757Y167273D02*
X72757Y158242D01*
X78176Y158242D01*
X78294Y158244D01*
X78412Y158250D01*
X78530Y158259D01*
X78647Y158273D01*
X78764Y158290D01*
X78881Y158311D01*
X78996Y158336D01*
X79111Y158365D01*
X79225Y158398D01*
X79337Y158434D01*
X79448Y158474D01*
X79558Y158517D01*
X79667Y158564D01*
X79774Y158614D01*
X79879Y158669D01*
X79982Y158726D01*
X80083Y158787D01*
X80183Y158851D01*
X80280Y158918D01*
X80375Y158988D01*
X80467Y159062D01*
X80558Y159138D01*
X80645Y159218D01*
X80730Y159300D01*
X80812Y159385D01*
X80892Y159472D01*
X80968Y159563D01*
X81042Y159655D01*
X81112Y159750D01*
X81179Y159847D01*
X81243Y159947D01*
X81304Y160048D01*
X81361Y160151D01*
X81416Y160256D01*
X81466Y160363D01*
X81513Y160472D01*
X81556Y160582D01*
X81596Y160693D01*
X81632Y160805D01*
X81665Y160919D01*
X81694Y161034D01*
X81719Y161149D01*
X81740Y161266D01*
X81757Y161383D01*
X81771Y161500D01*
X81780Y161618D01*
X81786Y161736D01*
X81788Y161854D01*
X81788Y170886D01*
X81786Y171004D01*
X81780Y171122D01*
X81771Y171240D01*
X81757Y171357D01*
X81740Y171474D01*
X81719Y171591D01*
X81694Y171706D01*
X81665Y171821D01*
X81632Y171935D01*
X81596Y172047D01*
X81556Y172158D01*
X81513Y172268D01*
X81466Y172377D01*
X81416Y172484D01*
X81361Y172589D01*
X81304Y172692D01*
X81243Y172793D01*
X81179Y172893D01*
X81112Y172990D01*
X81042Y173085D01*
X80968Y173177D01*
X80892Y173268D01*
X80812Y173355D01*
X80730Y173440D01*
X80645Y173522D01*
X80558Y173602D01*
X80467Y173678D01*
X80375Y173752D01*
X80280Y173822D01*
X80183Y173889D01*
X80083Y173953D01*
X79982Y174014D01*
X79879Y174071D01*
X79774Y174126D01*
X79667Y174176D01*
X79558Y174223D01*
X79448Y174266D01*
X79337Y174306D01*
X79225Y174342D01*
X79111Y174375D01*
X78996Y174404D01*
X78881Y174429D01*
X78764Y174450D01*
X78647Y174467D01*
X78530Y174481D01*
X78412Y174490D01*
X78294Y174496D01*
X78176Y174498D01*
X72757Y174498D01*
X65115Y174498D02*
X65115Y158242D01*
X56084Y158242D02*
X65115Y174498D01*
X56084Y174498D02*
X56084Y158242D01*
X48441Y158242D02*
X48441Y174498D01*
X43926Y174498D01*
X43795Y174496D01*
X43663Y174490D01*
X43532Y174481D01*
X43402Y174467D01*
X43271Y174450D01*
X43142Y174429D01*
X43013Y174405D01*
X42885Y174376D01*
X42757Y174344D01*
X42631Y174308D01*
X42506Y174269D01*
X42381Y174226D01*
X42259Y174179D01*
X42137Y174129D01*
X42017Y174075D01*
X41899Y174018D01*
X41783Y173957D01*
X41668Y173893D01*
X41555Y173826D01*
X41444Y173755D01*
X41336Y173681D01*
X41229Y173604D01*
X41125Y173524D01*
X41023Y173441D01*
X40924Y173356D01*
X40827Y173267D01*
X40733Y173175D01*
X40641Y173081D01*
X40552Y172984D01*
X40467Y172885D01*
X40384Y172783D01*
X40304Y172679D01*
X40227Y172572D01*
X40153Y172464D01*
X40082Y172353D01*
X40015Y172240D01*
X39951Y172125D01*
X39890Y172009D01*
X39833Y171891D01*
X39779Y171771D01*
X39729Y171649D01*
X39682Y171527D01*
X39639Y171402D01*
X39600Y171277D01*
X39564Y171151D01*
X39532Y171023D01*
X39503Y170895D01*
X39479Y170766D01*
X39458Y170637D01*
X39441Y170506D01*
X39427Y170376D01*
X39418Y170245D01*
X39412Y170113D01*
X39410Y169982D01*
X39410Y162758D01*
X39412Y162627D01*
X39418Y162495D01*
X39427Y162364D01*
X39441Y162234D01*
X39458Y162103D01*
X39479Y161974D01*
X39503Y161845D01*
X39532Y161717D01*
X39564Y161589D01*
X39600Y161463D01*
X39639Y161338D01*
X39682Y161213D01*
X39729Y161091D01*
X39779Y160969D01*
X39833Y160849D01*
X39890Y160731D01*
X39951Y160615D01*
X40015Y160500D01*
X40082Y160387D01*
X40153Y160276D01*
X40227Y160168D01*
X40304Y160061D01*
X40384Y159957D01*
X40467Y159855D01*
X40552Y159756D01*
X40641Y159659D01*
X40733Y159565D01*
X40827Y159473D01*
X40924Y159384D01*
X41023Y159299D01*
X41125Y159216D01*
X41229Y159136D01*
X41336Y159059D01*
X41444Y158985D01*
X41555Y158914D01*
X41668Y158847D01*
X41783Y158783D01*
X41899Y158722D01*
X42017Y158665D01*
X42137Y158611D01*
X42259Y158561D01*
X42381Y158514D01*
X42506Y158471D01*
X42631Y158432D01*
X42757Y158396D01*
X42885Y158364D01*
X43013Y158335D01*
X43142Y158311D01*
X43271Y158290D01*
X43402Y158273D01*
X43532Y158259D01*
X43663Y158250D01*
X43795Y158244D01*
X43926Y158242D01*
X48441Y158242D01*
D11*
X498510Y105040D02*
X498510Y27040D01*
X408510Y27040D02*
X408510Y105040D01*
X408510Y27040D02*
X498510Y27040D01*
X498510Y105040D02*
X408510Y105040D01*
X453510Y31040D02*
X493510Y36040D01*
X493510Y46040D01*
X453510Y51040D01*
X448510Y101040D02*
X493510Y96040D01*
X493510Y86040D01*
X448510Y81040D01*
X443510Y58540D02*
X493510Y53540D01*
X443510Y58540D02*
X443510Y73540D01*
X493510Y78540D01*
M02*
